<svg width="11" height="13" viewBox="0 0 11 13" fill="none" xmlns="http://www.w3.org/2000/svg">
<path d="M7.18183 2.06337C7.62922 1.50792 7.93282 0.762121 7.85274 0C7.19783 0.0323243 6.39863 0.428874 5.93594 0.984756C5.52049 1.46078 5.15278 2.23781 5.24864 2.96799C5.98381 3.03128 6.71831 2.60323 7.18183 2.06337Z" fill="black"/>
<path d="M7.84443 3.11067C6.77678 3.04755 5.86902 3.71213 5.35916 3.71213C4.84902 3.71213 4.06826 3.14248 3.22381 3.15784C2.1247 3.17386 1.10485 3.79071 0.547098 4.77179C-0.600103 6.73443 0.244352 9.64572 1.35994 11.2442C1.9017 12.035 2.55461 12.9057 3.41492 12.8745C4.22777 12.8428 4.54637 12.352 5.53442 12.352C6.52174 12.352 6.80874 12.8745 7.66918 12.8586C8.56149 12.8428 9.11934 12.0674 9.66109 11.2758C10.2826 10.3744 10.537 9.50391 10.553 9.45612C10.537 9.4403 8.83239 8.7912 8.81658 6.84487C8.80049 5.21518 10.1549 4.44001 10.2186 4.39193C9.45379 3.26909 8.25874 3.14248 7.84443 3.11067Z" fill="black"/>
</svg>
