<svg width="61" height="60" viewBox="0 0 61 60" fill="none" xmlns="http://www.w3.org/2000/svg">
<rect x="1" y="0.5" width="59" height="59" rx="17.5" fill="white"/>
<rect x="1" y="0.5" width="59" height="59" rx="17.5" stroke="#D0D5DD"/>
<path d="M40.2725 36.7033C39.9062 37.5418 39.4727 38.3136 38.9704 39.0232C38.2857 39.9906 37.7251 40.6602 37.2931 41.032C36.6233 41.6424 35.9058 41.955 35.1374 41.9728C34.5857 41.9728 33.9205 41.8172 33.1461 41.5017C32.3692 41.1876 31.6552 41.032 31.0024 41.032C30.3177 41.032 29.5834 41.1876 28.7979 41.5017C28.0113 41.8172 27.3776 41.9816 26.893 41.9979C26.1562 42.0291 25.4217 41.7076 24.6886 41.032C24.2207 40.6276 23.6354 39.9343 22.9343 38.9521C22.182 37.9033 21.5636 36.687 21.0791 35.3004C20.5602 33.8026 20.3 32.3523 20.3 30.9482C20.3 29.3398 20.6508 27.9526 21.3532 26.7901C21.9053 25.8564 22.6398 25.1198 23.559 24.5791C24.4783 24.0383 25.4715 23.7628 26.5411 23.7452C27.1264 23.7452 27.8939 23.9246 28.8477 24.2771C29.7988 24.6309 30.4095 24.8103 30.6772 24.8103C30.8774 24.8103 31.5558 24.6005 32.7058 24.1823C33.7934 23.7945 34.7113 23.6339 35.4633 23.6972C37.5009 23.8601 39.0317 24.6561 40.0498 26.0901C38.2274 27.1843 37.326 28.7169 37.3439 30.6829C37.3603 32.2142 37.921 33.4886 39.0227 34.5004C39.522 34.97 40.0797 35.333 40.7001 35.5907C40.5655 35.9774 40.4235 36.3477 40.2725 36.7033ZM35.5993 18.4801C35.5993 19.6804 35.1568 20.8011 34.2748 21.8384C33.2104 23.0716 31.9229 23.7841 30.5268 23.6717C30.509 23.5277 30.4987 23.3761 30.4987 23.2169C30.4987 22.0646 31.0049 20.8315 31.9038 19.8232C32.3526 19.3127 32.9234 18.8882 33.6155 18.5496C34.3062 18.2161 34.9595 18.0316 35.5739 18C35.5918 18.1605 35.5993 18.3209 35.5993 18.4801V18.4801Z" fill="#121214"/>
</svg>
