<svg width="348" height="80" viewBox="0 0 348 80" fill="none" xmlns="http://www.w3.org/2000/svg">
<path d="M5.19403 0H0V80H5.19403V0Z" fill="black"/>
<path d="M10.388 0H7.79102V80H10.388V0Z" fill="black"/>
<path d="M18.179 0H15.582V80H18.179V0Z" fill="black"/>
<path d="M33.7612 0H28.5671V80H33.7612V0Z" fill="black"/>
<path d="M44.1492 0H36.3582V80H44.1492V0Z" fill="black"/>
<path d="M51.9403 0H49.3433V80H51.9403V0Z" fill="black"/>
<path d="M59.7313 0H57.1343V80H59.7313V0Z" fill="black"/>
<path d="M70.1194 0H62.3284V80H70.1194V0Z" fill="black"/>
<path d="M83.1045 0H72.7164V80H83.1045V0Z" fill="black"/>
<path d="M96.0896 0H85.7015V80H96.0896V0Z" fill="black"/>
<path d="M106.478 0H103.881V80H106.478V0Z" fill="black"/>
<path d="M111.672 0H109.075V80H111.672V0Z" fill="black"/>
<path d="M116.866 0H114.269V80H116.866V0Z" fill="black"/>
<path d="M122.06 0H119.463V80H122.06V0Z" fill="black"/>
<path d="M132.448 0H127.254V80H132.448V0Z" fill="black"/>
<path d="M145.433 0H142.836V80H145.433V0Z" fill="black"/>
<path d="M158.418 0H155.821V80H158.418V0Z" fill="black"/>
<path d="M168.806 0H163.612V80H168.806V0Z" fill="black"/>
<path d="M179.194 0H171.403V80H179.194V0Z" fill="black"/>
<path d="M189.582 0H186.985V80H189.582V0Z" fill="black"/>
<path d="M197.373 0H192.179V80H197.373V0Z" fill="black"/>
<path d="M202.567 0H199.97V80H202.567V0Z" fill="black"/>
<path d="M212.955 0H207.761V80H212.955V0Z" fill="black"/>
<path d="M218.149 0H215.552V80H218.149V0Z" fill="black"/>
<path d="M231.134 0H228.537V80H231.134V0Z" fill="black"/>
<path d="M241.522 0H233.731V80H241.522V0Z" fill="black"/>
<path d="M249.313 0H244.119V80H249.313V0Z" fill="black"/>
<path d="M264.896 0H257.104V80H264.896V0Z" fill="black"/>
<path d="M270.09 0H267.493V80H270.09V0Z" fill="black"/>
<path d="M280.478 0H275.284V80H280.478V0Z" fill="black"/>
<path d="M288.269 0H285.672V80H288.269V0Z" fill="black"/>
<path d="M301.254 0H296.06V80H301.254V0Z" fill="black"/>
<path d="M311.642 0H309.045V80H311.642V0Z" fill="black"/>
<path d="M319.433 0H314.239V80H319.433V0Z" fill="black"/>
<path d="M335.015 0H327.224V80H335.015V0Z" fill="black"/>
<path d="M340.209 0H337.612V80H340.209V0Z" fill="black"/>
<path d="M348 0H342.806V80H348V0Z" fill="black"/>
</svg>
