<svg width="20" height="20" viewBox="0 0 20 20" fill="none" xmlns="http://www.w3.org/2000/svg">
<path d="M3.33337 13.75V16.6666C3.33337 17.5872 4.07952 18.3333 5.00004 18.3333H15C15.9206 18.3333 16.6667 17.5872 16.6667 16.6666V13.75" stroke="#121214" stroke-linecap="round" stroke-linejoin="round"/>
<path d="M2.5 11.667V10.8337C2.5 9.91322 3.24623 9.16699 4.16667 9.16699H15.8334C16.7539 9.16699 17.5001 9.91322 17.5001 10.8337V11.667" stroke="#121214" stroke-linecap="round" stroke-linejoin="round"/>
<path d="M10 6.66699V9.16695" stroke="#121214" stroke-linecap="round" stroke-linejoin="round"/>
<path d="M10 6.66699C11.052 6.66699 11.6667 5.86021 11.6667 4.47951C11.6667 3.09881 10 1.66699 10 1.66699C10 1.66699 8.33337 3.09873 8.33337 4.47951C8.33337 5.86028 8.94804 6.66699 10 6.66699Z" stroke="#121214" stroke-linecap="round" stroke-linejoin="round"/>
<path d="M7.5 11.667C7.5 13.0478 6.38074 14.167 5.00004 14.167C3.61934 14.167 2.5 13.0478 2.5 11.667" stroke="#121214" stroke-linecap="round" stroke-linejoin="round"/>
<path d="M12.5001 11.667C12.5001 13.0478 11.3808 14.167 10 14.167C8.61926 14.167 7.5 13.0478 7.5 11.667" stroke="#121214" stroke-linecap="round" stroke-linejoin="round"/>
<path d="M17.5 11.667C17.5 13.0478 16.3807 14.167 15 14.167C13.6192 14.167 12.5 13.0478 12.5 11.667" stroke="#121214" stroke-linecap="round" stroke-linejoin="round"/>
</svg>
