<svg width="20" height="20" viewBox="0 0 20 20" fill="none" xmlns="http://www.w3.org/2000/svg">
<path d="M6.8988 2.16663C6.91703 2.16663 6.93772 2.17429 6.95544 2.19202C6.97295 2.20959 6.98074 2.22959 6.98083 2.24768V4.57385C6.98077 4.59195 6.97295 4.61192 6.95544 4.62952C6.93772 4.64724 6.91703 4.65491 6.8988 4.65491C6.88066 4.65482 6.86075 4.64713 6.84314 4.62952C6.82553 4.61189 6.81782 4.592 6.81775 4.57385V2.24768C6.81784 2.22954 6.82553 2.20963 6.84314 2.19202C6.86075 2.1744 6.88066 2.16672 6.8988 2.16663Z" fill="#302B2B" stroke="#121214"/>
<path d="M13.1003 2.16663C13.1186 2.16663 13.1393 2.17429 13.157 2.19202C13.1745 2.20959 13.1823 2.22959 13.1824 2.24768V4.57385C13.1823 4.59195 13.1745 4.61192 13.157 4.62952C13.1393 4.64724 13.1186 4.65491 13.1003 4.65491C13.0822 4.65482 13.0623 4.64713 13.0447 4.62952C13.0271 4.61189 13.0194 4.592 13.0193 4.57385V2.24768C13.0194 2.22954 13.0271 2.20963 13.0447 2.19202C13.0623 2.1744 13.0822 2.16672 13.1003 2.16663Z" fill="#302B2B" stroke="#121214"/>
<path d="M7.28667 11.9379C7.18589 11.9379 7.08512 11.9147 6.99209 11.8759C6.89132 11.8372 6.8138 11.7829 6.73628 11.7131C6.59675 11.5658 6.51147 11.372 6.51147 11.1627C6.51147 11.062 6.53473 10.9612 6.57349 10.8682C6.61225 10.7751 6.66651 10.6899 6.73628 10.6124C6.8138 10.5426 6.89132 10.4883 6.99209 10.4496C7.27116 10.3333 7.62 10.3953 7.83706 10.6124C7.97659 10.7596 8.06186 10.9612 8.06186 11.1627C8.06186 11.2093 8.05411 11.2635 8.04636 11.3178C8.03861 11.3643 8.0231 11.4108 7.99985 11.4573C7.98434 11.5038 7.96109 11.5503 7.93008 11.5968C7.90683 11.6356 7.86806 11.6744 7.83706 11.7131C7.68977 11.8527 7.48822 11.9379 7.28667 11.9379Z" fill="#302B2B"/>
<path d="M9.9998 11.938C9.89903 11.938 9.79825 11.9147 9.70523 11.876C9.60445 11.8372 9.52694 11.7829 9.44942 11.7131C9.30988 11.5659 9.22461 11.3721 9.22461 11.1628C9.22461 11.062 9.24787 10.9612 9.28663 10.8682C9.32539 10.7752 9.37965 10.6899 9.44942 10.6124C9.52694 10.5426 9.60445 10.4883 9.70523 10.4496C9.9843 10.3255 10.3331 10.3953 10.5502 10.6124C10.6897 10.7597 10.775 10.9612 10.775 11.1628C10.775 11.2093 10.7672 11.2636 10.7595 11.3178C10.7517 11.3643 10.7362 11.4108 10.713 11.4573C10.6975 11.5039 10.6742 11.5504 10.6432 11.5969C10.62 11.6356 10.5812 11.6744 10.5502 11.7131C10.4029 11.8527 10.2014 11.938 9.9998 11.938Z" fill="#302B2B"/>
<path d="M12.7131 11.938C12.6123 11.938 12.5115 11.9147 12.4185 11.876C12.3177 11.8372 12.2402 11.7829 12.1627 11.7131C12.1317 11.6744 12.1007 11.6356 12.0696 11.5969C12.0386 11.5504 12.0154 11.5039 11.9999 11.4573C11.9766 11.4108 11.9611 11.3643 11.9534 11.3178C11.9456 11.2636 11.9379 11.2093 11.9379 11.1628C11.9379 10.9612 12.0231 10.7597 12.1627 10.6124C12.2402 10.5426 12.3177 10.4883 12.4185 10.4496C12.7053 10.3255 13.0464 10.3953 13.2634 10.6124C13.403 10.7597 13.4883 10.9612 13.4883 11.1628C13.4883 11.2093 13.4805 11.2636 13.4727 11.3178C13.465 11.3643 13.4495 11.4108 13.4262 11.4573C13.4107 11.5039 13.3875 11.5504 13.3565 11.5969C13.3332 11.6356 13.2945 11.6744 13.2634 11.7131C13.1162 11.8527 12.9146 11.938 12.7131 11.938Z" fill="#302B2B"/>
<path d="M7.28667 14.6512C7.18589 14.6512 7.08512 14.6279 6.99209 14.5892C6.89907 14.5504 6.8138 14.4961 6.73628 14.4264C6.59675 14.2791 6.51147 14.0775 6.51147 13.876C6.51147 13.7752 6.53473 13.6744 6.57349 13.5814C6.61225 13.4806 6.66651 13.3954 6.73628 13.3256C7.0231 13.0388 7.55023 13.0388 7.83706 13.3256C7.97659 13.4729 8.06186 13.6744 8.06186 13.876C8.06186 14.0775 7.97659 14.2791 7.83706 14.4264C7.68977 14.5659 7.48822 14.6512 7.28667 14.6512Z" fill="#302B2B"/>
<path d="M9.9998 14.6512C9.79825 14.6512 9.5967 14.5659 9.44942 14.4264C9.30988 14.2791 9.22461 14.0775 9.22461 13.876C9.22461 13.7752 9.24787 13.6744 9.28663 13.5814C9.32539 13.4806 9.37965 13.3954 9.44942 13.3256C9.73624 13.0388 10.2634 13.0388 10.5502 13.3256C10.62 13.3954 10.6742 13.4806 10.713 13.5814C10.7517 13.6744 10.775 13.7752 10.775 13.876C10.775 14.0775 10.6897 14.2791 10.5502 14.4264C10.4029 14.5659 10.2014 14.6512 9.9998 14.6512Z" fill="#302B2B"/>
<path d="M12.7131 14.6512C12.5115 14.6512 12.31 14.5659 12.1627 14.4264C12.0929 14.3566 12.0386 14.2713 11.9999 14.1706C11.9611 14.0775 11.9379 13.9768 11.9379 13.876C11.9379 13.7752 11.9611 13.6744 11.9999 13.5814C12.0386 13.4806 12.0929 13.3954 12.1627 13.3256C12.341 13.1473 12.6123 13.062 12.8603 13.1163C12.9146 13.124 12.9611 13.1395 13.0076 13.1628C13.0541 13.1783 13.1007 13.2016 13.1472 13.2326C13.1859 13.2558 13.2247 13.2946 13.2634 13.3256C13.403 13.4729 13.4883 13.6744 13.4883 13.876C13.4883 14.0775 13.403 14.2791 13.2634 14.4264C13.1162 14.5659 12.9146 14.6512 12.7131 14.6512Z" fill="#302B2B"/>
<path d="M16.589 8.32551H3.41074C3.09291 8.32551 2.82935 8.06194 2.82935 7.74412C2.82935 7.42629 3.09291 7.16272 3.41074 7.16272H16.589C16.9069 7.16272 17.1704 7.42629 17.1704 7.74412C17.1704 8.06194 16.9069 8.32551 16.589 8.32551Z" fill="#302B2B"/>
<path d="M13.1007 18.3333H6.89914C4.06968 18.3333 2.44177 16.7054 2.44177 13.876V7.28683C2.44177 4.45737 4.06968 2.82947 6.89914 2.82947H13.1007C15.9301 2.82947 17.5581 4.45737 17.5581 7.28683V13.876C17.5581 16.7054 15.9301 18.3333 13.1007 18.3333ZM6.89914 3.99226C4.68208 3.99226 3.60456 5.06978 3.60456 7.28683V13.876C3.60456 16.093 4.68208 17.1706 6.89914 17.1706H13.1007C15.3177 17.1706 16.3953 16.093 16.3953 13.876V7.28683C16.3953 5.06978 15.3177 3.99226 13.1007 3.99226H6.89914Z" fill="#302B2B"/>
</svg>
