<svg width="18" height="20" viewBox="0 0 18 20" fill="none" xmlns="http://www.w3.org/2000/svg">
<path fill-rule="evenodd" clip-rule="evenodd" d="M5.33562 4.82375C5.33554 4.81922 5.3355 4.81468 5.3355 4.81013V3.79747C5.3355 1.70018 6.97616 0 9.00002 0C11.0239 0 12.6645 1.70018 12.6645 3.79747V4.81013C12.6645 4.81468 12.6645 4.81922 12.6644 4.82375C13.9322 4.86051 14.7044 4.99638 15.2957 5.49871C16.1062 6.18729 16.3319 7.35635 16.7831 9.69448L17.3694 12.7325C18.0184 16.0949 18.3428 17.7761 17.4632 18.8881C16.5835 20 14.929 20 11.6201 20H6.37994C3.07095 20 1.41646 20 0.536803 18.8881C-0.342849 17.7761 -0.0183761 16.0949 0.63057 12.7325L1.21689 9.69448C1.66815 7.35635 1.89377 6.18729 2.7043 5.49871C3.29559 4.99638 4.0678 4.8605 5.33562 4.82375ZM6.80131 3.79747C6.80131 2.5391 7.78571 1.51899 9.00002 1.51899C10.2143 1.51899 11.1987 2.5391 11.1987 3.79747V4.81013C11.1987 4.81012 11.1987 4.81013 11.1987 4.81013C11.1444 4.81012 11.0894 4.81013 11.0337 4.81013H6.96626C6.91061 4.81013 6.85563 4.81013 6.80131 4.81014C6.80131 4.81013 6.80131 4.81014 6.80131 4.81014V3.79747ZM11.9316 8.86076C12.4713 8.86076 12.9088 8.40738 12.9088 7.8481C12.9088 7.28883 12.4713 6.83544 11.9316 6.83544C11.3919 6.83544 10.9544 7.28883 10.9544 7.8481C10.9544 8.40738 11.3919 8.86076 11.9316 8.86076ZM7.04559 7.8481C7.04559 8.40738 6.60808 8.86076 6.06838 8.86076C5.52869 8.86076 5.09118 8.40738 5.09118 7.8481C5.09118 7.28883 5.52869 6.83544 6.06838 6.83544C6.60808 6.83544 7.04559 7.28883 7.04559 7.8481Z" fill="#45080D"/>
</svg>
