<svg width="24" height="24" viewBox="0 0 24 24" fill="none" xmlns="http://www.w3.org/2000/svg">
<path d="M15.6977 9.18293C15.6977 9.6948 15.2838 10.1098 14.7732 10.1098C14.2627 10.1098 13.8488 9.6948 13.8488 9.18293C13.8488 8.67105 14.2627 8.2561 14.7732 8.2561C15.2838 8.2561 15.6977 8.67105 15.6977 9.18293Z" fill="#C7C7C7"/>
<path d="M10.1512 9.18293C10.1512 9.6948 9.7373 10.1098 9.22676 10.1098C8.71622 10.1098 8.30235 9.6948 8.30235 9.18293C8.30235 8.67105 8.71622 8.2561 9.22676 8.2561C9.7373 8.2561 10.1512 8.67105 10.1512 9.18293Z" fill="#C7C7C7"/>
<path fill-rule="evenodd" clip-rule="evenodd" d="M12 3.39024C10.8513 3.39024 9.92007 4.32389 9.92007 5.47561V5.71146C10.306 5.70731 10.7226 5.70731 11.1729 5.70732H12.8271C13.2774 5.70731 13.694 5.70731 14.0799 5.71146V5.47561C14.0799 4.32389 13.1487 3.39024 12 3.39024ZM15.4665 5.76009V5.47561C15.4665 3.55608 13.9145 2 12 2C10.0855 2 8.53345 3.55608 8.53345 5.47561V5.76009C8.40865 5.76922 8.28823 5.77993 8.17198 5.79249C7.36002 5.88023 6.681 6.06404 6.07801 6.47841C5.87062 6.62093 5.67582 6.78104 5.49576 6.95699C4.97224 7.46855 4.6593 8.10007 4.41425 8.88114C4.17633 9.63947 3.98404 10.6034 3.74243 11.8147L3.72479 11.9031C3.37662 13.6485 3.10226 15.0238 3.02346 16.1193C2.94295 17.2385 3.05546 18.1802 3.58426 18.9962C3.76069 19.2684 3.96662 19.5203 4.1983 19.7471C4.89265 20.427 5.79151 20.7223 6.90197 20.8627C7.98879 21 9.38771 21 11.163 21H12.837C14.6123 21 16.0112 21 17.098 20.8627C18.2085 20.7223 19.1073 20.427 19.8017 19.7471C20.0334 19.5203 20.2393 19.2684 20.4157 18.9962C20.9445 18.1802 21.0571 17.2385 20.9765 16.1193C20.8977 15.0239 20.6234 13.6485 20.2752 11.9032L20.2576 11.8148C20.016 10.6035 19.8237 9.63947 19.5858 8.88114C19.3407 8.10007 19.0278 7.46855 18.5042 6.95699C18.3242 6.78104 18.1294 6.62093 17.922 6.47841C17.319 6.06404 16.64 5.88023 15.828 5.79249C15.7118 5.77993 15.5913 5.76922 15.4665 5.76009ZM8.32057 7.17473C7.6303 7.24932 7.20387 7.39018 6.86194 7.62515C6.72004 7.72266 6.58676 7.83222 6.46356 7.9526C6.16669 8.24268 5.9453 8.63431 5.73697 9.29831C5.52408 9.97686 5.34552 10.8672 5.09427 12.1267C4.73417 13.9319 4.47826 15.2215 4.40649 16.2193C4.33569 17.2035 4.45523 17.7885 4.747 18.2387C4.86772 18.425 5.00862 18.5973 5.16713 18.7525C5.55025 19.1277 6.09891 19.3599 7.07539 19.4833C8.06534 19.6084 9.37674 19.6098 11.2129 19.6098H12.7871C14.6233 19.6098 15.9347 19.6084 16.9246 19.4833C17.9011 19.3599 18.4498 19.1277 18.8329 18.7525C18.9914 18.5973 19.1323 18.425 19.253 18.2387C19.5448 17.7885 19.6643 17.2035 19.5935 16.2193C19.5217 15.2215 19.2658 13.9319 18.9057 12.1267C18.6545 10.8672 18.4759 9.97686 18.263 9.29831C18.0547 8.63431 17.8333 8.24268 17.5364 7.9526C17.4132 7.83222 17.28 7.72266 17.1381 7.62515C16.7961 7.39018 16.3697 7.24932 15.6794 7.17473C14.974 7.0985 14.0682 7.09756 12.7871 7.09756H11.2129C9.93176 7.09756 9.02596 7.0985 8.32057 7.17473Z" fill="#C7C7C7"/>
</svg>
