<svg width="25" height="24" viewBox="0 0 25 24" fill="none" xmlns="http://www.w3.org/2000/svg">
<path d="M19.5673 14.9144C20.8837 14.9145 21.9295 16.0526 21.9325 17.42C21.9324 17.7325 21.826 18.1171 21.677 18.5075C21.5259 18.9032 21.3227 19.3276 21.1121 19.7282C20.6906 20.5298 20.231 21.2521 20.0769 21.4896L20.0762 21.4903C19.9666 21.6574 19.7871 21.7668 19.5827 21.7714H19.5673C19.3725 21.7714 19.1904 21.6781 19.0759 21.5168C18.9763 21.379 18.5139 20.7279 18.075 19.9347C17.8545 19.5363 17.638 19.0977 17.4758 18.668C17.3149 18.2412 17.2021 17.808 17.2021 17.4235C17.2022 16.1423 18.116 15.0637 19.3125 14.9284L19.3104 14.9144H19.5673ZM19.5673 16.1903C18.9538 16.1903 18.4285 16.7289 18.4285 17.4207C18.4285 17.7446 18.6046 18.2382 18.8708 18.7817C19.074 19.1963 19.3189 19.6183 19.5449 19.9801C19.8013 19.545 20.0648 19.0693 20.2757 18.6331C20.4059 18.3637 20.5151 18.1126 20.5913 17.8986C20.6693 17.6797 20.7054 17.5188 20.7061 17.4207L20.6998 17.2931C20.64 16.6638 20.1425 16.1903 19.5673 16.1903Z" fill="#121214"/>
<path d="M19.9429 0C20.1984 5.8952e-05 20.4259 0.15676 20.5204 0.39342L23.8109 8.59803L23.8116 8.60013C23.8856 8.79174 23.8608 9.0095 23.7507 9.1791C23.6373 9.35369 23.4409 9.45882 23.2327 9.45882H23.1095C22.5566 9.47706 22.2427 9.70071 21.8846 10.0203V13.5848C23.668 14.5375 24.7999 16.4115 24.7999 18.4733C24.7999 21.5187 22.3518 23.9999 19.3368 24C17.6289 24 16.0396 23.1966 15.0124 21.8383H2.59451C2.24688 21.8383 1.97171 21.5547 1.97155 21.2112V10.0231C1.61613 9.70378 1.29877 9.47711 0.732622 9.45882H0.540134L0.531734 9.45114C0.358198 9.42522 0.204542 9.32741 0.106861 9.18258C-0.00836148 9.01161 -0.0331784 8.79058 0.0459643 8.59664L3.33506 0.39342C3.42955 0.156658 3.65767 0 3.91322 0H19.9429ZM19.3368 14.2015C17.017 14.2015 15.1216 16.1152 15.1216 18.4761C15.1216 18.6053 15.1273 18.7343 15.1377 18.8604C15.1714 19.2421 15.2564 19.6108 15.3883 19.9674L15.4842 20.2018C15.5523 20.356 15.6284 20.5059 15.7124 20.6497L15.8447 20.861C16.6294 22.0439 17.9335 22.7479 19.3368 22.7479C21.6593 22.7477 23.554 20.8339 23.554 18.4761L23.5512 18.3163C23.491 16.6741 22.505 15.2097 21.0118 14.5523C20.8923 14.5013 20.7769 14.4546 20.6611 14.4163C20.4228 14.3376 20.1792 14.2794 19.9331 14.2426C19.8111 14.2246 19.6872 14.2144 19.5594 14.2064C19.4877 14.2037 19.4119 14.2015 19.3368 14.2015ZM15.5549 9.46021C15.5378 9.46213 15.5162 9.46406 15.4933 9.46579C14.9361 9.51415 14.6274 9.78318 14.2257 10.1515C13.7226 10.6109 13.109 11.1748 11.9263 11.1748C10.8916 11.1747 10.291 10.7433 9.82156 10.3294L9.62767 10.1543C9.23175 9.79173 8.9268 9.52702 8.37545 9.47137H8.37265L8.23826 9.45882H8.08287L7.96947 9.46579C7.49231 9.50782 7.19993 9.7173 6.87054 10.0106L6.71515 10.1515C6.21204 10.6109 5.59851 11.1748 4.41579 11.1748C4.26618 11.1748 4.12598 11.1662 3.99302 11.1483C3.94124 11.1416 3.89316 11.1318 3.85373 11.1239C3.77994 11.1126 3.69772 11.0976 3.62064 11.0757C3.56961 11.0621 3.52139 11.0469 3.47225 11.0297C3.4118 11.0113 3.35008 10.9903 3.29026 10.9648C3.26638 10.9553 3.2433 10.9436 3.22027 10.9334V20.5778H14.2929C14.2689 20.5203 14.2452 20.4622 14.2236 20.4034C13.9919 19.7872 13.8764 19.1364 13.8764 18.4705C13.8766 15.4254 16.3243 12.941 19.3368 12.941L19.6154 12.9466L19.621 12.9473C19.6932 12.9516 19.7658 12.9568 19.8379 12.964L20.0542 12.9898L20.0577 12.9905C20.0754 12.9933 20.0933 12.9962 20.1109 12.9989C20.1285 13.0016 20.146 13.0046 20.1634 13.0073H20.1662C20.2964 13.0292 20.431 13.0526 20.5666 13.0847C20.5694 13.0852 20.5744 13.0863 20.5799 13.0875C20.583 13.0881 20.5865 13.0893 20.5904 13.0903L20.6387 13.1028V10.9265C20.6277 10.9313 20.617 10.9373 20.6058 10.9418L20.6051 10.9411C20.5344 10.9718 20.4624 10.9963 20.4007 11.0171C20.3826 11.0233 20.3187 11.0481 20.2663 11.0618L20.267 11.0625C20.2661 11.0627 20.2651 11.0622 20.2642 11.0625L20.2621 11.0639L20.2614 11.0632C20.1745 11.0871 20.0843 11.105 19.9996 11.1211L19.9898 11.1232C19.977 11.125 19.9646 11.1273 19.9464 11.1308C19.9294 11.1342 19.9064 11.1384 19.8813 11.142L19.8778 11.1427C19.7428 11.1601 19.5974 11.172 19.4397 11.172C19.1604 11.172 18.9135 11.1389 18.6893 11.0841H18.6809L18.6543 11.0771C18.5412 11.0478 18.4273 11.0117 18.3232 10.9683C18.2444 10.9355 18.1659 10.8983 18.0887 10.8581H18.0817L18.0335 10.8316C17.86 10.7365 17.7032 10.6298 17.5603 10.5149C17.5571 10.5127 17.5539 10.5115 17.5519 10.51C17.5493 10.508 17.5471 10.5056 17.5449 10.5037C17.5062 10.4735 17.4635 10.4359 17.4406 10.4166C17.3372 10.3288 17.2369 10.2377 17.1424 10.1529L17.1403 10.1515C16.7157 9.76242 16.3969 9.47787 15.7558 9.45603H15.5955C15.5834 9.45704 15.5708 9.45842 15.5549 9.46021ZM1.49907 8.31413C1.98365 8.45058 2.34121 8.69304 2.6379 8.94263L2.96058 9.23072L2.96338 9.23351L3.01098 9.27885L3.15167 9.40441C3.4724 9.68274 3.74869 9.8611 4.17781 9.90734L4.2905 9.91641C4.32951 9.91861 4.36962 9.91989 4.41019 9.9199C4.76628 9.9199 5.02183 9.84174 5.23754 9.72249C5.45989 9.5995 5.64764 9.42976 5.8724 9.22444L6.05929 9.05563C6.51121 8.65527 7.08493 8.23593 8.05277 8.20462L8.05977 8.20392H8.27325L8.28865 8.20601C8.29471 8.20687 8.30032 8.20823 8.30405 8.2088C8.30806 8.20941 8.31021 8.20929 8.31175 8.2095H8.31735C9.40408 8.26017 9.98607 8.78977 10.4613 9.22374C10.6865 9.42799 10.8751 9.59828 11.0983 9.72179C11.3146 9.84149 11.5694 9.91985 11.9235 9.9199C12.2796 9.9199 12.5352 9.84174 12.7509 9.72249C12.9732 9.5995 13.161 9.42976 13.3857 9.22444L13.5726 9.05563C14.0245 8.65527 14.5983 8.23593 15.5661 8.20462L15.5731 8.20392H15.7866C16.9058 8.23965 17.4976 8.78487 17.9803 9.22374L17.9838 9.22723C18.0614 9.30066 18.1402 9.36747 18.2252 9.44207C18.355 9.55238 18.4749 9.64617 18.6067 9.7197L18.6088 9.7211C18.6107 9.72196 18.6133 9.72313 18.6165 9.72458C18.621 9.7266 18.629 9.73022 18.6375 9.73435C18.7004 9.76443 18.7375 9.78461 18.7838 9.80341C18.96 9.87483 19.1689 9.91987 19.4369 9.9199C19.7352 9.9199 19.9544 9.86752 20.1466 9.77969L20.148 9.77899C20.3837 9.67286 20.5878 9.5064 20.8424 9.27606L20.8984 9.22444C21.2591 8.89578 21.6875 8.50133 22.3529 8.31343L19.5223 1.2549H4.3332L1.49907 8.31413Z" fill="#121214"/>
</svg>
