<svg width="24" height="24" viewBox="0 0 24 24" fill="none" xmlns="http://www.w3.org/2000/svg">
<path d="M19.648 14.4324L22.7112 5.24324H6.13445L5.05337 2H1.96094V3.08108H4.27391L7.86797 13.8638L5.45337 19.2973H20.3393V18.2162H7.11715L8.79878 14.4324H19.648ZM21.2107 6.32432L18.8685 13.3514H8.83715L6.49499 6.32432H21.2107Z" fill="white"/>
<path d="M10.0655 22.0001C10.6625 22.0001 11.1465 21.516 11.1465 20.919C11.1465 20.3219 10.6625 19.8379 10.0655 19.8379C9.46839 19.8379 8.98438 20.3219 8.98438 20.919C8.98438 21.516 9.46839 22.0001 10.0655 22.0001Z" fill="white"/>
<path d="M16.5498 22.0001C17.1469 22.0001 17.6309 21.516 17.6309 20.919C17.6309 20.3219 17.1469 19.8379 16.5498 19.8379C15.9528 19.8379 15.4688 20.3219 15.4688 20.919C15.4688 21.516 15.9528 22.0001 16.5498 22.0001Z" fill="white"/>
</svg>
