<svg width="12" height="10" viewBox="0 0 12 10" fill="none" xmlns="http://www.w3.org/2000/svg">
<path d="M4.89551 9.93628C4.5651 9.93628 4.28662 9.79704 4.06006 9.51855L1.17847 5.92896C1.08879 5.82039 1.02507 5.71655 0.987305 5.61743C0.949544 5.51359 0.930664 5.40739 0.930664 5.29883C0.930664 5.05811 1.0109 4.85986 1.17139 4.7041C1.33187 4.54362 1.53719 4.46338 1.78735 4.46338C2.06584 4.46338 2.29948 4.58374 2.48828 4.82446L4.86719 7.88306L9.46924 0.562256C9.5778 0.401774 9.68872 0.288493 9.802 0.222412C9.91528 0.151611 10.0569 0.116211 10.2268 0.116211C10.4722 0.116211 10.6729 0.194092 10.8286 0.349854C10.9891 0.500895 11.0693 0.696777 11.0693 0.9375C11.0693 1.0319 11.0528 1.12866 11.0198 1.22778C10.9915 1.3269 10.9419 1.43075 10.8711 1.53931L5.73096 9.49731C5.53271 9.78996 5.25423 9.93628 4.89551 9.93628Z" fill="white"/>
</svg>
