<svg width="60" height="60" viewBox="0 0 60 60" fill="none" xmlns="http://www.w3.org/2000/svg">
<path d="M19.8141 33.6426C19.058 33.6426 18.4382 34.2608 18.4382 35.0148C18.4382 35.7689 19.0581 36.3871 19.8141 36.3871C20.5701 36.3871 21.19 35.7689 21.19 35.0148C21.19 34.2608 20.5701 33.6426 19.8141 33.6426ZM19.8141 35.4053C19.5973 35.4053 19.4207 35.2292 19.4207 35.0129C19.4207 34.7967 19.5973 34.6206 19.8141 34.6206C20.0309 34.6206 20.2075 34.7967 20.2075 35.0129C20.2075 35.2292 20.0309 35.4053 19.8141 35.4053Z" fill="#171717"/>
<path d="M27.7682 46.1162C27.0121 46.1162 26.3923 46.7344 26.3923 47.4885C26.3923 48.2425 27.0122 48.8607 27.7682 48.8607C28.5242 48.8607 29.1441 48.2425 29.1441 47.4885C29.1441 46.7344 28.5242 46.1162 27.7682 46.1162ZM27.7682 47.8809C27.5514 47.8809 27.3748 47.7048 27.3748 47.4885C27.3748 47.2722 27.5514 47.0961 27.7682 47.0961C27.985 47.0961 28.1616 47.2722 28.1616 47.4885C28.1616 47.7048 27.985 47.8809 27.7682 47.8809Z" fill="#171717"/>
<path d="M28.2595 37.8459C28.2595 37.0918 27.6397 36.4736 26.8837 36.4736C26.1276 36.4736 25.5078 37.0918 25.5078 37.8459C25.5078 38.5999 26.1276 39.2182 26.8837 39.2182C27.6397 39.2182 28.2595 38.5999 28.2595 37.8459ZM26.4903 37.8459C26.4903 37.6296 26.6668 37.4535 26.8837 37.4535C27.1005 37.4535 27.277 37.6296 27.277 37.8459C27.277 38.0622 27.1005 38.2382 26.8837 38.2382C26.6668 38.2382 26.4903 38.0622 26.4903 37.8459Z" fill="#171717"/>
<path d="M30.5679 8.01174C21.332 8.01174 13.827 10.7008 10.5745 14.1747C8.24684 16.6589 8.00122 18.7011 8.00122 22.5975V32.4257C8.00122 34.4143 9.13146 36.2919 11.273 37.8688C10.5707 40.4315 10.6091 43.0575 10.8202 45.3023C10.8355 45.4842 10.9526 45.6411 11.1253 45.7081C11.1253 45.7081 22.6987 50.397 26.5018 51.9649C26.5651 51.9898 26.6303 52.0032 26.6879 51.9994C26.8165 51.9994 26.8894 51.9706 26.9777 51.9056C29.5183 50.0433 38.0459 43.7922 38.0459 43.7922C38.2666 43.6314 38.3107 43.3271 38.1495 43.107L36.8485 41.3424C38.1112 41.0974 39.3239 40.7989 40.4599 40.4467C40.6672 40.3835 40.8034 40.1921 40.8034 39.9759V34.2437C44.7046 34.1365 48.4522 33.5585 51.6551 32.5671C51.8624 32.504 51.9986 32.3126 51.9986 32.0963V17.7151C51.9986 12.2663 42.5863 8 30.5699 8L30.5679 8.01174ZM30.5679 8.99167C41.2677 8.99167 50.3599 12.72 50.9797 17.2369H32.3122C32.1165 17.2369 31.9342 17.3537 31.8594 17.5355C31.7865 17.7173 31.821 17.9278 31.963 18.0695L39.3375 25.6047C36.6107 26.1673 33.6038 26.4621 30.5736 26.4621C19.4914 26.4621 10.1274 22.4582 10.1274 17.7269C10.1274 12.9956 19.4862 8.99167 30.5679 8.99167ZM11.7678 44.9214C11.409 40.6534 11.7525 35.0589 17.1081 31.394C16.5574 32.2514 16.1793 33.216 16.022 34.2495C15.7265 36.1902 16.2043 38.1252 17.3672 39.7024L25.2521 50.4032L11.7677 44.916L11.7678 44.9214ZM37.0573 43.2984L26.7796 50.8295L18.1536 39.1239C17.1462 37.7574 16.7298 36.077 16.9889 34.3966C17.2441 32.7162 18.1441 31.2367 19.5142 30.2319C20.6483 29.3994 21.9704 28.9975 23.283 28.9975C25.2422 28.9975 27.1842 29.8932 28.4313 31.5889L37.0572 43.2945L37.0573 43.2984ZM39.8167 39.6198C38.6769 39.9586 37.4641 40.2419 36.1957 40.4715L29.2245 31.0108C27.1712 28.2222 23.4965 27.3112 20.4319 28.605H20.4032C15.2741 30.5399 12.7446 33.6079 11.5799 36.8653C9.87975 35.5275 8.98167 34.004 8.98167 32.4214V22.5931C8.98167 20.863 9.01621 19.5749 9.21194 18.5127C10.0716 23.5789 19.1405 27.4394 30.5661 27.4394C33.7688 27.4394 36.9466 27.1159 39.8114 26.5034V39.6156L39.8167 39.6198ZM51.0139 31.7462C47.9782 32.6476 44.4607 33.172 40.7955 33.2754C40.7955 33.2754 40.7706 27.7441 40.7955 25.901C40.7955 25.7843 40.7418 25.6465 40.6574 25.5584C38.8248 23.7019 33.4749 18.2188 33.4749 18.2188H51.0121V31.7463L51.0139 31.7462Z" fill="#171717"/>
<path d="M43.9794 31.4037C44.7355 31.4037 45.3552 30.7855 45.3552 30.0314C45.3552 29.2774 44.7354 28.6592 43.9794 28.6592C43.2233 28.6592 42.6035 29.2774 42.6035 30.0314C42.6035 30.7855 43.2233 31.4037 43.9794 31.4037ZM43.9794 29.6391C44.1962 29.6391 44.3728 29.8151 44.3728 30.0314C44.3728 30.2477 44.1962 30.4238 43.9794 30.4238C43.7625 30.4238 43.586 30.2477 43.586 30.0314C43.586 29.8151 43.7625 29.6391 43.9794 29.6391Z" fill="#171717"/>
<path d="M47.4862 22.6918C48.2423 22.6918 48.8621 22.0736 48.8621 21.3195C48.8621 20.5655 48.2422 19.9473 47.4862 19.9473C46.7302 19.9473 46.1104 20.5655 46.1104 21.3195C46.1104 22.0736 46.7302 22.6918 47.4862 22.6918ZM47.4862 20.9291C47.7031 20.9291 47.8796 21.1051 47.8796 21.3214C47.8796 21.5377 47.7031 21.7138 47.4862 21.7138C47.2694 21.7138 47.0928 21.5377 47.0928 21.3214C47.0928 21.1051 47.2694 20.9291 47.4862 20.9291Z" fill="#171717"/>
<path d="M23.8283 31.3535C23.598 31.3535 23.4099 31.5392 23.4099 31.7708C23.4099 32.0004 23.5961 32.188 23.8283 32.188C24.0585 32.188 24.2466 32.0024 24.2466 31.7708C24.2466 31.5411 24.0605 31.3535 23.8283 31.3535Z" fill="#171717"/>
<path d="M29.1439 44.2652C29.3742 44.2652 29.5623 44.0795 29.5623 43.8479C29.5623 43.6182 29.3761 43.4307 29.1439 43.4307C28.9137 43.4307 28.7256 43.6163 28.7256 43.8479C28.7256 44.0776 28.9117 44.2652 29.1439 44.2652Z" fill="#171717"/>
<path d="M35.1664 43.0747C35.3967 43.0747 35.5847 42.8891 35.5847 42.6575C35.5847 42.4278 35.3986 42.2402 35.1664 42.2402C34.9361 42.2402 34.748 42.4259 34.748 42.6575C34.748 42.8871 34.9342 43.0747 35.1664 43.0747Z" fill="#171717"/>
<path d="M31.3778 40.2915C31.6081 40.2915 31.7962 40.1059 31.7962 39.8743C31.7962 39.6446 31.61 39.457 31.3778 39.457C31.1475 39.457 30.9595 39.6427 30.9595 39.8743C30.9595 40.1039 31.1456 40.2915 31.3778 40.2915Z" fill="#171717"/>
<path d="M23.5924 41.4038C23.3621 41.4038 23.1741 41.5895 23.1741 41.8211C23.1741 42.0507 23.3602 42.2383 23.5924 42.2383C23.8227 42.2383 24.0107 42.0526 24.0107 41.8211C24.0107 41.5914 23.8246 41.4038 23.5924 41.4038Z" fill="#171717"/>
<path d="M49.5863 30.8389C49.8166 30.8389 50.0046 30.6532 50.0046 30.4216C50.0046 30.192 49.8185 30.0044 49.5863 30.0044C49.356 30.0044 49.168 30.19 49.168 30.4216C49.168 30.6513 49.3541 30.8389 49.5863 30.8389Z" fill="#171717"/>
<path d="M45.173 26.9351C45.4033 26.9351 45.5913 26.7494 45.5913 26.5178C45.5913 26.2882 45.4052 26.1006 45.173 26.1006C44.9427 26.1006 44.7546 26.2862 44.7546 26.5178C44.7546 26.7475 44.9408 26.9351 45.173 26.9351Z" fill="#171717"/>
<path d="M43.9789 21.5503C44.2092 21.5503 44.3972 21.3647 44.3972 21.1331C44.3972 20.9034 44.2111 20.7158 43.9789 20.7158C43.7486 20.7158 43.5605 20.9015 43.5605 21.1331C43.5605 21.3627 43.7467 21.5503 43.9789 21.5503Z" fill="#171717"/>
<path d="M38.2362 20.3643C38.4665 20.3643 38.6545 20.1786 38.6545 19.947C38.6545 19.7174 38.4684 19.5298 38.2362 19.5298C38.0059 19.5298 37.8179 19.7154 37.8179 19.947C37.8179 20.1767 38.004 20.3643 38.2362 20.3643Z" fill="#171717"/>
</svg>
