<svg width="24" height="24" viewBox="0 0 24 24" fill="none" xmlns="http://www.w3.org/2000/svg">
<path d="M8.89667 17.0914C8.89667 18.6971 7.66111 20 6.13778 20C4.61444 20 3.37889 18.6971 3.37889 17.0903M8.89667 17.0914C8.89667 15.4857 7.66111 14.1817 6.13778 14.1817C4.61444 14.1817 3.37889 15.4846 3.37889 17.0903M8.89667 17.0914L15.1033 17.0903M3.37889 17.0903H2V5.14286C2 4.83975 2.11706 4.54906 2.32544 4.33474C2.53381 4.12041 2.81643 4 3.11111 4H13.9922C14.2869 4 14.5695 4.12041 14.7779 4.33474C14.9863 4.54906 15.1033 4.83975 15.1033 5.14286V7.63657M15.1033 17.0903H15.7933M15.1033 17.0903V7.63657M15.1033 7.63657H17.6156C17.9119 7.63661 18.2052 7.69759 18.4782 7.81594C18.7513 7.93429 18.9986 8.10761 19.2056 8.32571L22 11.2731V17.0903H21.31M21.31 17.0903C21.31 18.6971 20.0756 20 18.5522 20C17.0278 20 15.7933 18.6971 15.7933 17.0903M21.31 17.0903C21.31 15.4846 20.0756 14.1817 18.5522 14.1817C17.0278 14.1817 15.7933 15.4846 15.7933 17.0903" stroke="#121214" stroke-width="1.5" stroke-linecap="round" stroke-linejoin="round"/>
</svg>
