<svg width="20" height="20" viewBox="0 0 20 20" fill="none" xmlns="http://www.w3.org/2000/svg">
<path d="M10 7.99963C10.8619 7.99968 11.6884 8.34238 12.2979 8.95178C12.9073 9.5612 13.2499 10.3878 13.25 11.2496C13.25 12.1116 12.9073 12.939 12.2979 13.5485C11.6884 14.1578 10.8618 14.4996 10 14.4996C9.13824 14.4996 8.3116 14.1577 7.70215 13.5485C7.09266 12.939 6.75 12.1116 6.75 11.2496C6.75009 10.3878 7.09273 9.5612 7.70215 8.95178C8.31162 8.34244 9.13816 7.99963 10 7.99963ZM10 8.04163C9.14921 8.04163 8.3331 8.37955 7.73145 8.98108C7.12984 9.58268 6.79208 10.3988 6.79199 11.2496C6.79199 12.1005 7.12982 12.9165 7.73145 13.5182C8.33312 14.1199 9.1491 14.4586 10 14.4586C10.8508 14.4586 11.6669 14.1198 12.2686 13.5182C12.8701 12.9165 13.208 12.1004 13.208 11.2496C13.2079 10.3988 12.8702 9.58268 12.2686 8.98108C11.6669 8.37949 10.8508 8.04167 10 8.04163ZM9.99902 4.66663C12.897 4.66663 14.8357 6.13314 16.0723 7.64319C17.3094 9.15407 17.8177 10.6811 17.833 10.7272V10.7291C17.8328 10.7312 17.8317 10.7348 17.8301 10.7379C17.8271 10.7435 17.8227 10.7459 17.8184 10.7477C17.8132 10.7493 17.8076 10.7502 17.8027 10.7477C17.7978 10.7451 17.7947 10.7402 17.793 10.735V10.734L17.6699 10.3961C17.4555 9.84875 16.9534 8.73825 16.0557 7.64319C14.8508 6.17368 12.9103 4.70867 10 4.70862C7.08974 4.70862 5.14915 6.17369 3.94434 7.64319C2.74762 9.10293 2.25342 10.5899 2.20703 10.735V10.736C2.20569 10.7401 2.20419 10.7425 2.20312 10.7438C2.20184 10.7452 2.19951 10.7465 2.19727 10.7477C2.19503 10.7488 2.19265 10.7494 2.19043 10.7496C2.18842 10.7498 2.18512 10.7501 2.18066 10.7487C2.17696 10.7474 2.17509 10.7458 2.17383 10.7448C2.17231 10.7435 2.17015 10.7412 2.16895 10.7389C2.16783 10.7366 2.1672 10.7343 2.16699 10.7321C2.16681 10.7301 2.16652 10.7268 2.16797 10.7223C2.19675 10.6359 2.70886 9.13184 3.92773 7.64319C5.16415 6.13314 7.10193 4.66676 9.99902 4.66663Z" fill="#121214" stroke="#121214"/>
</svg>
