<svg width="20" height="20" viewBox="0 0 20 20" fill="none" xmlns="http://www.w3.org/2000/svg">
<mask id="path-1-inside-1_515_2092" fill="white">
<path d="M12.6923 13.5353L17.3147 18.1585C17.4269 18.2669 17.5772 18.3269 17.7332 18.3256C17.8893 18.3242 18.0385 18.2616 18.1488 18.1513C18.2592 18.0409 18.3217 17.8916 18.3231 17.7355C18.3245 17.5795 18.2645 17.4291 18.1561 17.3168L2.68469 1.84065C2.6298 1.7838 2.56414 1.73846 2.49154 1.70726C2.41894 1.67607 2.34086 1.65964 2.26185 1.65896C2.18283 1.65827 2.10448 1.67333 2.03135 1.70326C1.95822 1.73319 1.89178 1.77739 1.83591 1.83328C1.78004 1.88917 1.73585 1.95562 1.70593 2.02878C1.67601 2.10193 1.66096 2.18031 1.66164 2.25935C1.66233 2.33838 1.67875 2.41649 1.70993 2.48911C1.74112 2.56173 1.78645 2.62741 1.84328 2.68232L4.93161 5.77161C2.55735 7.64661 1.70404 10.3847 1.69214 10.4282C1.59693 10.7436 1.77545 11.071 2.09083 11.1662C2.4062 11.2615 2.73943 11.0829 2.83464 10.7674C2.87808 10.6163 3.64273 8.19423 5.76588 6.60673L7.65517 8.49661C7.28584 8.81819 6.98659 9.21232 6.77601 9.65451C6.56543 10.0967 6.44803 10.5775 6.4311 11.067C6.41418 11.5565 6.49809 12.0442 6.67762 12.4999C6.85715 12.9556 7.12846 13.3695 7.47469 13.7158C7.82092 14.0622 8.23467 14.3336 8.69022 14.5132C9.14576 14.6927 9.63336 14.7767 10.1227 14.7597C10.6121 14.7428 11.0927 14.6254 11.5348 14.4147C11.9768 14.2041 12.3708 13.9047 12.6923 13.5353ZM11.8479 12.6901C11.6377 12.9487 11.3756 13.1602 11.0786 13.3111C10.7815 13.462 10.4561 13.5488 10.1233 13.5659C9.79059 13.583 9.45797 13.5301 9.14698 13.4105C8.836 13.2909 8.55357 13.1073 8.31799 12.8717C8.0824 12.636 7.89889 12.3535 7.77934 12.0424C7.65979 11.7313 7.60686 11.3986 7.62398 11.0658C7.64109 10.733 7.72787 10.4074 7.8787 10.1102C8.02952 9.81308 8.24104 9.55089 8.49955 9.34065L11.8479 12.6901ZM9.7337 7.62815L11.3005 9.19601C11.5766 9.37637 11.8122 9.61268 11.9931 9.88827L13.5605 11.4561C13.5664 11.368 13.5696 11.2793 13.57 11.1901C13.5701 10.6986 13.4687 10.2124 13.2723 9.76194C13.0759 9.31146 12.7887 8.90637 12.4286 8.57203C12.0685 8.23769 11.6433 7.9813 11.1796 7.81888C10.7159 7.65647 10.2236 7.59154 9.7337 7.62815ZM6.78044 4.67399L7.6998 5.59482C8.44148 5.35307 9.21726 5.23248 9.9973 5.23768C15.4153 5.23768 17.0874 10.5371 17.1606 10.7674C17.2379 11.0234 17.4759 11.1901 17.7318 11.1901V11.1841C17.8245 11.185 17.9161 11.164 17.9992 11.123C18.0822 11.0819 18.1545 11.0219 18.2101 10.9477C18.2657 10.8735 18.3031 10.7873 18.3193 10.696C18.3354 10.6048 18.3299 10.5109 18.3031 10.4222C18.2846 10.3627 16.315 4.0472 9.99671 4.0472C8.76495 4.0472 7.69861 4.28708 6.77985 4.67399"/>
</mask>
<path d="M12.6923 13.5353L17.3147 18.1585C17.4269 18.2669 17.5772 18.3269 17.7332 18.3256C17.8893 18.3242 18.0385 18.2616 18.1488 18.1513C18.2592 18.0409 18.3217 17.8916 18.3231 17.7355C18.3245 17.5795 18.2645 17.4291 18.1561 17.3168L2.68469 1.84065C2.6298 1.7838 2.56414 1.73846 2.49154 1.70726C2.41894 1.67607 2.34086 1.65964 2.26185 1.65896C2.18283 1.65827 2.10448 1.67333 2.03135 1.70326C1.95822 1.73319 1.89178 1.77739 1.83591 1.83328C1.78004 1.88917 1.73585 1.95562 1.70593 2.02878C1.67601 2.10193 1.66096 2.18031 1.66164 2.25935C1.66233 2.33838 1.67875 2.41649 1.70993 2.48911C1.74112 2.56173 1.78645 2.62741 1.84328 2.68232L4.93161 5.77161C2.55735 7.64661 1.70404 10.3847 1.69214 10.4282C1.59693 10.7436 1.77545 11.071 2.09083 11.1662C2.4062 11.2615 2.73943 11.0829 2.83464 10.7674C2.87808 10.6163 3.64273 8.19423 5.76588 6.60673L7.65517 8.49661C7.28584 8.81819 6.98659 9.21232 6.77601 9.65451C6.56543 10.0967 6.44803 10.5775 6.4311 11.067C6.41418 11.5565 6.49809 12.0442 6.67762 12.4999C6.85715 12.9556 7.12846 13.3695 7.47469 13.7158C7.82092 14.0622 8.23467 14.3336 8.69022 14.5132C9.14576 14.6927 9.63336 14.7767 10.1227 14.7597C10.6121 14.7428 11.0927 14.6254 11.5348 14.4147C11.9768 14.2041 12.3708 13.9047 12.6923 13.5353ZM11.8479 12.6901C11.6377 12.9487 11.3756 13.1602 11.0786 13.3111C10.7815 13.462 10.4561 13.5488 10.1233 13.5659C9.79059 13.583 9.45797 13.5301 9.14698 13.4105C8.836 13.2909 8.55357 13.1073 8.31799 12.8717C8.0824 12.636 7.89889 12.3535 7.77934 12.0424C7.65979 11.7313 7.60686 11.3986 7.62398 11.0658C7.64109 10.733 7.72787 10.4074 7.8787 10.1102C8.02952 9.81308 8.24104 9.55089 8.49955 9.34065L11.8479 12.6901ZM9.7337 7.62815L11.3005 9.19601C11.5766 9.37637 11.8122 9.61268 11.9931 9.88827L13.5605 11.4561C13.5664 11.368 13.5696 11.2793 13.57 11.1901C13.5701 10.6986 13.4687 10.2124 13.2723 9.76194C13.0759 9.31146 12.7887 8.90637 12.4286 8.57203C12.0685 8.23769 11.6433 7.9813 11.1796 7.81888C10.7159 7.65647 10.2236 7.59154 9.7337 7.62815ZM6.78044 4.67399L7.6998 5.59482C8.44148 5.35307 9.21726 5.23248 9.9973 5.23768C15.4153 5.23768 17.0874 10.5371 17.1606 10.7674C17.2379 11.0234 17.4759 11.1901 17.7318 11.1901V11.1841C17.8245 11.185 17.9161 11.164 17.9992 11.123C18.0822 11.0819 18.1545 11.0219 18.2101 10.9477C18.2657 10.8735 18.3031 10.7873 18.3193 10.696C18.3354 10.6048 18.3299 10.5109 18.3031 10.4222C18.2846 10.3627 16.315 4.0472 9.99671 4.0472C8.76495 4.0472 7.69861 4.28708 6.77985 4.67399" fill="#121214"/>
<path d="M12.6923 13.5353L13.3995 12.8283L12.6416 12.0702L11.9379 12.8789L12.6923 13.5353ZM17.3147 18.1585L16.6075 18.8656L16.6136 18.8717L16.6199 18.8777L17.3147 18.1585ZM18.1561 17.3168L18.8755 16.6222L18.8694 16.616L18.8633 16.6098L18.1561 17.3168ZM2.68469 1.84065L1.96529 2.53526L1.97133 2.54151L1.97747 2.54765L2.68469 1.84065ZM1.84328 2.68232L2.5505 1.97532L2.54436 1.96918L2.53811 1.96314L1.84328 2.68232ZM4.93161 5.77161L5.55137 6.5564L6.43363 5.85966L5.63883 5.06461L4.93161 5.77161ZM1.69214 10.4282L2.64949 10.7171L2.65322 10.7047L2.65662 10.6923L1.69214 10.4282ZM2.83464 10.7674L3.79208 11.0564L3.79576 11.0436L2.83464 10.7674ZM5.76588 6.60673L6.47309 5.89973L5.86073 5.28718L5.16705 5.80585L5.76588 6.60673ZM7.65517 8.49661L8.31184 9.25078L9.11982 8.54727L8.36239 7.78961L7.65517 8.49661ZM11.8479 12.6901L12.6239 13.3208L13.1928 12.6209L12.5551 11.9831L11.8479 12.6901ZM8.49955 9.34065L9.20677 8.63366L8.56875 7.99544L7.86861 8.56482L8.49955 9.34065ZM9.7337 7.62815L9.65917 6.63094L7.48575 6.79336L9.02634 8.33502L9.7337 7.62815ZM11.3005 9.19601L10.5931 9.90287L10.6666 9.97639L10.7536 10.0332L11.3005 9.19601ZM11.9931 9.88827L11.1571 10.437L11.2134 10.5227L11.2859 10.5953L11.9931 9.88827ZM13.5605 11.4561L12.8533 12.1631L14.4098 13.7202L14.5582 11.5235L13.5605 11.4561ZM13.57 11.1901L14.57 11.1945L14.57 11.1902L13.57 11.1901ZM7.6998 5.59482L6.99213 6.30136L7.42594 6.73587L8.0097 6.54559L7.6998 5.59482ZM9.9973 5.23768L9.99064 6.23768H9.9973V5.23768ZM17.1606 10.7674L18.1179 10.4781L18.1136 10.4646L17.1606 10.7674ZM17.7318 11.1901V12.1901H18.7318V11.1901H17.7318ZM17.7318 11.1841L17.7413 10.1842L16.7318 10.1746V11.1841H17.7318ZM18.3031 10.4222L19.2604 10.1332L19.2582 10.1262L18.3031 10.4222ZM12.6923 13.5353L11.9851 14.2423L16.6075 18.8656L17.3147 18.1585L18.0218 17.4515L13.3995 12.8283L12.6923 13.5353ZM17.3147 18.1585L16.6199 18.8777C16.9207 19.1683 17.3236 19.3292 17.7419 19.3255L17.7332 18.3256L17.7245 17.3256C17.8308 17.3247 17.9331 17.3656 18.0095 17.4393L17.3147 18.1585ZM17.7332 18.3256L17.7419 19.3255C18.1602 19.3219 18.5603 19.1541 18.8561 18.8583L18.1488 18.1513L17.4416 17.4443C17.5167 17.3692 17.6183 17.3265 17.7245 17.3256L17.7332 18.3256ZM18.1488 18.1513L18.8561 18.8583C19.1518 18.5625 19.3194 18.1624 19.3231 17.7442L18.3231 17.7355L17.3231 17.7269C17.3241 17.6208 17.3666 17.5193 17.4416 17.4443L18.1488 18.1513ZM18.3231 17.7355L19.3231 17.7442C19.3267 17.3261 19.166 16.9231 18.8755 16.6222L18.1561 17.3168L17.4367 18.0114C17.363 17.9351 17.3222 17.8329 17.3231 17.7269L18.3231 17.7355ZM18.1561 17.3168L18.8633 16.6098L3.39191 1.13366L2.68469 1.84065L1.97747 2.54765L17.4489 18.0238L18.1561 17.3168ZM2.68469 1.84065L3.40409 1.14605C3.25696 0.993679 3.08096 0.872122 2.88633 0.788492L2.49154 1.70726L2.09674 2.62603C2.04732 2.60479 2.00263 2.57393 1.96529 2.53526L2.68469 1.84065ZM2.49154 1.70726L2.88633 0.788492C2.69171 0.704862 2.48237 0.660837 2.27054 0.658996L2.26185 1.65896L2.25315 2.65892C2.19934 2.65845 2.14617 2.64727 2.09674 2.62603L2.49154 1.70726ZM2.26185 1.65896L2.27054 0.658996C2.0587 0.657154 1.84863 0.697533 1.65258 0.777769L2.03135 1.70326L2.41011 2.62875C2.36032 2.64913 2.30697 2.65939 2.25315 2.65892L2.26185 1.65896ZM2.03135 1.70326L1.65258 0.777769C1.45653 0.858004 1.27844 0.976484 1.12869 1.12628L1.83591 1.83328L2.54312 2.54027C2.50512 2.57829 2.4599 2.60838 2.41011 2.62875L2.03135 1.70326ZM1.83591 1.83328L1.12869 1.12628C0.978943 1.27607 0.860534 1.45419 0.780358 1.65021L1.70593 2.02878L2.63151 2.40734C2.61117 2.45706 2.58113 2.50226 2.54312 2.54027L1.83591 1.83328ZM1.70593 2.02878L0.780358 1.65021C0.700183 1.84624 0.659842 2.05626 0.661681 2.26803L1.66164 2.25935L2.66161 2.25066C2.66207 2.30436 2.65184 2.35762 2.63151 2.40734L1.70593 2.02878ZM1.66164 2.25935L0.661681 2.26803C0.663521 2.4798 0.707505 2.6891 0.791074 2.8837L1.70993 2.48911L2.62879 2.09452C2.64999 2.14388 2.66114 2.19696 2.66161 2.25066L1.66164 2.25935ZM1.70993 2.48911L0.791074 2.8837C0.874644 3.0783 0.99613 3.25433 1.14846 3.4015L1.84328 2.68232L2.53811 1.96314C2.57677 2.00049 2.60759 2.04516 2.62879 2.09452L1.70993 2.48911ZM1.84328 2.68232L1.13607 3.38932L4.2244 6.4786L4.93161 5.77161L5.63883 5.06461L2.5505 1.97532L1.84328 2.68232ZM4.93161 5.77161L4.31185 4.98682C1.69331 7.05473 0.763023 10.0349 0.727661 10.164L1.69214 10.4282L2.65662 10.6923C2.64506 10.7345 3.42139 8.23849 5.55137 6.5564L4.93161 5.77161ZM1.69214 10.4282L0.734788 10.1392C0.477714 10.9911 0.96543 11.871 1.80174 12.1236L2.09083 11.1662L2.37991 10.2089C2.58547 10.271 2.71615 10.4962 2.64949 10.7171L1.69214 10.4282ZM2.09083 11.1662L1.80174 12.1236C2.64567 12.3784 3.53713 11.9009 3.792 11.0564L2.83464 10.7674L1.87729 10.4785C1.94174 10.265 2.16674 10.1446 2.37991 10.2089L2.09083 11.1662ZM2.83464 10.7674L3.79576 11.0436C3.7948 11.0469 3.80542 11.0108 3.83025 10.9395C3.85425 10.8707 3.89007 10.7733 3.93886 10.6532C4.03665 10.4125 4.18498 10.0846 4.39233 9.71527C4.81026 8.97089 5.44875 8.09247 6.3647 7.40761L5.76588 6.60673L5.16705 5.80585C2.77922 7.59125 1.93633 10.2727 1.87353 10.4913L2.83464 10.7674ZM5.76588 6.60673L5.05866 7.31372L6.94796 9.2036L7.65517 8.49661L8.36239 7.78961L6.47309 5.89973L5.76588 6.60673ZM7.65517 8.49661L6.9985 7.74243C6.52574 8.15407 6.14269 8.65857 5.87316 9.22455L6.77601 9.65451L7.67886 10.0845C7.83049 9.76607 8.04595 9.4823 8.31184 9.25078L7.65517 8.49661ZM6.77601 9.65451L5.87316 9.22455C5.60363 9.79053 5.45337 10.4059 5.4317 11.0324L6.4311 11.067L7.43051 11.1015C7.44269 10.7491 7.52723 10.4029 7.67886 10.0845L6.77601 9.65451ZM6.4311 11.067L5.4317 11.0324C5.41003 11.6589 5.51743 12.2832 5.74722 12.8665L6.67762 12.4999L7.60801 12.1334C7.47874 11.8053 7.41832 11.454 7.43051 11.1015L6.4311 11.067ZM6.67762 12.4999L5.74722 12.8665C5.97701 13.4497 6.32428 13.9795 6.76748 14.4228L7.47469 13.7158L8.18191 13.0088C7.93264 12.7595 7.73728 12.4615 7.60801 12.1334L6.67762 12.4999ZM7.47469 13.7158L6.76748 14.4228C7.21067 14.8662 7.7403 15.2136 8.32346 15.4435L8.69022 14.5132L9.05697 13.5828C8.72904 13.4536 8.43118 13.2582 8.18191 13.0088L7.47469 13.7158ZM8.69022 14.5132L8.32346 15.4435C8.90662 15.6734 9.53084 15.7808 10.1573 15.7591L10.1227 14.7597L10.0881 13.7603C9.73589 13.7725 9.3849 13.7121 9.05697 13.5828L8.69022 14.5132ZM10.1227 14.7597L10.1573 15.7591C10.7838 15.7375 11.3991 15.5871 11.9649 15.3175L11.5348 14.4147L11.1046 13.512C10.7864 13.6636 10.4404 13.7482 10.0881 13.7603L10.1227 14.7597ZM11.5348 14.4147L11.9649 15.3175C12.5308 15.0478 13.0352 14.6646 13.4467 14.1917L12.6923 13.5353L11.9379 12.8789C11.7065 13.1448 11.4228 13.3603 11.1046 13.512L11.5348 14.4147ZM11.8479 12.6901L11.0719 12.0594C10.95 12.2093 10.798 12.332 10.6258 12.4195L11.0786 13.3111L11.5314 14.2027C11.9533 13.9885 12.3255 13.688 12.6239 13.3208L11.8479 12.6901ZM11.0786 13.3111L10.6258 12.4195C10.4535 12.507 10.2648 12.5573 10.0719 12.5672L10.1233 13.5659L10.1747 14.5646C10.6473 14.5403 11.1095 14.417 11.5314 14.2027L11.0786 13.3111ZM10.1233 13.5659L10.0719 12.5672C9.87904 12.5772 9.6862 12.5465 9.5059 12.4771L9.14698 13.4105L8.78807 14.3439C9.22973 14.5137 9.70213 14.5889 10.1747 14.5646L10.1233 13.5659ZM9.14698 13.4105L9.5059 12.4771C9.32559 12.4078 9.16183 12.3014 9.0252 12.1647L8.31799 12.8717L7.61077 13.5787C7.94532 13.9133 8.3464 14.174 8.78807 14.3439L9.14698 13.4105ZM8.31799 12.8717L9.0252 12.1647C8.88858 12.028 8.78214 11.8642 8.71279 11.6837L7.77934 12.0424L6.8459 12.4012C7.01565 12.8429 7.27622 13.244 7.61077 13.5787L8.31799 12.8717ZM7.77934 12.0424L8.71279 11.6837C8.64344 11.5033 8.61273 11.3102 8.62266 11.1171L7.62398 11.0658L6.6253 11.0144C6.601 11.487 6.67615 11.9594 6.8459 12.4012L7.77934 12.0424ZM7.62398 11.0658L8.62266 11.1171C8.63259 10.9241 8.68293 10.7352 8.77042 10.5628L7.8787 10.1102L6.98698 9.65766C6.77281 10.0796 6.6496 10.5419 6.6253 11.0144L7.62398 11.0658ZM7.8787 10.1102L8.77042 10.5628C8.85791 10.3905 8.98058 10.2384 9.1305 10.1165L8.49955 9.34065L7.86861 8.56482C7.50149 8.86339 7.20114 9.2357 6.98698 9.65766L7.8787 10.1102ZM8.49955 9.34065L7.79234 10.0477L11.1407 13.3971L11.8479 12.6901L12.5551 11.9831L9.20677 8.63366L8.49955 9.34065ZM9.7337 7.62815L9.02634 8.33502L10.5931 9.90287L11.3005 9.19601L12.0078 8.48915L10.441 6.92129L9.7337 7.62815ZM11.3005 9.19601L10.7536 10.0332C10.9131 10.1374 11.0508 10.275 11.1571 10.437L11.9931 9.88827L12.8291 9.33954C12.5737 8.95036 12.2401 8.61534 11.8474 8.3588L11.3005 9.19601ZM11.9931 9.88827L11.2859 10.5953L12.8533 12.1631L13.5605 11.4561L14.2677 10.7491L12.7003 9.18128L11.9931 9.88827ZM13.5605 11.4561L14.5582 11.5235C14.5656 11.4142 14.5695 11.3046 14.57 11.1945L13.57 11.1901L12.57 11.1856C12.5697 11.2541 12.5673 11.3218 12.5628 11.3887L13.5605 11.4561ZM13.57 11.1901L14.57 11.1902C14.5701 10.5611 14.4404 9.93887 14.189 9.36228L13.2723 9.76194L12.3556 10.1616C12.4971 10.486 12.57 10.8361 12.57 11.1899L13.57 11.1901ZM13.2723 9.76194L14.189 9.36228C13.9376 8.78569 13.5699 8.26717 13.109 7.8392L12.4286 8.57203L11.7482 9.30486C12.0074 9.54557 12.2142 9.83723 12.3556 10.1616L13.2723 9.76194ZM12.4286 8.57203L13.109 7.8392C12.648 7.41123 12.1037 7.08301 11.5101 6.8751L11.1796 7.81888L10.849 8.76267C11.1828 8.87958 11.4889 9.06416 11.7482 9.30486L12.4286 8.57203ZM11.1796 7.81888L11.5101 6.8751C10.9165 6.66719 10.2864 6.58406 9.65917 6.63094L9.7337 7.62815L9.80822 8.62537C10.1609 8.59902 10.5152 8.64576 10.849 8.76267L11.1796 7.81888ZM6.78044 4.67399L6.07277 5.38053L6.99213 6.30136L7.6998 5.59482L8.40748 4.88828L7.48812 3.96745L6.78044 4.67399ZM7.6998 5.59482L8.0097 6.54559C8.64919 6.33715 9.31808 6.23317 9.99064 6.23766L9.9973 5.23768L10.004 4.2377C9.11644 4.23179 8.23377 4.369 7.3899 4.64405L7.6998 5.59482ZM9.9973 5.23768V6.23768C12.3294 6.23768 13.8396 7.36091 14.8084 8.54835C15.7947 9.75717 16.1848 10.9986 16.2075 11.0703L17.1606 10.7674L18.1136 10.4646C18.0632 10.3059 17.5806 8.78247 16.358 7.284C15.118 5.76415 13.0832 4.23768 9.9973 4.23768V5.23768ZM17.1606 10.7674L16.2033 11.0567C16.4126 11.7493 17.0506 12.1901 17.7318 12.1901V11.1901V10.1901C17.9013 10.1901 18.0632 10.2975 18.1178 10.4781L17.1606 10.7674ZM17.7318 11.1901H18.7318V11.1841H17.7318H16.7318V11.1901H17.7318ZM17.7318 11.1841L17.7223 12.1841C17.9719 12.1864 18.2185 12.13 18.4422 12.0195L17.9992 11.123L17.5561 10.2265C17.6136 10.1981 17.6771 10.1835 17.7413 10.1842L17.7318 11.1841ZM17.9992 11.123L18.4422 12.0195C18.666 11.9089 18.8605 11.7472 19.0102 11.5476L18.2101 10.9477L17.41 10.3478C17.4485 10.2965 17.4985 10.2549 17.5561 10.2265L17.9992 11.123ZM18.2101 10.9477L19.0102 11.5476C19.1599 11.3479 19.2605 11.1159 19.304 10.8702L18.3193 10.696L17.3345 10.5219C17.3457 10.4588 17.3716 10.3991 17.41 10.3478L18.2101 10.9477ZM18.3193 10.696L19.304 10.8702C19.3474 10.6245 19.3325 10.3721 19.2604 10.1332L18.3031 10.4222L17.3457 10.7112C17.3272 10.6498 17.3234 10.585 17.3345 10.5219L18.3193 10.696ZM18.3031 10.4222L19.2582 10.1262C19.2321 10.042 18.6886 8.31097 17.2895 6.58308C15.874 4.83499 13.5401 3.0472 9.99671 3.0472V4.0472V5.0472C12.7716 5.0472 14.5817 6.41715 15.7352 7.84168C16.905 9.28641 17.3555 10.7429 17.3479 10.7182L18.3031 10.4222ZM9.99671 4.0472V3.0472C8.63116 3.0472 7.43291 3.31392 6.39174 3.75237L6.77985 4.67399L7.16795 5.5956C7.96431 5.26024 8.89873 5.0472 9.99671 5.0472V4.0472Z" fill="#9A9A9A" mask="url(#path-1-inside-1_515_2092)"/>
</svg>
