<svg width="24" height="25" viewBox="0 0 24 25" fill="none" xmlns="http://www.w3.org/2000/svg">
<path d="M12 2C6.21137 2 1.5 6.71137 1.5 12.5C1.5 18.2886 6.21137 23 12 23C17.7886 23 22.5 18.2886 22.5 12.5C22.5 6.71137 17.7886 2 12 2ZM12 3.75C16.8429 3.75 20.75 7.65714 20.75 12.5C20.75 16.899 17.5227 20.5161 13.3022 21.144V15.0515H15.7939L16.1853 12.5205H13.3022V11.1379C13.3022 10.0871 13.6475 9.15381 14.6301 9.15381H16.2092V6.9458C15.9319 6.90818 15.3449 6.82617 14.2354 6.82617C11.9184 6.82617 10.561 8.04941 10.561 10.8372V12.5205H8.17871V15.0515H10.561V21.1218C6.40775 20.4368 3.25 16.8514 3.25 12.5C3.25 7.65714 7.15714 3.75 12 3.75Z" fill="#121214"/>
</svg>
