<svg width="60" height="60" viewBox="0 0 60 60" fill="none" xmlns="http://www.w3.org/2000/svg">
<path d="M30.3221 9.00001C30.4596 8.99942 30.5997 9.04313 30.7059 9.13473C30.8132 9.22753 30.884 9.36714 30.8836 9.54888L30.8787 9.7335C30.8346 10.6414 30.4626 11.3504 29.8446 11.905C29.1872 12.4949 28.2521 12.9085 27.1415 13.2063C25.4759 13.6529 23.4021 13.8424 21.245 13.9658L19.0712 14.0746C16.5411 14.1924 14.0459 14.3081 12.1836 14.7053C11.2525 14.9039 10.4842 15.1715 9.95018 15.5415C9.41825 15.9103 9.12109 16.3785 9.12109 16.9806C9.12544 17.6897 9.27153 18.1915 9.51171 18.5533C9.75179 18.9148 10.0901 19.1425 10.4873 19.2978C10.8856 19.4535 11.3418 19.5351 11.8154 19.6072C12.2858 19.6787 12.7748 19.7405 13.2334 19.8557C14.844 19.9737 17.0406 19.652 19.2734 19.3058C21.5042 18.9599 23.7706 18.5902 25.5077 18.6162L26.0692 18.6272C27.3044 18.6809 28.3445 18.9244 29.076 19.4515V19.186C29.0761 18.8763 29.3287 18.6262 29.6356 18.6262H40.3298C40.4842 18.6509 40.7138 18.6492 40.9744 18.6482C41.2325 18.6472 41.5184 18.6475 41.7761 18.6781C42.032 18.7085 42.2705 18.7703 42.4284 18.8986C42.5085 18.9637 42.5682 19.0464 42.5984 19.1501C42.6284 19.2535 42.6284 19.3742 42.5945 19.5134L42.5925 19.5214L42.4695 19.8207C44.0655 20.1401 45.5648 20.7382 46.8942 21.5881L47.1833 21.7787C48.6155 22.7516 49.8466 24.0048 50.7936 25.4581L50.8424 25.5529C50.9212 25.7476 50.8857 25.9735 50.7458 26.1327L50.6667 26.2066C50.6662 26.207 50.6647 26.2079 50.6637 26.2086C50.6615 26.2103 50.6574 26.2132 50.653 26.2166C50.6442 26.2235 50.6311 26.2342 50.6139 26.2475C50.5793 26.2745 50.528 26.3147 50.4616 26.3663C50.3351 26.4645 50.1525 26.6042 49.9264 26.7794C51.0965 28.7412 51.7454 30.9888 51.7536 33.313C51.8157 33.6192 52.043 34.8821 51.9928 36.5054C51.9924 36.7475 51.8355 36.9603 51.61 37.0353L51.5094 37.0593L50.3258 37.2209C50.1871 39.3977 49.5291 42.0968 47.402 44.1008L47.1911 44.2934C45.4989 45.7815 42.9529 46.8171 39.1794 46.8651C39.1434 46.9268 39.1071 46.9896 39.0652 47.0507L38.906 47.2573C38.4785 47.7609 37.8029 48.246 37.0017 48.6883C36.4001 49.0205 35.7249 49.3293 35.0291 49.6064L34.3289 49.8729C32.5897 50.5017 30.7848 50.9279 29.7088 50.9916L29.5037 50.9996C29.1179 51.0056 28.7979 50.9482 28.5799 50.811L28.493 50.7471C28.2659 50.5582 28.1607 50.2742 28.1336 49.9427C28.1067 49.6116 28.1572 49.2263 28.2479 48.826C28.4278 48.0319 28.7681 47.1595 28.993 46.5008C28.9654 46.3749 28.889 46.1977 28.784 45.9879C28.6755 45.771 28.5433 45.5279 28.4139 45.2763C28.2853 45.0263 28.1602 44.77 28.0731 44.5339C27.9865 44.2993 27.9339 44.0769 27.9539 43.8972C27.9441 43.7261 27.9813 43.5062 28.0409 43.2685C28.1019 43.0252 28.1867 42.7568 28.2694 42.4941C28.3522 42.2308 28.4331 41.9729 28.4881 41.7466C28.5437 41.5181 28.5711 41.3292 28.5516 41.2027C28.3299 40.4798 28.1438 39.5151 28.1073 38.7029C28.0891 38.0957 28.1315 37.5757 28.3368 37.209C28.4403 37.0241 28.5857 36.8786 28.783 36.7798C28.9796 36.6816 29.2257 36.6309 29.5311 36.6321L29.7313 36.6371C30.7649 36.6875 32.2891 37.1028 33.8103 37.6989C35.3863 38.3165 36.9671 39.1326 38.0086 39.9463C37.9891 39.7799 37.9766 39.6106 37.991 39.4384V39.4364L38.0261 39.2458C38.124 38.8241 38.3515 38.4385 38.6599 38.137C38.5822 38.0402 38.5 37.9448 38.4168 37.8496C38.3234 37.7429 38.2289 37.6346 38.1394 37.5243C37.9603 37.3036 37.7987 37.0681 37.7058 36.7948C37.5514 36.3644 37.5446 35.8894 37.6638 35.4516C37.0442 35.1309 36.3684 34.7562 36.1394 34.0455C36.1253 34.0098 36.1147 33.9738 36.1053 33.9387C36.0985 33.9134 36.0922 33.8895 36.0857 33.8658C35.9081 33.8453 35.717 33.8036 35.5398 33.773C35.3475 33.7399 35.1667 33.7218 35.0096 33.7551L34.9988 33.7571L31.3133 33.7561C30.7756 33.756 30.2838 33.5634 29.8944 33.2451L29.7332 33.1014C29.5532 32.9214 29.4062 32.7083 29.2957 32.4757C28.6423 33.4181 27.6599 34.0482 26.4549 33.7321C26.2135 33.6666 25.2579 33.3826 24.0907 33.0375L23.8075 33.4018L23.8085 33.4028C23.587 33.7048 23.3903 33.9651 23.2167 34.1922C23.043 34.4193 22.8928 34.6136 22.7655 34.7869C22.5104 35.1345 22.3488 35.3923 22.2694 35.6482C22.1907 35.9019 22.1914 36.1591 22.2675 36.5074C22.3057 36.6822 22.362 36.8792 22.4374 37.1092L22.7196 37.9115L23.0634 38.8835C23.1878 39.2412 23.3206 39.6323 23.4559 40.0571L23.4794 40.1689C23.5065 40.4287 23.3478 40.6792 23.0907 40.7606C22.8338 40.8418 22.5603 40.728 22.4335 40.5002L22.3895 40.3954C22.1006 39.4857 21.8611 38.8247 21.6688 38.2897C21.0809 36.9722 20.9882 36.0846 21.2597 35.26C21.5243 34.4564 22.1329 33.7166 22.9354 32.6962C22.292 32.5055 21.6315 32.3115 21.0204 32.1304L20.7343 32.4986L20.7353 32.4996C20.5139 32.8015 20.317 33.061 20.1435 33.288C19.9698 33.5152 19.8196 33.7094 19.6923 33.8828C19.4372 34.2303 19.2766 34.4882 19.1972 34.744C19.1185 34.9977 19.1182 35.255 19.1943 35.6033C19.2707 35.9532 19.4232 36.3913 19.6464 37.0074L19.9911 37.9794C20.1155 38.337 20.2475 38.7283 20.3827 39.153L20.4062 39.2647C20.4295 39.4875 20.3166 39.7032 20.122 39.8116L20.0175 39.8565C19.7608 39.9375 19.4892 39.8235 19.3622 39.596L19.3163 39.4913C19.0281 38.5837 18.7896 37.9239 18.5976 37.3896L18.3993 36.9136C17.9897 35.8483 17.9483 35.0783 18.1864 34.3558C18.4515 33.552 19.0607 32.8114 19.8642 31.7901C19.4901 31.6805 19.1638 31.5869 18.912 31.5147L18.3915 31.37C16.6542 30.9754 15.4256 30.4849 14.5605 29.878C13.6941 29.2701 13.1935 28.5456 12.9101 27.6875C12.6275 26.8316 12.5608 25.8444 12.5595 24.7117C12.5582 23.5842 12.6197 22.3214 12.5996 20.8816C12.4784 20.8508 12.3593 20.8174 12.2422 20.7917C12.1133 20.7635 11.9919 20.7456 11.8828 20.7488H11.874C10.9219 20.6056 9.95155 20.4601 9.22167 19.9515C8.4863 19.4389 8.00241 18.5635 8.00195 16.9826L8 16.8239C8.01337 16.0414 8.33062 15.4247 8.87792 14.9388C9.45938 14.4226 10.2997 14.0552 11.3076 13.7862C13.3236 13.2481 16.0334 13.1001 18.7509 12.9728C21.4716 12.8454 24.2007 12.7382 26.2655 12.2832C27.2977 12.0557 28.1595 11.7419 28.7694 11.2993C29.3772 10.858 29.7339 10.2894 29.7645 9.54688C29.7637 9.36834 29.8332 9.23034 29.9393 9.13772C30.0448 9.04576 30.1845 9.00068 30.3221 9.00001ZM29.3436 50.9477L29.5037 50.9487C29.3943 50.9504 29.2907 50.9465 29.1942 50.9377L29.3436 50.9477ZM33.616 50.0645C31.9923 50.5975 30.4072 50.935 29.5037 50.9487C30.5362 50.933 32.4592 50.495 34.3123 49.825L33.616 50.0645ZM28.9246 50.8948C28.9661 50.9048 29.0094 50.9135 29.0545 50.9207L28.9256 50.8948C28.8843 50.8849 28.8449 50.8736 28.8075 50.8609L28.9246 50.8948ZM28.5243 50.7072C28.5411 50.7216 28.5601 50.734 28.5789 50.7471C28.5603 50.7341 28.542 50.7215 28.5252 50.7072C28.5121 50.6963 28.5004 50.6839 28.4881 50.6722C28.5002 50.6837 28.5113 50.6964 28.5243 50.7072ZM29.1815 49.9278C29.255 49.9301 29.3308 49.931 29.408 49.9298C29.331 49.931 29.2558 49.93 29.1825 49.9278C29.1695 49.9169 29.1591 49.9014 29.1512 49.8819L29.1815 49.9278ZM28.1961 49.4158C28.1773 49.5871 28.1728 49.7502 28.1825 49.9018C28.1729 49.7505 28.1774 49.5877 28.1961 49.4168V49.4158ZM30.6248 49.799C30.3775 49.8427 30.1417 49.8771 29.9178 49.8988C30.1417 49.8771 30.3775 49.8427 30.6248 49.799ZM29.5379 37.7458C29.4155 37.7341 29.3433 37.7497 29.3006 37.7778C29.2608 37.8042 29.2369 37.8486 29.2244 37.9235C29.2118 38.0003 29.2129 38.0999 29.2166 38.2249C29.2203 38.347 29.2261 38.4908 29.2215 38.652L29.2401 38.9274C29.2957 39.5812 29.441 40.3115 29.617 40.8744L29.6571 41.0311C29.6851 41.1951 29.6783 41.3799 29.6512 41.574C29.615 41.8335 29.5414 42.1156 29.4588 42.3963C29.3753 42.6799 29.2843 42.957 29.2098 43.2186C29.1363 43.4766 29.0812 43.7098 29.0702 43.8992C29.0846 44.0739 29.1689 44.2938 29.2879 44.5419C29.4073 44.7907 29.5575 45.0582 29.6981 45.3322C29.8376 45.6042 29.9678 45.8805 30.0428 46.1376C30.1175 46.3937 30.1405 46.6401 30.0565 46.8471L29.866 47.386C29.6788 47.9146 29.4679 48.5097 29.3299 48.9937C29.2609 49.2357 29.2115 49.448 29.1912 49.6094C29.1811 49.6903 29.1788 49.7559 29.1844 49.805C29.1886 49.8421 29.1976 49.8639 29.2059 49.8769C30.3702 49.907 32.0073 49.4952 33.949 48.8181C34.9277 48.4101 35.9096 48.0497 36.7088 47.6046C37.5048 47.1611 38.1069 46.64 38.3435 45.922L38.2879 42.049C38.0858 41.5115 37.5747 40.9787 36.8797 40.4792C36.1821 39.9781 35.3053 39.5144 34.3885 39.117C32.5534 38.3217 30.5655 37.7941 29.5399 37.7468L29.5379 37.7458ZM29.1932 49.32C29.1572 49.4772 29.1354 49.6128 29.1317 49.7172L29.1414 49.6024C29.1622 49.4369 29.2128 49.2215 29.2821 48.9787L29.1932 49.32ZM36.3553 48.9658C35.927 49.1758 35.4744 49.3752 35.0115 49.5595L35.6971 49.2731C36.0338 49.1248 36.3606 48.9686 36.6717 48.8071L36.3553 48.9658ZM38.0642 47.9548C37.8243 48.1328 37.5579 48.3069 37.2713 48.4758L37.5515 48.3051C37.8241 48.1329 38.0741 47.9557 38.2957 47.7752L38.0642 47.9548ZM28.9676 46.2653C29.0052 46.3561 29.0325 46.4366 29.0457 46.5038C28.9327 46.8358 28.7907 47.2205 28.6541 47.6215L29.0467 46.5038C29.0335 46.4364 29.0054 46.3555 28.9676 46.2643V46.2653ZM38.699 47.41C38.6388 47.4715 38.5749 47.5327 38.5076 47.5936L38.7 47.41C38.7601 47.3485 38.8163 47.2864 38.8689 47.2243L38.699 47.41ZM37.5476 47.1036C37.4355 47.1965 37.3143 47.2836 37.1873 47.369C37.4044 47.223 37.6026 47.0692 37.7742 46.9L37.5476 47.1036ZM38.3367 42.04L38.3943 45.93C38.3793 45.9763 38.3634 46.022 38.3455 46.0667L38.3953 45.93H38.3943L38.3377 42.04C38.312 41.9707 38.2811 41.9013 38.2459 41.8324L38.3367 42.04ZM40.0574 38.631L40.0583 38.632C39.6052 38.7294 39.3603 38.9258 39.2371 39.1769C39.1122 39.4316 39.1077 39.7537 39.156 40.111C39.2044 40.4685 39.3042 40.8492 39.3826 41.2257C39.4596 41.5957 39.515 41.9609 39.4705 42.2765V45.7464C42.4417 45.7486 44.8068 44.8775 46.4626 43.3942C48.1133 41.9152 49.0617 39.8245 49.2048 37.3746L40.0574 38.631ZM28.1913 44.6945C28.268 44.8758 28.3607 45.0653 28.4569 45.2524L28.2733 44.8782C28.2444 44.816 28.217 44.7543 28.1913 44.6935V44.6945ZM49.2585 37.3157C49.0614 41.049 47.006 43.9679 43.4558 45.1835C47.0065 43.968 49.0614 41.0491 49.2585 37.3157ZM28.0623 44.3453C28.0788 44.4006 28.0984 44.4576 28.12 44.5159L28.0633 44.3453C28.0469 44.2899 28.0327 44.2363 28.0223 44.1846L28.0623 44.3453ZM28.0038 43.7714C28.0009 43.8184 28 43.8624 28.0028 43.9032C27.9981 43.945 27.9984 43.9897 28.0018 44.0369L28.0038 43.9032V43.7714ZM28.0487 43.4571C28.0368 43.5141 28.0271 43.5692 28.0194 43.6218L28.0497 43.4571C28.0614 43.4004 28.0746 43.3417 28.0897 43.2815L28.0487 43.4571ZM28.4803 41.9652C28.4317 42.1383 28.3759 42.3237 28.3172 42.51L28.4373 42.1218C28.4531 42.069 28.466 42.0162 28.4803 41.9652ZM39.4363 42.037C39.4362 42.1197 39.4319 42.1998 39.4207 42.2765C39.4431 42.123 39.4402 41.9564 39.4226 41.7815L39.4363 42.037ZM36.6365 40.2507C37.2871 40.6826 37.8148 41.1469 38.1257 41.6259L37.9802 41.4213C37.6092 40.9466 37.0346 40.4894 36.3504 40.0671L36.6365 40.2507ZM37.8718 39.9034L38.072 40.0591L37.8718 39.9024C37.8028 39.8503 37.7312 39.7988 37.658 39.7467L37.8718 39.9034ZM19.4696 39.6599C19.5331 39.7312 19.6144 39.7837 19.705 39.8106L19.6151 39.7737C19.5604 39.7452 19.5112 39.7067 19.4696 39.6599ZM33.7127 38.7847C34.41 39.0573 35.1052 39.3703 35.739 39.7138L35.4178 39.5451C34.6564 39.1564 33.8251 38.8107 33.0174 38.5262L33.7127 38.7847ZM19.4042 39.5701C19.4106 39.5815 19.4195 39.5912 19.4267 39.602C19.4011 39.5634 19.3788 39.5217 19.3642 39.4753L19.4042 39.5701ZM22.6718 37.9295C22.8276 38.3644 23.0126 38.8752 23.2089 39.4613L23.0175 38.9005C22.8933 38.5431 22.7767 38.2195 22.6727 37.9295C22.5613 37.6218 22.4665 37.3577 22.3905 37.1261L22.6718 37.9295ZM39.2488 39.0562C39.204 39.1244 39.1704 39.198 39.1443 39.2757C39.1824 39.1623 39.2378 39.0578 39.3171 38.9653L39.2488 39.0562ZM28.3123 37.3736C28.1718 37.7153 28.1412 38.1689 28.1571 38.6999C28.1652 38.8819 28.1819 39.0716 28.2039 39.2647C28.182 39.0718 28.1662 38.8818 28.158 38.6999C28.1399 38.0934 28.1823 37.588 28.3797 37.2349L28.3123 37.3736ZM35.5867 38.5382C35.7793 38.6333 35.9686 38.73 36.1531 38.8286L35.5867 38.5372C35.3942 38.4421 35.198 38.3495 34.9998 38.2588L35.5867 38.5382ZM39.738 38.6749C39.6921 38.6936 39.6494 38.7143 39.6091 38.7358L39.738 38.6759C39.784 38.6573 39.8327 38.6397 39.8845 38.624L39.738 38.6749ZM30.9119 37.9115C31.3487 38.0109 31.8308 38.1395 32.3328 38.2977L31.6736 38.1021C31.409 38.0286 31.1534 37.9664 30.9119 37.9115ZM21.5185 37.7997C21.5516 37.886 21.5907 37.9728 21.6288 38.0632C21.5573 37.8935 21.4916 37.7327 21.4374 37.5772L21.5185 37.7997ZM44.9948 30.6115C42.622 32.4537 40.1767 34.3495 39.1287 35.1652L39.1277 35.1662C38.7429 35.4489 38.6051 35.9796 38.7576 36.4216L38.8357 36.5773C38.9242 36.7284 39.0428 36.8688 39.1697 37.0094C39.3292 37.1861 39.5011 37.3666 39.6306 37.5642L50.8815 36.0174C50.5881 32.1609 50.7187 30.5185 49.0456 27.467L44.9948 30.6115ZM39.0086 36.9026C39.0435 36.9442 39.0803 36.9845 39.1169 37.0253C39.0382 36.9374 38.9612 36.8488 38.8933 36.7559L39.0086 36.9026ZM51.5026 37.0084C51.5317 37.0044 51.5595 36.9969 51.5866 36.9884C51.5595 36.9969 51.5317 37.0044 51.5026 37.0084ZM51.6354 36.9694C51.646 36.9649 51.6565 36.9607 51.6667 36.9555C51.6565 36.9607 51.646 36.9649 51.6354 36.9694ZM51.6999 36.9355C51.7157 36.9257 51.7312 36.9159 51.7458 36.9046C51.7312 36.9159 51.7157 36.9257 51.6999 36.9355ZM51.7643 36.8876C51.7776 36.8761 51.7904 36.8644 51.8024 36.8517C51.7904 36.8644 51.7776 36.8761 51.7643 36.8876ZM51.8278 36.8227C51.8372 36.8111 51.8458 36.7992 51.8542 36.7868C51.8458 36.7992 51.8372 36.8111 51.8278 36.8227ZM29.5311 36.683C29.3058 36.6821 29.1153 36.7094 28.9549 36.7629L29.1258 36.719C29.2464 36.695 29.3809 36.6824 29.5311 36.683ZM51.8747 36.7549C51.8863 36.7345 51.8972 36.7139 51.9059 36.692C51.8972 36.7139 51.8862 36.7345 51.8747 36.7549ZM38.6921 35.721C38.6261 35.9553 38.6313 36.2104 38.7117 36.4415C38.7346 36.4971 38.7622 36.551 38.7927 36.6032L38.7127 36.4415C38.6121 36.1527 38.6294 35.8269 38.7556 35.5504L38.6921 35.721ZM21.1649 36.234C21.1674 36.3476 21.1758 36.4645 21.1913 36.5852L21.1737 36.4066C21.1692 36.3478 21.1662 36.29 21.1649 36.233V36.234ZM51.9352 35.3777C51.9499 35.7251 51.9544 36.104 51.942 36.5044H51.943L51.9499 35.9136C51.9484 35.7281 51.9425 35.5492 51.9352 35.3777ZM22.1757 35.8328C22.1551 35.9684 22.1553 36.1099 22.1747 36.2679L22.161 36.0424C22.1613 35.9345 22.1722 35.8329 22.1952 35.733L22.1757 35.8328ZM21.2196 35.6082C21.1897 35.7563 21.1714 35.9079 21.1659 36.0653L21.1767 35.9006C21.1859 35.8013 21.2003 35.704 21.2196 35.6082ZM36.3572 34.3898C36.375 34.4175 36.3945 34.444 36.4138 34.4706C36.3688 34.4089 36.3271 34.3445 36.2908 34.276L36.3572 34.3898ZM37.1756 32.807C37.0085 33.2114 37.0905 33.559 37.3025 33.8409C37.5116 34.1188 37.849 34.3338 38.2039 34.4676L38.4353 34.288C38.4362 34.2869 38.4378 34.2853 38.4392 34.284L38.4441 34.28L49.57 25.6477C47.787 23.1564 45.094 21.4121 42.0486 20.8606L37.1756 32.807ZM38.4744 34.3209L43.2683 30.6035L49.6403 25.6587L38.4744 34.3209ZM35.2635 33.6882C35.3413 33.6921 35.4214 33.7031 35.5027 33.7161C35.4214 33.7031 35.3414 33.6921 35.2635 33.6882ZM30.6658 33.6064C30.8023 33.6492 30.9443 33.6792 31.0906 33.6942L31.3133 33.7052C31.0129 33.7051 30.7274 33.6432 30.4666 33.5325L30.6658 33.6064ZM26.4667 33.6822C26.476 33.6847 26.4857 33.6859 26.495 33.6882C26.4859 33.6859 26.4767 33.6846 26.4676 33.6822L24.0721 32.9797C25.2542 33.3291 26.2234 33.6162 26.4667 33.6822ZM36.1892 32.3969C36.1892 32.4003 36.189 32.4024 36.1873 32.4058L36.0428 32.7611L36.1883 32.4058C36.1899 32.4025 36.1902 32.4003 36.1902 32.3969L41.2263 20.0453L36.1892 32.3969ZM29.3035 32.3769C29.359 32.5059 29.4268 32.6289 29.5047 32.7441L29.3963 32.5655C29.3629 32.5043 29.3322 32.4414 29.3045 32.3769H29.3035ZM30.1942 19.7479V31.5217C30.1942 31.8273 30.321 32.1069 30.5233 32.309L30.6004 32.3829C30.7912 32.5432 31.0416 32.6358 31.3123 32.6374L32.282 32.6384C32.705 32.6357 33.2032 32.6308 33.7 32.6304C34.1963 32.6299 34.6917 32.6338 35.1082 32.6453C35.4948 32.6561 35.8173 32.6752 36.0105 32.7052L36.1404 32.3899V32.3869L36.1443 32.3779L41.1804 20.0253C41.1815 20.0225 41.1829 20.0196 41.1843 20.0173L41.282 19.7768C41.2208 19.773 41.1223 19.7699 40.9919 19.7668C40.7185 19.7604 40.3053 19.7563 39.7976 19.7529C38.782 19.746 37.3874 19.7435 35.9744 19.7439C33.3292 19.7447 30.6128 19.7519 30.1942 19.7479ZM27.0907 19.8836C25.8756 19.6316 24.2248 19.7131 22.4784 19.9215C20.7328 20.1299 18.8976 20.4638 17.3134 20.7139C16.522 20.8388 15.7928 20.9429 15.1699 20.9993C14.5797 21.0528 14.0813 21.0628 13.7138 21.0073C13.7206 21.7881 13.7112 22.4972 13.7011 23.1429C13.6908 23.8052 13.6803 24.4006 13.6884 24.9392C13.7048 26.0172 13.795 26.862 14.1005 27.5568C14.6715 28.8547 16.0043 29.6497 19.0985 30.4319L19.7411 30.5876L19.7441 30.5886L26.7665 32.6573L26.9168 32.6903C26.966 32.6971 27.0157 32.7001 27.0653 32.7002C27.7205 32.6404 28.2198 32.1855 28.5584 31.5815C28.8947 30.9817 29.0676 30.2428 29.076 29.6276V21.8146L29.0653 21.613C29.0191 21.1574 28.8321 20.8036 28.534 20.5313C28.1914 20.2184 27.6977 20.0096 27.0907 19.8836ZM28.827 31.1255C28.8149 31.1565 28.8007 31.1866 28.7879 31.2173C28.8352 31.104 28.8795 30.989 28.9168 30.872L28.827 31.1255ZM15.7929 29.3242C16.6898 29.8084 17.9539 30.2203 19.7304 30.6375C17.7317 30.1682 16.3821 29.7049 15.4736 29.1386L15.7929 29.3242ZM29.1151 29.8551C29.0969 30.1 29.0556 30.3583 28.9901 30.6155L29.0487 30.3581C29.0984 30.1017 29.1245 29.8492 29.1268 29.6146H29.1258L29.1151 29.8551ZM14.0556 27.5788C14.1718 27.8428 14.3191 28.0859 14.5048 28.3123L14.332 28.0797C14.2246 27.9209 14.1332 27.7541 14.0556 27.5778V27.5788ZM49.862 26.7664C50.0394 27.0616 50.2038 27.364 50.3571 27.6716C50.2039 27.3641 50.0403 27.0615 49.863 26.7664C50.341 26.3961 50.6286 26.1717 50.6364 26.1657L49.862 26.7664ZM13.8056 26.7794C13.8448 26.9636 13.8913 27.1391 13.9492 27.3063L13.8613 27.0199C13.8404 26.9416 13.823 26.8612 13.8056 26.7794ZM18.6122 22.3535C18.7492 22.3534 18.8885 22.3982 18.9941 22.4902C19.1005 22.5833 19.1703 22.7224 19.1708 22.9034V24.3205L19.1581 24.4482C19.133 24.5679 19.073 24.6638 18.9931 24.7336C18.8875 24.8256 18.7481 24.8702 18.6112 24.8703C18.4745 24.8703 18.3358 24.8256 18.2304 24.7336C18.1238 24.6406 18.0546 24.5015 18.0536 24.3205V22.9034L18.0663 22.7757C18.0915 22.6561 18.1504 22.56 18.2304 22.4902C18.336 22.3982 18.4753 22.3537 18.6122 22.3535ZM48.5339 24.3165C48.6669 24.456 48.7971 24.5985 48.9235 24.7446L48.5348 24.3165C48.4018 24.1769 48.2651 24.0411 48.1257 23.9083L48.5339 24.3165ZM47.4382 22.0192C47.5151 22.0745 47.591 22.131 47.6667 22.1879C47.4994 22.0619 47.3294 21.9394 47.1559 21.8216L47.4382 22.0192ZM28.4276 20.3776C28.8654 20.7086 29.1187 21.175 29.1258 21.8146L29.1151 21.6081C29.0542 21.0061 28.7536 20.5732 28.2752 20.2718L28.4276 20.3776ZM45.8308 21.0372C46.0086 21.1281 46.1843 21.2226 46.3571 21.3216L45.8308 21.0362C45.6529 20.9453 45.4723 20.8594 45.2898 20.7768L45.8308 21.0372ZM12.0605 20.7079C12.2349 20.7303 12.4242 20.7844 12.6103 20.8317C12.3579 20.7676 12.0997 20.6914 11.8808 20.6979L12.0605 20.7079ZM9.24999 19.9096C9.5194 20.0973 9.82263 20.2344 10.1465 20.3407L9.83006 20.2229C9.5729 20.1152 9.33309 19.9816 9.11816 19.8108L9.24999 19.9096ZM27.9305 20.0902C27.9921 20.1174 28.0518 20.1457 28.1092 20.176L27.9315 20.0902C27.8698 20.0629 27.8058 20.0376 27.7401 20.0133L27.9305 20.0902ZM41.2927 19.7269C41.3546 19.731 41.3754 19.7358 41.3503 19.7409L41.2283 20.0423L41.3513 19.7409C41.4013 19.7307 41.2669 19.7224 40.9929 19.716L41.2927 19.7269ZM26.621 19.7539C26.8698 19.7863 27.105 19.829 27.3241 19.8846L27.1004 19.8337C26.8708 19.7861 26.6259 19.7503 26.368 19.7249L26.621 19.7539ZM42.5456 19.5014L42.4138 19.8247L42.5466 19.5014C42.5547 19.4682 42.5601 19.4361 42.5642 19.4056L42.5456 19.5014ZM29.533 18.6871C29.4999 18.6939 29.4678 18.7041 29.4373 18.717L29.533 18.6881L29.6356 18.6771L29.533 18.6871ZM40.4548 18.6921C40.7456 18.7123 41.1772 18.6856 41.5749 18.711L41.3738 18.702C40.9697 18.691 40.561 18.7153 40.322 18.6771L40.4548 18.6921ZM11.831 14.7332C11.7197 14.7603 11.6109 14.7885 11.5049 14.818L11.832 14.7332C11.9434 14.7061 12.0574 14.6802 12.1738 14.6554L11.831 14.7332ZM14.7705 13.2762C14.5086 13.301 14.2506 13.3295 13.997 13.359C14.5574 13.2937 15.1397 13.2398 15.7363 13.1954L14.7705 13.2762ZM18.7528 13.0237C18.7203 13.0253 18.6877 13.0272 18.6552 13.0287C19.3676 12.9952 20.0816 12.9627 20.7851 12.9259L18.7528 13.0237ZM22.7577 12.8022C22.4375 12.8271 22.1121 12.8495 21.7831 12.87L22.7587 12.8022C23.079 12.7773 23.3942 12.7491 23.703 12.7184L22.7577 12.8022ZM28.6424 12.6186C28.6082 12.6347 28.5728 12.6487 28.5379 12.6645C28.6879 12.5969 28.833 12.5282 28.9705 12.4529L28.6424 12.6186ZM25.4696 12.4888C25.1917 12.5356 24.9048 12.5775 24.6102 12.6156L25.0467 12.5557C25.3336 12.5134 25.612 12.4667 25.8807 12.415L25.4696 12.4888ZM29.6698 11.9829C29.546 12.0835 29.416 12.1821 29.2752 12.2723L29.5565 12.0767C29.5959 12.047 29.632 12.0136 29.6698 11.9829ZM27.6932 11.92C27.3753 12.0425 27.0281 12.1494 26.6561 12.2433L27.0204 12.1445C27.3752 12.0416 27.704 11.9254 28.0018 11.7923L27.6932 11.92ZM29.4578 10.6716C29.2428 10.9945 28.9367 11.2688 28.5545 11.5029L28.7987 11.3412C29.1077 11.1169 29.3533 10.8586 29.5262 10.5618L29.4578 10.6716ZM29.8143 9.54888C29.8064 9.73915 29.7778 9.91819 29.7293 10.0868L29.7625 9.95903C29.7915 9.82846 29.8094 9.69179 29.8153 9.54888C29.8149 9.50779 29.8179 9.46914 29.825 9.43311L29.8143 9.54888ZM30.5965 9.11976C30.6722 9.1624 30.7348 9.22586 30.7772 9.30837C30.7194 9.19608 30.6231 9.11934 30.5106 9.08084L30.5965 9.11976ZM30.0487 9.12176C29.994 9.15298 29.9456 9.19482 29.9071 9.2465L29.9725 9.17664C30.0202 9.13512 30.0758 9.10377 30.1356 9.08284L30.0487 9.12176Z" fill="#171717"/>
</svg>
