<svg width="60" height="60" viewBox="0 0 60 60" fill="none" xmlns="http://www.w3.org/2000/svg">
<g clip-path="url(#clip0_10831_998)">
<path d="M42.9787 41.6986C42.6976 41.6986 42.4126 41.6864 42.1231 41.6602C41.8176 41.633 41.592 41.363 41.6192 41.0575C41.647 40.7525 41.9141 40.5237 42.2219 40.5536C48.3056 41.1014 52.3773 34.9502 53.7148 28.6157C54.3736 24.7146 53.1582 21.1623 50.4598 19.1348C48.0192 17.302 44.756 17.0803 41.7285 18.5416C41.5768 18.6155 41.3975 18.6155 41.2458 18.5416C38.368 17.1527 35.332 17.2649 32.917 18.8521C30.3797 20.5199 28.9508 23.5834 29.0954 27.0471C29.1082 27.3538 28.8698 27.6127 28.5632 27.6254C28.2409 27.6321 27.9976 27.3998 27.9849 27.0932C27.8237 23.2355 29.44 19.8078 32.307 17.9232C34.9875 16.1621 38.319 15.9854 41.4874 17.4276C44.8285 15.9087 48.4136 16.2082 51.1274 18.2464C54.1647 20.5275 55.5403 24.4814 54.8069 28.8227C53.4248 35.366 49.2619 41.6977 42.9786 41.6985L42.9787 41.6986Z" fill="black"/>
<path d="M34.8329 13.6552C34.7873 13.4869 34.729 13.2535 34.6906 13.0797C34.6517 12.9002 34.6162 12.7208 34.5861 12.5375C34.5477 12.3004 34.5222 12.093 34.5005 11.8847C34.451 11.4091 34.4283 10.9202 34.4333 10.4314C34.4366 10.1393 34.6656 9.8987 34.9577 9.88257C36.8716 9.77759 38.5206 10.3377 39.7427 11.5064C41.2549 12.9519 42.071 15.2748 42.0416 18.0481C42.0383 18.3531 41.7904 18.5976 41.4861 18.5976H41.4799C41.1726 18.5944 40.9271 18.3426 40.9304 18.0359C40.9571 15.5737 40.2626 13.5405 38.9748 12.3097C38.0786 11.4531 36.9281 11.0074 35.5503 10.9819C35.5602 11.2475 35.5781 11.5107 35.6053 11.7697C35.6253 11.958 35.6475 12.1442 35.6769 12.3269C35.7096 12.5236 35.7414 12.6842 35.7759 12.8431C35.8097 12.9969 35.8463 13.1509 35.8875 13.3019C35.8875 13.3019 35.9041 13.3647 35.9041 13.3652C36.008 13.7213 36.1431 14.0846 36.263 14.3629C36.6652 15.2706 37.2214 15.9974 37.9168 16.5218C38.1613 16.7068 38.2101 17.0551 38.0252 17.2996C37.8408 17.5441 37.493 17.594 37.2474 17.4085C36.3995 16.7685 35.7269 15.8946 35.2474 14.8118L35.2135 14.7391C35.0757 14.4191 34.9529 14.0729 34.8484 13.7112C34.8489 13.7078 34.8333 13.6583 34.8328 13.6551L34.8329 13.6552Z" fill="black"/>
<path d="M41.4867 18.5977C41.1822 18.5977 40.9345 18.3533 40.9312 18.0482C40.8957 14.7455 42.0657 12.1016 44.1407 10.7949C44.4024 10.6321 44.7434 10.7104 44.9072 10.9687C45.0707 11.2282 44.9922 11.5709 44.7334 11.7349C42.9917 12.8315 42.0112 15.1276 42.0423 18.0361C42.0456 18.3427 41.7995 18.5944 41.4928 18.5978H41.4866L41.4867 18.5977Z" fill="black"/>
<path d="M47.575 36.2311C47.4372 36.2311 47.299 36.18 47.1917 36.0777C46.97 35.8655 46.9617 35.5138 47.1733 35.2922C47.5488 34.8989 47.9067 34.4522 48.2378 33.964C48.4106 33.7089 48.7562 33.644 49.0095 33.815C49.2639 33.9879 49.3299 34.3328 49.1584 34.5867C48.7928 35.1267 48.3955 35.6217 47.9779 36.0589C47.8679 36.1733 47.7217 36.2311 47.575 36.2311Z" fill="black"/>
<path d="M50.175 31.9519C50.1089 31.9519 50.0422 31.9402 49.9772 31.9157C49.69 31.8064 49.5472 31.4852 49.6561 31.1985C49.9588 30.4063 50.2044 29.5679 50.3861 28.7079C51.1244 24.3342 48.6506 21.4333 45.8232 20.8408C45.5226 20.778 45.3304 20.4836 45.3936 20.1831C45.4565 19.882 45.752 19.691 46.0514 19.7536C49.398 20.4552 52.3376 23.8275 51.478 28.9152C51.2803 29.8547 51.0174 30.7486 50.6946 31.5948C50.6095 31.816 50.3984 31.952 50.1749 31.952L50.175 31.9519Z" fill="black"/>
<path d="M16.64 43.597C14.5306 43.597 12.5827 42.386 11.6625 40.4432C10.3614 37.6972 11.5375 34.4037 14.2842 33.102C16.752 31.9321 19.7442 32.7675 21.2438 35.0454C21.4128 35.3016 21.3416 35.646 21.0854 35.8147C20.8293 35.9837 20.4844 35.9131 20.3161 35.6564C19.1188 33.8392 16.73 33.1736 14.7598 34.1058C12.5671 35.1451 11.6282 37.7752 12.6666 39.9678C13.476 41.6762 15.2777 42.6729 17.157 42.4556C17.4597 42.4179 17.7376 42.6373 17.7737 42.9423C17.8098 43.2473 17.5914 43.5233 17.287 43.559C17.0701 43.5842 16.8539 43.5969 16.6401 43.5969L16.64 43.597Z" fill="black"/>
<path d="M34.3695 34.1952C34.304 34.1952 34.2379 34.1835 34.1729 34.1591C33.8857 34.0507 33.7418 33.7302 33.8507 33.4429C34.279 32.3129 34.2301 31.0891 33.7128 29.9974C32.6739 27.8041 30.0445 26.8658 27.8511 27.9042C26.1195 28.7246 25.1223 30.5515 25.37 32.4496C25.4094 32.7541 25.195 33.0324 24.8905 33.0719C24.591 33.1119 24.3077 32.898 24.2678 32.593C23.9584 30.2153 25.2068 27.9276 27.3751 26.8997C30.1218 25.5991 33.4146 26.7747 34.7163 29.5214C35.3646 30.8881 35.4258 32.4209 34.8892 33.8364C34.8052 34.0586 34.5941 34.1952 34.3696 34.1952L34.3695 34.1952Z" fill="black"/>
<path d="M25.2691 42.9706C24.6441 42.9706 24.0175 42.8633 23.4119 42.6467C22.0252 42.1511 20.9146 41.1462 20.2841 39.815C19.6536 38.4844 19.579 36.9883 20.0746 35.6021C20.5696 34.2154 21.5752 33.1044 22.9057 32.4743C25.6524 31.1721 28.9457 32.3482 30.2474 35.0961C30.8779 36.4266 30.9524 37.9227 30.4568 39.3094C29.9619 40.6955 28.9563 41.8066 27.6258 42.4367C26.876 42.792 26.0742 42.9704 25.2692 42.9704L25.2691 42.9706ZM25.2626 33.0522C24.6199 33.0522 23.9792 33.195 23.3814 33.4784C22.3193 33.9816 21.5164 34.869 21.1209 35.9756C20.7258 37.0829 20.7852 38.2779 21.2887 39.3395V39.34C21.7919 40.4022 22.6786 41.2044 23.7859 41.5999C24.8932 41.995 26.0875 41.9356 27.1498 41.4328C28.2127 40.9295 29.0149 40.0422 29.4104 38.9355C29.8054 37.8289 29.746 36.634 29.2426 35.5711C28.7394 34.509 27.8527 33.706 26.7454 33.3112C26.2615 33.1384 25.7615 33.0522 25.2626 33.0522Z" fill="black"/>
<path d="M39.3787 40.2561C39.3376 40.2561 39.2959 40.2517 39.2537 40.2423C38.9543 40.1734 38.7676 39.8756 38.8366 39.5767C39.0599 38.6039 38.9521 37.6129 38.5237 36.7089C37.4853 34.5167 34.8571 33.5784 32.6621 34.6157C31.7565 35.0452 31.0437 35.7457 30.6015 36.6424C30.4655 36.9174 30.1321 37.0307 29.8577 36.8946C29.5821 36.7591 29.4694 36.4257 29.6054 36.1508C30.16 35.0274 31.052 34.1497 32.1865 33.6124C34.9353 32.309 38.2269 33.4869 39.5277 36.2341C40.0643 37.3653 40.1994 38.6075 39.9193 39.8258C39.8604 40.0821 39.6315 40.2561 39.3787 40.2561Z" fill="black"/>
<path d="M38.6004 50.1209C36.5965 50.1209 34.6833 49.0198 33.7084 47.1052C33.5689 46.832 33.6773 46.4968 33.9512 46.358C34.2251 46.2174 34.5596 46.3269 34.6984 46.6008C35.7861 48.7364 38.3351 49.6031 40.503 48.578C42.6957 47.5391 43.6347 44.9097 42.5963 42.7164C42.093 41.6542 41.2056 40.8519 40.099 40.4564C38.9918 40.0614 37.7979 40.1203 36.7346 40.6236C35.8412 41.0474 35.1335 41.7369 34.689 42.6181C34.5507 42.8913 34.2174 43.0025 33.9429 42.8637C33.669 42.7258 33.559 42.3915 33.6973 42.1176C34.2535 41.0137 35.1395 40.1498 36.259 39.6199C37.5891 38.9882 39.0862 38.9143 40.4719 39.4099C41.8586 39.9055 42.9696 40.9104 43.5997 42.2416C44.9013 44.9877 43.7252 48.2812 40.9779 49.582C40.2063 49.9474 39.3964 50.1208 38.6008 50.1208L38.6004 50.1209Z" fill="black"/>
<path d="M16.5471 33.6835C16.4488 33.6835 16.3493 33.6575 16.2587 33.6025C12.551 31.3491 10.3782 27.83 9.80032 23.1433C9.76305 22.8388 9.9792 22.5616 10.2837 22.5239C10.5915 22.4884 10.8659 22.7027 10.9032 23.0073C11.4449 27.4006 13.3854 30.5556 16.8361 32.6535C17.0983 32.813 17.1817 33.1547 17.0221 33.4169C16.9177 33.5884 16.7349 33.6835 16.5471 33.6835L16.5471 33.6835Z" fill="black"/>
<path d="M7.58664 42.1871C7.47157 42.1871 7.35894 42.1521 7.26437 42.0838C7.14328 41.9977 7.06157 41.866 7.03829 41.7193C6.70724 39.6477 7.22661 37.8955 8.58321 36.4964C6.76988 35.7819 5.57329 34.4002 5.01988 32.377C4.98049 32.2331 5.00051 32.0802 5.07538 31.9508C5.15041 31.8226 5.27378 31.7292 5.41815 31.6919C9.32194 30.6919 13.0065 30.938 16.3727 32.4202C16.5355 32.4918 16.6538 32.6375 16.6916 32.8108L16.7388 33.0302C16.8037 33.3302 16.6133 33.6258 16.3132 33.6907C16.0348 33.7518 15.7593 33.5908 15.6698 33.3279C12.7707 32.1149 9.61145 31.8804 6.26561 32.631C6.87124 34.276 8.03499 35.2887 9.80957 35.7194C10.0168 35.7693 10.1768 35.9339 10.2218 36.1422C10.2668 36.35 10.1885 36.566 10.0207 36.6972C8.58284 37.8211 7.94059 39.2244 8.06788 40.973C9.45397 40.6846 10.7484 40.2569 11.9229 39.697C12.2007 39.5669 12.5313 39.6825 12.6634 39.9603C12.7951 40.237 12.6779 40.5688 12.4006 40.7009C10.974 41.3804 9.38673 41.877 7.68348 42.1781C7.65125 42.1839 7.61903 42.1867 7.5868 42.1867L7.58664 42.1871Z" fill="black"/>
<path d="M16.5651 33.6735C16.374 33.6735 16.1884 33.5752 16.0851 33.3984C16.0045 33.2606 15.929 33.1178 15.859 32.9712C14.5579 30.2235 15.7335 26.9299 18.4801 25.6291C21.2273 24.3275 24.5205 25.5041 25.8217 28.2509C25.9384 28.4976 26.0384 28.7552 26.1173 29.0158C26.2062 29.3098 26.0406 29.6196 25.7467 29.7092C25.4506 29.7981 25.1422 29.6325 25.0533 29.3386C24.99 29.1298 24.9106 28.9235 24.8172 28.7265C23.7782 26.5338 21.1489 25.5932 18.9555 26.6332C16.7628 27.6721 15.8233 30.3015 16.8622 32.4949C16.9177 32.6121 16.9783 32.7265 17.0434 32.8372C17.1983 33.1021 17.1095 33.4422 16.8445 33.5971C16.7568 33.6493 16.6601 33.6737 16.5651 33.6737L16.5651 33.6735Z" fill="black"/>
<path d="M21.9505 50.0248C19.8855 50.0248 17.9016 48.8597 16.9605 46.8726C16.3304 45.542 16.2554 44.0459 16.751 42.6597C17.2466 41.273 18.2515 40.162 19.582 39.5319C19.9421 39.3609 20.3221 39.2292 20.711 39.1392C21.007 39.0692 21.3081 39.2564 21.3771 39.5559C21.446 39.8547 21.2593 40.153 20.9605 40.222C20.6494 40.2936 20.346 40.3993 20.0583 40.5353C18.9955 41.0386 18.1928 41.926 17.7977 43.0326C17.4022 44.1398 17.4621 45.3348 17.9649 46.397C18.4681 47.4592 19.3548 48.2614 20.4621 48.6569C21.5694 49.0513 22.7637 48.9925 23.8265 48.4898C24.4416 48.1986 24.966 47.7831 25.3859 47.2543C25.5765 47.0137 25.926 46.9743 26.1665 47.1647C26.4071 47.3558 26.4465 47.7053 26.256 47.9453C25.7293 48.6081 25.0721 49.1292 24.3028 49.4932C23.5422 49.8547 22.7401 50.0246 21.9505 50.0246L21.9505 50.0248Z" fill="black"/>
<path d="M29.7863 50.1291C27.7214 50.1291 25.7375 48.964 24.7963 46.9769C24.0691 45.4414 24.0852 43.6875 24.8412 42.164C24.9779 41.8889 25.3106 41.7761 25.5857 41.9135C25.8608 42.0495 25.9729 42.3835 25.8368 42.6579C25.233 43.8746 25.2197 45.2758 25.8007 46.5019C26.8396 48.6941 29.4674 49.6324 31.6624 48.5951C32.724 48.0919 33.5268 47.2045 33.9223 46.0979C34.3178 44.9906 34.2579 43.7956 33.7551 42.7334C33.0185 41.1796 31.4423 40.1828 29.7107 40.2162C29.3891 40.2123 29.1513 39.9751 29.1467 39.669C29.1424 39.3617 29.3878 39.1096 29.694 39.105C31.8556 39.0751 33.8362 40.3117 34.7585 42.2584C35.3891 43.5889 35.4636 45.085 34.968 46.4717C34.4731 47.8578 33.468 48.9689 32.137 49.599C31.3782 49.9584 30.5759 50.1289 29.7866 50.1289L29.7863 50.1291Z" fill="black"/>
</g>
<defs>
<clipPath id="clip0_10831_998">
<rect width="50" height="50" fill="white" transform="translate(5 5)"/>
</clipPath>
</defs>
</svg>
