<svg width="24" height="24" viewBox="0 0 24 24" fill="none" xmlns="http://www.w3.org/2000/svg">
<g clip-path="url(#clip0_36_3710)">
<path fill-rule="evenodd" clip-rule="evenodd" d="M5 4.71256C5 3.21446 6.0695 2 7.38879 2H16.6112C17.9305 2 19 3.21445 19 4.71256V7.89746C19 12.0279 16.2256 15.4226 12.6774 15.8095V20.4615H15.3871C15.7612 20.4615 16.0645 20.8059 16.0645 21.2308C16.0645 21.6556 15.7612 22 15.3871 22H8.6129C8.23877 22 7.93548 21.6556 7.93548 21.2308C7.93548 20.8059 8.23877 20.4615 8.6129 20.4615H11.3226V15.8095C7.77444 15.4226 5 12.0279 5 7.89746V4.71256ZM7.38879 3.53847C6.81776 3.53847 6.35484 4.06413 6.35484 4.71256V7.89746C6.35484 7.9276 6.35502 7.95769 6.35539 7.98773C6.53799 7.90723 6.76168 7.81259 7.00948 7.71616C7.64928 7.46717 8.51186 7.18114 9.24874 7.12967C10.5753 7.03703 11.5323 7.69897 12.3096 8.23654C12.3239 8.24641 12.3381 8.25624 12.3522 8.26603C13.1637 8.82693 13.7923 9.24213 14.6681 9.18096C15.2128 9.14293 15.9308 8.91614 16.5513 8.67468C16.8532 8.55719 17.1173 8.44215 17.3056 8.35658C17.3996 8.31388 17.4743 8.27873 17.5248 8.25455C17.5501 8.24247 17.5693 8.23315 17.5818 8.22702L17.5956 8.22027L17.5986 8.21879C17.6118 8.2122 17.6256 8.20592 17.639 8.20036C17.6431 8.09998 17.6452 7.99899 17.6452 7.89746V4.71256C17.6452 4.06413 17.1822 3.53847 16.6112 3.53847H7.38879ZM17.3375 9.99017C16.5736 12.5029 14.4724 14.3077 12 14.3077C9.38802 14.3077 7.19037 12.2934 6.5461 9.55807C6.58776 9.53853 6.63755 9.51546 6.69441 9.48962C6.88275 9.40406 7.14683 9.28901 7.44872 9.17153C8.06918 8.93007 8.78724 8.70328 9.33191 8.66524C10.2077 8.60408 10.8363 9.01927 11.6478 9.58018C11.6619 9.58996 11.6761 9.59979 11.6904 9.60966C12.4677 10.1472 13.4247 10.8092 14.7513 10.7165C15.4881 10.6651 16.3507 10.379 16.9905 10.13C17.1127 10.0825 17.2291 10.0354 17.3375 9.99017Z" fill="#C7C7C7"/>
</g>
<defs>
<clipPath id="clip0_36_3710">
<rect width="24" height="24" fill="white"/>
</clipPath>
</defs>
</svg>
