<svg width="30" height="30" viewBox="0 0 30 30" fill="none" xmlns="http://www.w3.org/2000/svg">
<g clip-path="url(#clip0_560_2312)">
<path d="M6.25 5.02633C6.25 3.63108 7.31038 2.5 8.61842 2.5H21.3816C22.6896 2.5 23.75 3.63107 23.75 5.02632V9.16669C23.75 9.27826 23.7482 9.38937 23.7445 9.49999C23.629 9.50065 23.5117 9.52419 23.3982 9.57314L23.3936 9.57512L23.3727 9.58399C23.3537 9.59202 23.3248 9.60416 23.2869 9.61987C23.2109 9.65131 23.099 9.69695 22.9582 9.75235C22.6762 9.86333 22.2806 10.0126 21.8283 10.165C20.9024 10.477 19.8176 10.7751 18.9856 10.8254C17.6304 10.9074 16.661 10.3474 15.4591 9.62789L15.4053 9.59571C14.2389 8.89718 12.8423 8.06076 10.9087 8.17771C9.8307 8.24292 8.55976 8.60681 7.60732 8.92782C7.12052 9.09188 6.6963 9.25195 6.39338 9.37114C6.34337 9.39082 6.2966 9.40941 6.25333 9.42675C6.25112 9.34035 6.25 9.25366 6.25 9.16669V5.02633Z" fill="#45080D"/>
<path d="M6.51585 11.459C7.39958 15.1921 10.392 18.0301 14.0625 18.4471V25.5H10C9.48223 25.5 9.0625 25.9477 9.0625 26.5C9.0625 27.0523 9.48223 27.5 10 27.5H20C20.5178 27.5 20.9375 27.0523 20.9375 26.5C20.9375 25.9477 20.5178 25.5 20 25.5H15.9375V18.4471C19.5286 18.0391 22.4706 15.3138 23.4238 11.7001C23.1425 11.8083 22.7885 11.9389 22.3932 12.0721C21.4407 12.3931 20.1698 12.757 19.0918 12.8222C17.1582 12.9391 15.7616 12.1027 14.5952 11.4042L14.5414 11.372C13.3395 10.6525 12.3701 10.0925 11.0149 10.1745C10.1829 10.2248 9.09805 10.5229 8.17223 10.8349C7.71989 10.9873 7.32434 11.1366 7.04228 11.2476C6.90148 11.303 6.78955 11.3486 6.71363 11.38C6.67569 11.3957 6.64678 11.4079 6.62782 11.4159L6.60694 11.4248L6.60232 11.4268C6.5737 11.4391 6.54485 11.4498 6.51585 11.459Z" fill="#45080D"/>
</g>
<defs>
<clipPath id="clip0_560_2312">
<rect width="30" height="30" fill="white"/>
</clipPath>
</defs>
</svg>
