<svg width="98" height="112" viewBox="0 0 98 112" fill="none" xmlns="http://www.w3.org/2000/svg">
<path d="M14.8955 11.8223C15.1294 10.8184 16.1073 10.17 17.1201 10.3457H17.1221L45.3691 15.3799L45.3682 15.3809C46.4016 15.5478 47.113 16.4937 47.0049 17.5332V17.5352L41.918 64.2656L41.917 64.2822L41.9141 64.2979C41.0394 69.2556 38.3017 73.6797 34.2656 76.6504L34.2646 76.6494C30.3632 79.5246 25.536 80.8165 20.7451 80.2852L16.25 106.275C20.6911 107.163 25.008 108.601 29.1074 110.549L28.8428 111.498C24.5594 111.075 18.6663 109.993 14.4414 109.191H14.4404C10.2434 108.391 4.26586 107.47 0.125977 106.387L0.207031 105.405C4.72976 104.987 9.28893 105.132 13.7803 105.839L18.3232 79.8389C13.6343 78.6775 9.53578 75.7913 6.84277 71.7354C4.05635 67.5464 2.98573 62.4349 3.85547 57.4678L3.85742 57.4521L3.86133 57.4365L14.8955 11.8223ZM80.458 10.3447C81.4723 10.169 82.4471 10.8194 82.6855 11.8213H82.6865L93.7207 57.4365L93.7246 57.4521L93.7275 57.4678C94.5654 62.2841 93.581 67.2315 90.9854 71.3447L90.7295 71.7402C88.0274 75.7961 83.9235 78.6822 79.2295 79.8389L83.7246 105.838C88.2113 105.131 92.7708 104.986 97.2988 105.404L97.3799 106.386C93.2354 107.47 87.3021 108.488 83.0537 109.192C78.8263 109.893 72.9373 111.075 68.6631 111.497L68.3994 110.548C72.513 108.595 76.8433 107.161 81.3027 106.274L76.8076 80.2842C72.0172 80.8152 67.1897 79.5245 63.2881 76.6494C59.2521 73.6784 56.5154 69.255 55.6406 64.2979L55.6377 64.2812L55.6357 64.2656L50.4873 17.5352L50.4863 17.5322C50.3782 16.4928 51.0899 15.547 52.123 15.3799V15.3789L80.4561 10.3447H80.458ZM42.1924 39.9346C37.121 39.0694 31.9219 39.2748 26.9268 40.5381H26.9258C21.4966 41.9086 15.8426 42.0997 10.334 41.1104L6.23047 57.9502C4.62133 67.2123 10.728 76.0417 19.8857 77.7188L19.9424 77.7295C29.1137 79.3515 37.8658 73.1833 39.5166 63.9277L42.1924 39.9346ZM70.7227 40.4893C65.7262 39.2258 60.5306 39.0209 55.4541 39.8867L57.9824 63.4268L58.0479 63.418L58.1328 63.8965C59.7762 73.1751 68.5667 79.3479 77.749 77.6875L78.1777 77.6045C87.1244 75.7556 93.0335 67.0276 91.417 57.8965L87.3145 41.0576C81.8102 42.0467 76.1525 41.8558 70.7236 40.4902L70.7227 40.4893ZM10.915 38.7119C16.0497 39.625 21.3222 39.4401 26.3877 38.1582C31.6235 36.8222 37.0736 36.5809 42.4023 37.4326L44.5498 17.7324L17.1641 12.918L10.915 38.7119ZM53.002 17.7314L55.1504 37.4932C60.4741 36.6229 65.9229 36.8461 71.1631 38.1582H71.1621C76.2332 39.422 81.5023 39.5884 86.6367 38.6523L80.3887 12.8613L53.002 17.7314ZM39.6729 4.15918C40.0959 3.74764 40.743 3.69844 41.2178 4.02539L41.3105 4.0957L41.3291 4.11133L41.3457 4.12793L45.4531 8.31055C45.9257 8.78728 45.9222 9.55857 45.457 10.0361L45.4561 10.0352C45.2327 10.2717 44.9223 10.4031 44.5957 10.3984V10.3994C44.5938 10.3994 44.5918 10.3984 44.5898 10.3984C44.5876 10.3984 44.5853 10.3995 44.583 10.3994V10.3984C44.2582 10.3952 43.9547 10.2665 43.7256 10.0508L43.7119 10.0371L39.6025 5.84277L39.584 5.82422L39.5674 5.80371C39.1767 5.31067 39.2288 4.59913 39.6699 4.16211L39.6729 4.15918ZM56.4541 3.23828C56.7451 3.20171 57.0263 3.27571 57.2578 3.41992L57.3545 3.48535L57.3682 3.49609L57.3818 3.50781C57.8596 3.92553 57.9493 4.6411 57.5869 5.16113L57.5801 5.1709L57.5723 5.18066L54.0049 9.79492L54.0039 9.79395C53.7768 10.0931 53.4219 10.2744 53.0439 10.2744C52.7711 10.2744 52.5117 10.185 52.2969 10.0303L52.2842 10.0205L52.2725 10.0107C51.7602 9.59088 51.6617 8.83186 52.0723 8.2959L52.0742 8.29297L55.6426 3.70312C55.8445 3.43675 56.1446 3.27904 56.4521 3.23926L56.4541 3.23828ZM49.7793 7.55469L49.7754 7.58594C49.6959 8.20313 49.1761 8.66982 48.5518 8.66992C47.9246 8.66992 47.403 8.20519 47.3232 7.58594L47.3184 7.55469V1.61523L47.3232 1.58301C47.4029 0.97196 47.9219 0.5 48.5518 0.5C49.1788 0.500104 49.696 0.974081 49.7754 1.58301L49.7793 1.61523V7.55469Z" fill="#121214" stroke="#121214"/>
</svg>
