<svg width="61" height="60" viewBox="0 0 61 60" fill="none" xmlns="http://www.w3.org/2000/svg">
<rect x="1" y="0.5" width="59" height="59" rx="17.5" fill="white"/>
<rect x="1" y="0.5" width="59" height="59" rx="17.5" stroke="#D0D5DD"/>
<g clip-path="url(#clip0_166_6202)">
<path fill-rule="evenodd" clip-rule="evenodd" d="M42.02 30.2728C42.02 29.4219 41.9436 28.6037 41.8018 27.8182H30.5V32.4601H36.9582C36.68 33.9601 35.8345 35.231 34.5636 36.0819V39.0928H38.4418C40.7109 37.0037 42.02 33.9273 42.02 30.2728Z" fill="#121214"/>
<path fill-rule="evenodd" clip-rule="evenodd" d="M30.5 42C33.74 42 36.4564 40.9255 38.4418 39.0928L34.5636 36.0818C33.4891 36.8018 32.1145 37.2273 30.5 37.2273C27.3745 37.2273 24.7291 35.1164 23.7855 32.28H19.7764V35.3891C21.7509 39.3109 25.8091 42 30.5 42Z" fill="#121214"/>
<path fill-rule="evenodd" clip-rule="evenodd" d="M23.7855 32.2801C23.5455 31.5601 23.4091 30.791 23.4091 30.0001C23.4091 29.2091 23.5455 28.4401 23.7855 27.7201V24.611H19.7764C18.9636 26.231 18.5 28.0637 18.5 30.0001C18.5 31.9364 18.9636 33.7691 19.7764 35.3891L23.7855 32.2801Z" fill="#121214"/>
<path fill-rule="evenodd" clip-rule="evenodd" d="M30.5 22.7727C32.2618 22.7727 33.8436 23.3782 35.0873 24.5673L38.5291 21.1255C36.4509 19.1891 33.7345 18 30.5 18C25.8091 18 21.7509 20.6891 19.7764 24.6109L23.7855 27.72C24.7291 24.8836 27.3745 22.7727 30.5 22.7727Z" fill="#121214"/>
</g>
<defs>
<clipPath id="clip0_166_6202">
<rect width="24" height="24" fill="white" transform="translate(18.5 18)"/>
</clipPath>
</defs>
</svg>
