<svg width="14" height="14" viewBox="0 0 14 14" fill="none" xmlns="http://www.w3.org/2000/svg">
<path d="M13.5184 7.16004C13.5184 6.65924 13.4737 6.18004 13.3908 5.71924H6.96948V8.35924L10.6676 8.36004C10.5176 9.23844 10.0349 9.98724 9.29528 10.4864V12.1992H11.4966C12.782 11.0064 13.5184 9.24324 13.5184 7.16004Z" fill="#4285F4"/>
<path d="M9.29618 10.4865C8.68342 10.9009 7.89432 11.1433 6.97118 11.1433C5.18794 11.1433 3.67517 9.93845 3.13341 8.31445H0.862671V10.0809C1.98767 12.3193 4.29991 13.8553 6.97118 13.8553C8.81746 13.8553 10.3685 13.2465 11.4975 12.1985L9.29618 10.4865Z" fill="#34A853"/>
<path d="M2.91952 7.00387C2.91952 6.54787 2.99532 6.10707 3.13335 5.69267V3.92627H0.862603C0.397443 4.85187 0.135742 5.89667 0.135742 7.00387C0.135742 8.11107 0.398241 9.15587 0.862603 10.0815L3.13335 8.31507C2.99532 7.90067 2.91952 7.45987 2.91952 7.00387Z" fill="#FABB05"/>
<path d="M6.97118 2.86434C7.97889 2.86434 8.88129 3.21234 9.59379 3.89234L11.5446 1.93794C10.3597 0.831544 8.81506 0.152344 6.97118 0.152344C4.3007 0.152344 1.98767 1.68834 0.862671 3.92674L3.13341 5.69314C3.67517 4.06914 5.18794 2.86434 6.97118 2.86434Z" fill="#E94235"/>
</svg>
