<svg width="30" height="30" viewBox="0 0 30 30" fill="none" xmlns="http://www.w3.org/2000/svg">
<path d="M12.031 18.9503C11.6441 18.6635 11.0979 18.7447 10.8111 19.1316C10.5243 19.5185 10.6055 20.0647 10.9924 20.3515C12.1231 21.1896 13.5059 21.6858 15.0001 21.6858C16.4942 21.6858 17.8771 21.1896 19.0078 20.3515C19.3947 20.0647 19.4759 19.5185 19.1891 19.1316C18.9023 18.7447 18.3561 18.6635 17.9691 18.9503C17.1222 19.5781 16.1 19.9416 15.0001 19.9416C13.9002 19.9416 12.8779 19.5781 12.031 18.9503Z" fill="#C7C7C7"/>
<path fill-rule="evenodd" clip-rule="evenodd" d="M15 2.5C14.1569 2.5 13.3877 2.73153 12.5457 3.12454C11.7306 3.50498 10.788 4.06646 9.60678 4.77015L7.91421 5.77841C6.61292 6.55356 5.57599 7.17124 4.79087 7.76191C3.98039 8.37166 3.37208 8.99954 2.97566 9.82642C2.57905 10.6537 2.47156 11.5195 2.50604 12.53C2.53941 13.5082 2.71052 14.6973 2.92507 16.1883L3.26502 18.5508C3.54105 20.4693 3.7601 21.9917 4.08734 23.1769C4.42469 24.3987 4.90332 25.3685 5.76703 26.1122C6.63004 26.8553 7.6626 27.1877 8.92598 27.3462C10.153 27.5 11.7009 27.5 13.6538 27.5H16.3461C18.299 27.5 19.847 27.5 21.074 27.3462C22.3374 27.1877 23.37 26.8553 24.233 26.1122C25.0967 25.3685 25.5753 24.3987 25.9127 23.1769C26.2399 21.9917 26.4589 20.4693 26.735 18.5508L27.0749 16.1882C27.2895 14.6973 27.4606 13.5082 27.494 12.53C27.5284 11.5195 27.4209 10.6537 27.0243 9.82642C26.6279 8.99954 26.0196 8.37166 25.2091 7.76191C24.424 7.17124 23.3871 6.55356 22.0858 5.77841L20.3932 4.77015C19.212 4.06646 18.2694 3.50498 17.4543 3.12454C16.6123 2.73153 15.8431 2.5 15 2.5ZM10.46 6.29211C11.6896 5.55961 12.5572 5.04397 13.2834 4.70504C13.9916 4.37446 14.5009 4.24419 15 4.24419C15.4991 4.24419 16.0084 4.37446 16.7166 4.70504C17.4428 5.04396 18.3104 5.5596 19.54 6.2921L21.1503 7.25134C22.5042 8.05782 23.4595 8.6283 24.1605 9.1557C24.8448 9.67049 25.2195 10.0964 25.4516 10.5804C25.6834 11.064 25.7798 11.6202 25.7508 12.4706C25.721 13.3425 25.5647 14.4376 25.3414 15.9896L25.0172 18.2423C24.7306 20.2344 24.5257 21.6468 24.2314 22.7127C23.9437 23.7545 23.5975 24.3577 23.0949 24.7905C22.5915 25.2239 21.939 25.4798 20.857 25.6155C19.7511 25.7542 18.3125 25.7558 16.2861 25.7558H13.7139C11.6875 25.7558 10.2489 25.7542 9.14302 25.6155C8.06099 25.4798 7.40847 25.2239 6.90513 24.7905C6.40249 24.3577 6.05625 23.7545 5.76862 22.7127C5.47431 21.6468 5.26942 20.2344 4.98278 18.2423L4.65864 15.9896C4.43532 14.4376 4.27896 13.3425 4.24921 12.4706C4.22019 11.6202 4.31662 11.064 4.54845 10.5804C4.78048 10.0964 5.1552 9.67049 5.83946 9.1557C6.54048 8.6283 7.49585 8.05782 8.8497 7.25134L10.46 6.29211Z" fill="#C7C7C7"/>
</svg>
