<svg width="26" height="26" viewBox="0 0 26 26" fill="none" xmlns="http://www.w3.org/2000/svg">
<path fill-rule="evenodd" clip-rule="evenodd" d="M14.3826 25.5H11.6174C7.30921 25.5 5.15512 25.5 3.68628 24.2352C2.21745 22.9705 1.91282 20.8533 1.30355 16.619L0.95509 14.1973C0.480785 10.901 0.243632 9.25286 0.919208 7.84368C1.59478 6.4345 3.03274 5.57792 5.90864 3.86476L7.63969 2.83359C10.2513 1.27786 11.5571 0.5 13 0.5C14.4429 0.5 15.7487 1.27786 18.3603 2.83359L20.0914 3.86476C22.9673 5.57792 24.4052 6.4345 25.0808 7.84368C25.7564 9.25286 25.5192 10.901 25.0449 14.1973L24.6965 16.619C24.0872 20.8533 23.7825 22.9705 22.3137 24.2352C20.8449 25.5 18.6908 25.5 14.3826 25.5ZM8.49697 17.4415C8.80529 17.0255 9.39243 16.9383 9.80839 17.2466C10.7188 17.9214 11.8177 18.3122 13.0001 18.3122C14.1825 18.3122 15.2814 17.9214 16.1919 17.2466C16.6078 16.9383 17.195 17.0255 17.5033 17.4415C17.8116 17.8574 17.7243 18.4446 17.3084 18.7529C16.0929 19.6539 14.6063 20.1872 13.0001 20.1872C11.3939 20.1872 9.90737 19.6539 8.69186 18.7529C8.2759 18.4446 8.18865 17.8574 8.49697 17.4415Z" fill="#45080D"/>
</svg>
