<svg width="62" height="60" viewBox="0 0 62 60" fill="none" xmlns="http://www.w3.org/2000/svg">
<path d="M49.8573 0C50.496 0.00014738 51.0648 0.391899 51.301 0.983549L59.5272 21.4951L59.529 21.5003C59.7141 21.9794 59.652 22.5238 59.3767 22.9477C59.0932 23.3842 58.6022 23.647 58.0818 23.647H57.7738C56.3916 23.6926 55.6067 24.2518 54.7115 25.0509V33.9621C59.1699 36.3437 61.9998 41.0287 61.9998 46.1832C61.9998 53.7967 55.8794 59.9996 48.3419 60C44.0724 60 40.0989 57.9915 37.5311 54.5957H6.48627C5.6172 54.5957 4.92928 53.8868 4.92886 53.028V25.0578C4.04033 24.2595 3.24692 23.6928 1.83155 23.647H1.35033L1.32934 23.6279C0.895495 23.563 0.511354 23.3185 0.267151 22.9565C-0.0209037 22.529 -0.0829459 21.9765 0.114911 21.4916L8.33765 0.983549C8.57386 0.391645 9.14416 0 9.78306 0H49.8573ZM48.3419 35.5037C42.5425 35.5037 37.8041 40.288 37.8041 46.1902C37.8041 46.5132 37.8184 46.8357 37.8443 47.1511C37.9286 48.1052 38.141 49.0271 38.4708 49.9186L38.7105 50.5046C38.8808 50.8899 39.0709 51.2647 39.281 51.6241L39.6117 52.1525C41.5736 55.1098 44.8339 56.8697 48.3419 56.8697C54.1483 56.8694 58.885 52.0848 58.885 46.1902L58.878 45.7908C58.7275 41.6853 56.2626 38.0242 52.5294 36.3809C52.2308 36.2533 51.9422 36.1365 51.6527 36.0408C51.0569 35.8439 50.4481 35.6984 49.8328 35.6066C49.5277 35.5615 49.218 35.5361 48.8984 35.5159C48.7192 35.5094 48.5297 35.5037 48.3419 35.5037ZM38.8873 23.6505C38.8445 23.6553 38.7906 23.6601 38.7333 23.6645C37.3404 23.7854 36.5686 24.4579 35.5642 25.3787C34.3065 26.5273 32.7726 27.937 29.8158 27.937C27.229 27.9369 25.7275 26.8583 24.5539 25.8234L24.0692 25.3857C23.0794 24.4793 22.317 23.8176 20.9386 23.6784H20.9316L20.5956 23.647H20.2072L19.9237 23.6645C18.7308 23.7696 17.9998 24.2932 17.1764 25.0264L16.7879 25.3787C15.5301 26.5273 13.9963 27.937 11.0395 27.937C10.6654 27.937 10.315 27.9155 9.98255 27.8707C9.8531 27.854 9.7329 27.8296 9.63432 27.8097C9.44984 27.7814 9.24431 27.7439 9.05161 27.6894C8.92403 27.6551 8.80347 27.6173 8.68063 27.5743C8.52949 27.5284 8.3752 27.4759 8.22566 27.4121C8.16596 27.3883 8.10825 27.3589 8.05067 27.3336V51.4445H35.7322C35.6722 51.3007 35.613 51.1555 35.559 51.0085C34.9797 49.4681 34.691 47.8409 34.691 46.1762C34.6915 38.5635 40.8107 32.3525 48.3419 32.3525L49.0384 32.3664L49.0524 32.3682C49.233 32.3789 49.4144 32.3921 49.5949 32.41L50.1356 32.4746L50.1443 32.4763C50.1886 32.4832 50.2333 32.4904 50.2773 32.4972C50.3213 32.5041 50.365 32.5114 50.4086 32.5182H50.4156C50.741 32.573 51.0775 32.6314 51.4165 32.7117C51.4235 32.7129 51.4361 32.7158 51.4497 32.7187C51.4575 32.7204 51.4661 32.7232 51.476 32.7257L51.5967 32.7571V27.3162C51.5691 27.3281 51.5426 27.3432 51.5145 27.3545L51.5127 27.3528C51.3359 27.4296 51.1561 27.4907 51.0018 27.5429C50.9565 27.5583 50.7967 27.6202 50.6658 27.6545L50.6675 27.6562C50.6654 27.6568 50.6627 27.6556 50.6605 27.6562L50.6553 27.6597L50.6535 27.658C50.4363 27.7177 50.2108 27.7626 49.9991 27.8027L49.9746 27.8079C49.9426 27.8125 49.9114 27.8183 49.8661 27.8271C49.8236 27.8354 49.7661 27.846 49.7033 27.855L49.6946 27.8568C49.357 27.9003 48.9934 27.93 48.5992 27.93C47.901 27.93 47.2837 27.8472 46.7233 27.7103H46.7023L46.6358 27.6928C46.3529 27.6194 46.0682 27.5293 45.8081 27.4208C45.6111 27.3387 45.4148 27.2457 45.2219 27.1453H45.2044L45.0836 27.079C44.6499 26.8413 44.2581 26.5746 43.9007 26.2873C43.8927 26.2817 43.8847 26.2789 43.8797 26.2751C43.8731 26.2701 43.8678 26.264 43.8622 26.2594C43.7656 26.1838 43.6588 26.0897 43.6015 26.0414C43.3431 25.8221 43.0923 25.5941 42.856 25.3822L42.8508 25.3787C41.7891 24.4061 40.9922 23.6947 39.3895 23.6401H38.9888C38.9586 23.6426 38.9271 23.6461 38.8873 23.6505ZM3.74769 20.7853C4.95913 21.1265 5.85304 21.7326 6.59476 22.3566L7.40146 23.0768L7.40846 23.0838L7.52745 23.1971L7.87918 23.511C8.681 24.2068 9.37172 24.6528 10.4445 24.7684L10.7263 24.791C10.8238 24.7965 10.9241 24.7997 11.0255 24.7997C11.9157 24.7997 12.5546 24.6044 13.0939 24.3062C13.6497 23.9987 14.1191 23.5744 14.681 23.0611L15.1482 22.6391C16.278 21.6382 17.7123 20.5898 20.1319 20.5115L20.1494 20.5098H20.6831L20.7216 20.515C20.7368 20.5172 20.7508 20.5206 20.7601 20.522C20.7702 20.5235 20.7755 20.5232 20.7794 20.5237H20.7934C23.5102 20.6504 24.9652 21.9744 26.1533 23.0593C26.7161 23.57 27.1878 23.9957 27.7457 24.3045C28.2864 24.6037 28.9235 24.7996 29.8088 24.7997C30.699 24.7997 31.3379 24.6044 31.8772 24.3062C32.4331 23.9987 32.9024 23.5744 33.4643 23.0611L33.9316 22.6391C35.0614 21.6382 36.4957 20.5898 38.9153 20.5115L38.9328 20.5098H39.4665C42.2645 20.5991 43.7439 21.9622 44.9506 23.0593L44.9594 23.0681C45.1536 23.2517 45.3506 23.4187 45.5631 23.6052C45.8874 23.881 46.1874 24.1154 46.5168 24.2992L46.522 24.3027C46.5267 24.3049 46.5332 24.3078 46.5413 24.3115C46.5525 24.3165 46.5726 24.3255 46.5938 24.3359C46.7509 24.4111 46.8438 24.4615 46.9595 24.5085C47.4001 24.6871 47.9221 24.7997 48.5922 24.7997C49.3379 24.7997 49.8861 24.6688 50.3666 24.4492L50.3701 24.4475C50.9593 24.1821 51.4695 23.766 52.1059 23.1901L52.2459 23.0611C53.1478 22.2395 54.2187 21.2533 55.8822 20.7836L48.8057 3.13724H10.833L3.74769 20.7853Z" fill="#121214"/>
</svg>
