<svg width="60" height="100" viewBox="0 0 60 100" fill="none" xmlns="http://www.w3.org/2000/svg">
<g clip-path="url(#clip0_537_7125)">
<path d="M34.629 86.8085C37.882 87.4347 41.198 87.7384 44.3683 88.7561C50.3398 90.6723 52.3101 94.5926 45.572 97.5529C38.0956 100.838 20.191 101.008 13.0566 96.889C8.70486 94.3767 9.65052 91.2144 13.8356 89.3634C17.438 87.7697 21.6046 87.4723 25.4428 86.8085C25.649 86.6215 26.1539 82.7238 26.2119 82.1353C26.6119 78.0142 26.5724 73.4652 26.0736 69.3655C25.928 68.167 25.6724 66.9774 25.4564 65.7928C14.1862 64.4136 4.71729 57.1189 1.3618 45.968C-2.1443 34.3163 1.75191 18.5912 5.858 7.41384C7.09748 4.03943 7.52587 2.79458 11.1394 1.7505C18.1503 -0.27615 29.881 -0.14815 37.2512 0.210749C40.7388 0.38016 49.5139 0.949882 51.9941 3.4032C53.3533 4.74845 55.2817 11.4044 55.9409 13.5578C60.0359 26.9425 63.126 42.0012 54.436 54.2816C50.0781 60.4406 43.8091 63.9029 36.5784 65.4652C36.1932 65.5481 34.6821 65.6597 34.5426 65.9019C33.3204 72.7775 33.2451 79.9505 34.6315 86.8085H34.629ZM50.5102 4.97182C50.8015 4.58155 49.13 3.95033 48.9374 3.8763C46.6473 2.99159 43.4078 2.57246 40.9511 2.34156C33.7364 1.66141 25.2206 1.71662 18.0121 2.46705C15.1257 2.76697 11.6529 3.21246 9.1925 4.78735C9.14188 5.03707 9.28509 4.96805 9.44065 5.0308C12.1752 6.12758 17.6899 6.52412 20.7268 6.72867C26.6329 7.12647 33.0772 7.15784 38.9783 6.72867C42.8511 6.44757 46.7584 5.9682 50.5114 4.97307L50.5102 4.97182ZM51.6176 6.60193C43.2535 8.77791 34.1685 9.12677 25.5317 8.8645C20.6379 8.71517 15.4603 8.29854 10.6517 7.31596C9.99619 7.18169 9.07892 6.80522 8.48264 6.75C8.32585 6.73494 8.26536 6.71487 8.14561 6.84914C7.9345 7.08255 7.29871 9.10795 7.13452 9.58606C1.83833 24.961 -2.98503 46.0909 11.3554 57.9999C20.9095 65.9346 37.2166 66.2132 47.2189 58.9825C56.8372 52.0303 59.0865 40.597 57.6458 29.249C56.6631 21.5101 54.0373 13.9581 51.6163 6.60193H51.6176ZM32.3192 66.0274C30.7464 66.1492 29.0353 65.9371 27.4477 66.0274C28.4477 71.5 28.6415 77.5762 28.0489 83.1241C27.823 85.2386 27.4267 87.8174 26.7415 89.819C26.4489 90.6736 25.807 92.7692 24.5626 91.9661C23.7305 91.429 24.8033 89.7575 24.9687 89.0183C25.0132 88.8188 24.9848 88.8276 24.7959 88.8427C22.7786 89.0058 20.4009 89.4337 18.4207 89.8867C16.9121 90.2318 12.9122 91.2696 12.2097 92.7241C11.5591 94.0718 13.7615 95.21 14.7479 95.6731C21.6725 98.927 36.6253 98.7752 43.7906 96.2428C45.114 95.7747 49.425 94.0241 47.2942 92.1769C45.0325 90.2168 38.2722 89.2769 35.2747 88.8477C35.0216 88.8113 35.1031 88.8075 35.1537 88.9707C35.3969 89.7437 36.5043 91.5344 35.4327 92.01C34.1266 92.5898 33.5241 90.2067 33.2414 89.2869C31.4513 83.4541 31.5118 74.9259 32.1352 68.8509C32.234 67.8872 32.3476 66.8958 32.6254 65.9647C32.5451 65.7689 32.3513 66.0262 32.3192 66.0287V66.0274Z" fill="black"/>
<path d="M47.246 48.7286C46.3225 49.9333 44.3954 50.178 43.2905 49.1075C42.056 47.9129 42.7362 44.5259 43.2325 43.0188C43.451 42.3562 44.0818 40.7499 44.8053 40.5981C46.2361 40.2982 47.2657 43.6324 47.4941 44.7091C47.7521 45.9327 48.0546 47.6732 47.246 48.7286Z" fill="black"/>
<path d="M38.9768 52.7344C38.3089 54.2478 36.7608 51.162 36.3312 50.6663C32.6572 46.4273 27.2351 46.5289 23.6845 50.8558C23.129 51.5322 22.4043 53.4572 21.4846 52.9715C20.3896 52.3943 21.629 50.5822 22.1475 49.9196C23.7784 47.8327 26.2882 46.4913 28.903 46.2566C32.4041 45.9404 35.9645 47.2304 38.0312 50.1907C38.4361 50.7704 39.2867 52.0316 38.9768 52.7344Z" fill="black"/>
<path d="M37.4806 34.1399C36.8176 33.4848 34.8177 30.4756 36.3214 29.9749C37.4942 29.5846 37.5942 31.2022 38.0744 31.9702C39.7793 34.6945 43.8866 34.7284 45.2113 31.6175C45.5113 30.9123 45.4533 29.7214 46.5693 29.9711C47.868 30.2622 46.9039 32.5863 46.4212 33.3493C44.4916 36.3911 39.9571 36.5894 37.4806 34.1411V34.1399Z" fill="black"/>
<path d="M22.7895 30.2012C23.0377 29.9489 23.8364 29.9966 24.1129 30.2388C24.7018 30.7533 24.0191 32.3307 23.6759 32.9193C21.3451 36.9148 15.0946 36.8948 13.2934 32.4612C12.9848 31.702 12.444 30.1234 13.6983 30.0393C14.7773 29.9678 14.6144 30.9968 14.9687 31.761C16.3353 34.7138 20.4167 34.7903 22.0451 32.0132C22.2648 31.638 22.692 30.3003 22.7895 30.2012Z" fill="black"/>
<path d="M13.7921 22.9361C14.2119 22.5069 15.1156 22.714 15.6538 22.6337C17.8118 22.3112 19.9525 21.4001 21.4006 19.6997C21.8611 19.1601 22.7339 17.2778 23.6277 18.3219C24.4709 19.3082 22.4648 21.3838 21.7093 22.0188C19.9488 23.4996 16.7168 24.6766 14.4341 24.4068C13.6428 24.314 13.2144 23.5272 13.7934 22.9348L13.7921 22.9361Z" fill="black"/>
<path d="M46.1569 22.9374C46.7433 23.6677 46.1816 24.314 45.3927 24.4056C42.8829 24.6968 38.9163 22.9437 37.2509 21.0224C36.783 20.4828 35.1473 18.1876 36.6448 18.022C37.7052 17.904 37.6398 18.6632 38.1805 19.3258C39.4027 20.8229 41.2224 21.9523 43.1064 22.3426C43.7965 22.4856 45.8001 22.4919 46.1569 22.9387V22.9374Z" fill="black"/>
</g>
<defs>
<clipPath id="clip0_537_7125">
<rect width="60" height="100" fill="white"/>
</clipPath>
</defs>
</svg>
