<svg width="24" height="24" viewBox="0 0 24 24" fill="none" xmlns="http://www.w3.org/2000/svg">
<path d="M12.5974 21.8004C12.423 21.93 12.2142 21.9997 12 21.9997C11.7858 21.9997 11.577 21.93 11.4026 21.8004C6.25156 17.9758 0.784738 10.1089 6.3113 4.42423C7.82799 2.86875 9.87158 1.99777 12 1.9997C14.1334 1.9997 16.1804 2.87195 17.6887 4.42312C23.2153 10.1078 17.7484 17.9736 12.5974 21.8004Z" stroke="#121214" stroke-width="1.5" stroke-linecap="round" stroke-linejoin="round"/>
<path d="M12 11.9997C12.5304 11.9997 13.0391 11.789 13.4142 11.4139C13.7893 11.0388 14 10.5301 14 9.99969C14 9.46926 13.7893 8.96055 13.4142 8.58548C13.0391 8.21041 12.5304 7.99969 12 7.99969C11.4696 7.99969 10.9609 8.21041 10.5858 8.58548C10.2107 8.96055 10 9.46926 10 9.99969C10 10.5301 10.2107 11.0388 10.5858 11.4139C10.9609 11.789 11.4696 11.9997 12 11.9997Z" stroke="#121214" stroke-width="1.5" stroke-linecap="round" stroke-linejoin="round"/>
</svg>
