<svg width="316" height="114" viewBox="0 0 316 114" fill="none" xmlns="http://www.w3.org/2000/svg">
<mask id="mask0_163_4609" style="mask-type:luminance" maskUnits="userSpaceOnUse" x="0" y="1" width="315" height="112">
<path d="M314.37 1.38806H0V112.611H314.37V1.38806Z" fill="white"/>
</mask>
<g mask="url(#mask0_163_4609)">
<path d="M25.7567 66.5799C15.9932 66.5799 8.88385 63.4937 4.62698 57.3968C1.88875 53.4816 -1.07123 46.1222 0.383563 33.3025C1.24703 25.6954 3.29314 19.6469 3.31666 19.5884L3.47793 19.1171H48.8252L48.9863 19.585C49.0063 19.6435 51.0424 25.5647 51.9093 33.0583C52.7158 40.0253 52.6551 49.8244 47.7834 56.96C43.483 63.2561 36.2055 66.4904 26.1565 66.5763C26.0221 66.5763 25.8878 66.5763 25.7534 66.5763L25.7567 66.5799ZM4.46234 20.5243C3.40402 23.9132 -2.57978 44.6701 5.74579 56.5781C9.78761 62.3583 16.6685 65.2482 26.1465 65.1656C35.722 65.0833 42.6228 62.0519 46.6546 56.1514C54.8323 44.1853 48.9024 23.8616 47.8442 20.5208L4.46234 20.5243Z" fill="#45080D"/>
<path d="M54.5697 106.798C54.4352 106.798 54.3007 106.787 54.1663 106.763C51.8651 106.381 46.0458 105.487 41.752 105.397C37.4615 105.311 32.1094 106.127 30.0129 106.484C28.6857 106.708 27.4057 105.789 27.1604 104.437C25.9744 97.8625 24.4222 71.277 24.3583 70.1484L26.6464 70.0109C26.6632 70.2863 28.2523 97.5768 29.4148 104.011C29.435 104.117 29.5324 104.19 29.6399 104.169C32.3244 103.715 37.4783 102.961 41.8022 103.051C46.0826 103.137 51.6165 103.963 54.536 104.444C54.603 104.455 54.6536 104.43 54.6838 104.406C54.714 104.382 54.7509 104.341 54.761 104.269L58.5846 71.6454L41.7552 71.3803L41.7889 69.0337L61.1614 69.3365L57.0355 104.548C56.9551 105.232 56.5988 105.865 56.0612 106.281C55.6244 106.619 55.1072 106.794 54.5729 106.794L54.5697 106.798Z" fill="#45080D"/>
<path d="M43.0624 100.934C35.7716 100.934 27.9163 98.3363 27.5266 98.2024L27.8121 97.311C27.923 97.3492 39.0573 101.03 46.906 99.699L47.057 100.625C45.7838 100.841 44.43 100.934 43.0624 100.934Z" fill="#45080D"/>
<path d="M41.2422 98.5683C39.8746 98.5683 38.5239 98.4756 37.2508 98.2587L37.4018 97.3331C45.247 98.6648 56.3846 94.9833 56.4955 94.9456L56.7813 95.8365C56.3916 95.9673 48.533 98.5683 41.2422 98.5683Z" fill="#45080D"/>
<path d="M44.8881 16.5507C43.7123 8.0146 41.3335 1.65299 41.2327 1.38806L38.2392 2.57506C38.3333 2.82278 47.4449 27.4091 38.0576 43.3185C33.6464 50.7948 28.4219 54.9476 17.2472 56.2654L13.1483 60.1082V102.761C13.0576 109.921 9.94978 110.726 2.40703 110.726V112.612H27.8877V110.726C20.2543 110.726 16.451 109.866 16.3569 102.706V59.6508C27.8239 58.0028 36.0454 53.0826 40.8026 45.0178C45.0462 37.8273 46.4573 27.9837 44.885 16.5541L44.8881 16.5507Z" fill="#45080D"/>
<path d="M109.546 19.1519C110.558 22.9468 111.3 27.1581 112.244 29.852H110.49C104.56 21.0166 104.355 20.8102 95.4587 20.8102H89.9318C88.3122 20.8102 88.0436 21.3641 87.9765 23.8482L87.7076 39.5854H96.1339C101.93 39.5854 102.47 38.6873 103.482 33.9945H104.964V48.2145H103.482C102.739 43.2426 101.594 41.932 96.742 41.932H87.7111V55.3227C87.7781 60.5696 88.5207 61.5364 94.1146 61.5364V62.9158H75.4443V61.5364C80.9711 61.5364 81.7137 60.5696 81.7808 55.3227C81.8482 47.8667 82.0498 33.9257 82.0498 26.7452C82.0498 21.4983 81.2401 20.5315 76.3884 20.5315V19.1519H109.553H109.546Z" fill="#45080D"/>
<path d="M128.069 55.3227C128.069 60.5696 128.879 61.5364 133.193 61.5364V62.9158H117.015V61.5364C121.464 61.5364 122.273 60.5696 122.273 55.3227V26.7452C122.273 21.4983 121.464 20.5315 117.015 20.5315V19.1519H134.137V20.5315C128.879 20.5315 128.069 21.4983 128.069 26.7452V55.3227Z" fill="#45080D"/>
<path d="M140.964 61.5329C145.278 61.0512 146.76 60.3597 146.76 52.6287V26.8828C146.76 21.7736 144.468 20.9478 139.885 20.5315V19.1519H150.536C155.794 25.6408 177.834 49.8005 181.07 53.389C181.272 45.2451 181.406 33.3718 181.406 26.814C181.406 22.7404 180.193 21.1543 175.136 20.5315V19.1519H189.627V20.5315C184.772 21.1543 183.425 22.8092 183.425 26.814C183.425 29.3669 182.887 50.9048 182.548 62.9158H181.335C177.831 57.2561 159.429 39.3103 148.981 25.7818H148.779V52.632C148.779 60.3629 149.723 60.9856 154.645 61.5364V62.9158H140.961V61.5364L140.964 61.5329Z" fill="#45080D"/>
<path d="M193.728 61.5364C199.255 61.5364 199.997 60.5695 200.065 55.3227C200.199 46.3495 200.333 36.6851 200.333 26.7452C200.333 21.4983 199.524 20.5315 194.4 20.5315V19.1519H226.889L228.304 27.0205H227.225C224.124 23.0878 222.236 20.8067 215.903 20.8067H210.107C206.737 20.8067 206.129 21.1508 206.129 23.5695V38.6185H213.071C218.866 38.6185 219.407 37.7207 220.418 32.6148H221.9V47.664H220.418C219.676 42.2793 218.53 40.9687 213.679 40.9687H206.129V58.364C206.129 60.7106 207.14 61.2646 210.443 61.2646H219.34C225.744 61.2646 227.024 60.0224 231.338 52.6355H232.618C231.943 54.4314 230.864 60.2977 230.326 62.9194H193.725V61.5396L193.728 61.5364Z" fill="#45080D"/>
<path d="M100.346 78.9938H99.2672C97.2444 72.7113 93.8074 69.1228 89.2247 69.1228C85.9221 69.1228 81.205 71.5382 81.205 76.5784C81.205 88.1045 103.379 85.9677 103.379 99.6338C103.379 105.225 98.4575 112.612 88.1461 112.612C85.1796 112.612 78.3726 111.783 76.9579 110.472C75.6107 109.23 75.4092 101.636 75.2041 99.3584H76.2157C77.2269 102.187 80.4624 111.232 88.6872 111.232C93.2699 111.232 98.3936 108.469 98.3936 102.397C98.3936 89.9727 76.2188 93.6987 76.2188 79.2036C76.2188 73.6126 80.264 67.7466 90.3065 67.7466C93.6764 67.7466 97.1805 68.1595 100.349 69.8178V78.9973L100.346 78.9938Z" fill="#45080D"/>
<path d="M108.784 110.674C113.706 110.674 114.512 109.707 114.512 104.46V75.8827C114.512 70.6358 113.703 69.6689 108.512 69.6689V68.2892H126.981C133.922 68.2892 142.755 70.9112 142.755 80.0251C142.755 90.309 133.25 93.4846 122.667 93.4846V91.8298C132.575 91.8298 136.956 87.7561 136.956 80.3725C136.956 72.1598 130.149 69.9511 125.63 69.9511C121.111 69.9511 120.305 70.918 120.305 76.1648V104.467C120.305 109.714 121.114 110.681 126.305 110.681V112.06H108.781V110.681L108.784 110.674Z" fill="#45080D"/>
<path d="M158.723 104.46C158.723 109.707 159.532 110.674 163.846 110.674V112.053H147.669V110.674C152.117 110.674 152.927 109.707 152.927 104.46V75.8827C152.927 70.6358 152.117 69.6689 147.669 69.6689V68.2892H164.79V69.6689C159.532 69.6689 158.723 70.6358 158.723 75.8827V104.46Z" fill="#45080D"/>
<path d="M171.383 110.674C176.237 110.674 177.044 109.707 177.044 104.46C177.044 94.2452 177.313 85.5474 177.245 75.8827C177.245 70.6358 176.436 69.6689 172.323 69.6689V68.2892H185.4C196.252 68.2892 203.599 71.6714 203.599 79.6087C203.599 87.5463 195.576 89.5488 193.624 90.0304L204.745 106.872C206.499 109.563 208.182 110.667 210.541 110.667V112.047H203.059C202.451 112.047 201.779 111.84 200.293 109.494L188.699 91.0625H182.836V104.453C182.836 109.7 183.646 110.667 188.699 110.667V112.047H171.376V110.667L171.383 110.674ZM182.843 89.4145C193.087 89.4145 197.401 87.3432 197.401 79.4747C197.401 73.1235 192.479 69.9475 187.291 69.9475C183.515 69.9475 182.843 70.7769 182.843 73.5364V89.4109V89.4145Z" fill="#45080D"/>
<path d="M226.133 104.46C226.133 109.707 226.943 110.674 231.257 110.674V112.053H215.079V110.674C219.528 110.674 220.338 109.707 220.338 104.46V75.8827C220.338 70.6358 219.528 69.6689 215.079 69.6689V68.2892H232.201V69.6689C226.943 69.6689 226.133 70.6358 226.133 75.8827V104.46Z" fill="#45080D"/>
<path d="M281.138 66.7726V78.4394H280.194C278.578 72.1569 275.611 71.0526 268.6 71.0526C263.005 71.0526 262.397 71.2588 262.397 77.1284C262.397 83.6175 261.793 100.597 261.793 104.464C261.793 109.295 263.073 110.399 268.667 110.678V112.057H249.321V110.678C255.59 110.678 256.4 109.711 256.4 104.464C256.4 100.597 257.008 83.6175 257.008 77.1284C257.008 71.4687 256.874 71.3312 251.616 71.3312C244.54 71.3312 241.506 73.9528 239.349 78.4394H237.868L240.767 66.7726H242.181C243.462 68.2211 245.081 68.9813 248.115 68.9813H273.458C277.637 68.9813 278.242 68.5684 280.198 66.7726H281.138Z" fill="#45080D"/>
<path d="M311.335 78.9938H310.256C308.233 72.7113 304.796 69.1228 300.214 69.1228C296.911 69.1228 292.194 71.5382 292.194 76.5784C292.194 88.1045 314.368 85.9677 314.368 99.6338C314.368 105.225 309.447 112.612 299.135 112.612C296.169 112.612 289.362 111.783 287.947 110.472C286.6 109.23 286.398 101.636 286.193 99.3584H287.205C288.216 102.187 291.451 111.232 299.673 111.232C304.256 111.232 309.379 108.469 309.379 102.397C309.379 89.9727 287.205 93.6987 287.205 79.2036C287.205 73.6126 291.25 67.7466 301.292 67.7466C304.662 67.7466 308.166 68.1595 311.335 69.8178V78.9938Z" fill="#45080D"/>
</g>
</svg>
