<svg width="60" height="60" viewBox="0 0 60 60" fill="none" xmlns="http://www.w3.org/2000/svg">
<path d="M54.0434 20.0649C50.0778 16.5263 38.1324 11.9324 26.0204 12.5199C16.7034 12.9699 9.33835 15.799 5.27935 20.4869C4.3696 21.5375 3.63715 22.6916 3.04965 23.927C3.01058 24.0092 2.82523 24.4018 2.82269 24.4139C1.63169 27.1498 1.18499 30.3004 1.52464 33.8484C2.07074 39.5494 6.99464 44.1009 11.3391 45.9164C14.0708 47.058 16.6156 47.5302 19.0436 47.5299C24.6396 47.5299 29.6096 45.0203 34.7786 42.4094C37.3198 41.1256 39.9481 39.798 42.7326 38.7271C44.0293 38.2283 45.4395 37.8502 46.9326 37.4496C51.3326 36.2705 55.8821 35.0507 58.0117 30.5706C60.0337 26.3167 56.3927 22.1626 54.0427 20.0646L54.0434 20.0649ZM5.98885 21.1003C9.8775 16.6083 17.0078 13.8938 26.0653 13.4563C26.7392 13.4238 27.412 13.4082 28.0852 13.4082C39.1128 13.4082 49.8863 17.6113 53.4193 20.7642C54.7507 21.9525 56.5363 23.8504 57.2933 26.0002C57.2571 26.0906 57.22 26.1811 57.1778 26.2692C55.2811 30.2371 51.0443 31.3657 46.9468 32.4577C45.5285 32.8358 44.0619 33.2262 42.7488 33.7288C39.9841 34.786 37.3943 36.0864 34.8903 37.3438C27.8413 40.8825 21.1828 44.2248 12.7543 40.7235C7.38727 38.4942 2.42327 31.1915 3.72527 24.7C4.30242 23.3973 5.04577 22.1893 5.98837 21.1006L5.98885 21.1003ZM57.1639 30.1683C55.2209 34.2575 50.8834 35.4203 46.6889 36.5443C45.2379 36.9333 43.7375 37.3353 42.3945 37.8519C39.5664 38.9404 36.9165 40.2786 34.3545 41.5726C27.14 45.2155 20.325 48.6566 11.699 45.0513C7.6039 43.3399 2.9645 39.0763 2.4555 33.7583C2.26429 31.7596 2.33636 29.8973 2.65335 28.1693C3.26545 33.9798 7.68035 39.6308 12.3923 41.5888C15.0636 42.6983 17.5523 43.1573 19.9258 43.1569C25.3969 43.1569 30.2553 40.7179 35.3089 38.1808C37.7925 36.9339 40.3609 35.6441 43.0819 34.6032C44.3489 34.119 45.727 33.7515 47.1862 33.3628C51.2331 32.2848 55.4077 31.1706 57.6242 27.4163C57.7232 28.3186 57.6027 29.2458 57.1644 30.1682L57.1639 30.1683Z" fill="#171717"/>
<path d="M27.1508 12.2802C32.8454 12.1532 38.4461 13.1259 43.1469 14.5536C48.1547 16.0745 52.1645 18.1184 54.1794 19.9159L54.6372 20.3368C55.7334 21.3725 57.0016 22.7874 57.848 24.4179C58.7868 26.2264 59.2152 28.3191 58.2899 30.4491L58.1956 30.6552C56.292 34.6599 52.4925 36.1074 48.6368 37.1933L46.9863 37.6425C45.6777 37.9935 44.4428 38.3248 43.2939 38.7333L42.8072 38.913C40.7272 39.7129 38.7333 40.657 36.7939 41.621L34.8713 42.5868C29.8725 45.1118 25.0111 47.5712 19.5723 47.7225L19.044 47.7294C16.7413 47.7297 14.3368 47.31 11.7744 46.3085L11.26 46.1005C7.01049 44.3247 2.1896 39.9506 1.38742 34.4071L1.32188 33.8671C0.979586 30.2915 1.42931 27.1063 2.63577 24.3349C2.63645 24.3332 2.63722 24.3312 2.63776 24.33C2.64 24.3247 2.6429 24.3187 2.6457 24.3124C2.65156 24.2993 2.65928 24.2817 2.66854 24.2616C2.68714 24.2213 2.71227 24.1682 2.73806 24.1132C2.78954 24.0034 2.84529 23.8845 2.86518 23.8427V23.8417C3.45959 22.5919 4.20198 21.4227 5.12451 20.3573L5.51977 19.9179C9.70107 15.4354 16.9572 12.7575 26.0107 12.3202L27.1508 12.2802ZM54.0433 20.0643C50.0775 16.5258 38.1323 11.932 26.0206 12.5194L25.1527 12.5692C16.2463 13.1487 9.21159 15.9458 5.27944 20.4872L4.94675 20.8856C4.18908 21.8272 3.56396 22.8458 3.0499 23.9267L2.82247 24.414C1.63156 27.1498 1.18483 30.3006 1.52447 33.8485C2.07069 39.5494 6.99498 44.1004 11.3394 45.9159C13.9004 46.9862 16.297 47.4685 18.5872 47.5243L19.044 47.5302C23.9405 47.5301 28.3577 45.6083 32.8483 43.3788L34.7789 42.4091C37.0024 41.2858 39.2928 40.1296 41.696 39.1405L42.7328 38.7274C43.7054 38.3533 44.7418 38.0467 45.8293 37.7479L46.9326 37.4491C51.1951 36.3069 55.5982 35.127 57.8053 30.9813L58.0118 30.5702C60.0336 26.3164 56.3923 22.1623 54.0424 20.0643H54.0433ZM57.6245 27.4159C57.7112 28.2055 57.6291 29.0143 57.3137 29.8222L57.1647 30.1679H57.1637C55.2208 34.257 50.8837 35.4199 46.6893 36.5438L45.5949 36.8397C44.4977 37.1412 43.4015 37.464 42.3941 37.8515L41.3424 38.2714C38.9057 39.2744 36.5965 40.44 34.3548 41.5722L33.0062 42.2518C26.3934 45.5623 20.0026 48.337 12.1021 45.2147L11.6989 45.0507C7.73194 43.3928 3.25446 39.3401 2.5156 34.2538L2.45602 33.7577C2.26485 31.7592 2.33668 29.8968 2.65365 28.1688C3.26574 33.9793 7.6802 39.6307 12.3921 41.5888C14.8966 42.629 17.2409 43.0972 19.48 43.1513L19.9259 43.1571C24.713 43.1571 29.0312 41.2894 33.4213 39.1229L35.3092 38.1806C37.4822 37.0896 39.7201 35.9659 42.0684 35.0048L43.0823 34.6034C44.0325 34.2403 45.0449 33.9423 46.1074 33.6522L47.1859 33.3622C51.2328 32.2843 55.408 31.1702 57.6245 27.4159ZM57.4517 28.0575C55.4231 31.0145 52.1062 32.2129 48.757 33.1454L47.2395 33.5556C45.9608 33.8962 44.7541 34.2186 43.6315 34.6151L43.1558 34.7899C40.4461 35.8265 37.8865 37.1108 35.4016 38.3583V38.3593C30.5145 40.8128 25.7607 43.2025 20.4423 43.3495L19.9259 43.3563C17.6744 43.3567 15.3225 42.9491 12.8162 41.9755L12.3137 41.7733C9.91683 40.7774 7.60679 38.8478 5.82069 36.4413C4.30756 34.4025 3.16507 32.011 2.66159 29.537C2.52077 30.8616 2.51632 32.262 2.65762 33.7392L2.71621 34.2255C3.44195 39.2196 7.85096 43.2257 11.7784 44.8671L12.1766 45.0292C20.5165 48.3256 27.15 44.9854 34.2615 41.3944L36.202 40.4198C38.1632 39.4453 40.1913 38.4855 42.3206 37.6659L42.8351 37.4755C44.052 37.0435 45.368 36.6914 46.6357 36.3515L48.2128 35.9208C51.8727 34.89 55.3206 33.5761 56.98 30.0839L56.981 30.0809C57.3018 29.4048 57.4442 28.7268 57.4517 28.0575ZM29.1182 13.4198C39.7791 13.6693 49.9971 17.7102 53.4197 20.7645C54.751 21.9528 56.5358 23.8504 57.2928 25.9999C57.2567 26.0903 57.2198 26.1813 57.1776 26.2694L56.9929 26.6327C55.0161 30.3073 50.916 31.4 46.9465 32.4579L45.877 32.745C44.8046 33.0379 43.7334 33.3515 42.7487 33.7284L41.7198 34.1356C39.3378 35.11 37.0811 36.2434 34.8901 37.3436L33.5723 38.0028C27.1112 41.2184 20.8674 43.9149 13.1479 40.8827L12.7546 40.7235C7.38767 38.4942 2.42336 31.1915 3.72522 24.7001C4.30237 23.3973 5.04592 22.1891 5.98852 21.1005L6.36293 20.6845C10.1973 16.5777 16.8447 14.0469 25.2222 13.5038L26.0653 13.4559C26.7392 13.4235 27.4121 13.4081 28.0853 13.4081L29.1182 13.4198ZM27.0803 13.62L26.0753 13.6561C17.0454 14.0923 9.9806 16.7969 6.14345 21.2294H6.14246L6.14345 21.2304C5.21937 22.2976 4.48862 23.4822 3.91987 24.7616C3.29001 27.9398 4.18707 31.3289 5.91404 34.2079C7.64569 37.0945 10.1978 39.4442 12.8331 40.539L13.2224 40.6962C21.3695 43.8969 27.8493 40.6541 34.7978 37.1659L36.6936 36.2186C38.6106 35.2716 40.5932 34.3381 42.6752 33.5419L43.1787 33.3573C44.3685 32.9372 45.6549 32.5949 46.8939 32.2645L48.4342 31.8466C52.0097 30.8453 55.3751 29.57 56.9939 26.1835L57.0743 25.995C56.4158 24.185 55.0146 22.5503 53.7971 21.3866L53.2826 20.912C51.5474 19.3635 48.0023 17.5352 43.4994 16.0936C39.0028 14.6542 33.574 13.6083 28.0853 13.6083C27.7503 13.6083 27.4153 13.6121 27.0803 13.62Z" fill="#171717"/>
<path d="M13.934 32.8129C15.6725 32.8129 17.0868 31.3991 17.0868 29.6606C17.0868 27.9221 15.6725 26.5078 13.934 26.5078C12.1955 26.5078 10.7812 27.9221 10.7812 29.6606C10.7812 31.3991 12.1955 32.8129 13.934 32.8129ZM13.934 27.4454C15.1557 27.4454 16.1493 28.4392 16.1493 29.6607C16.1493 30.8818 15.1555 31.8755 13.934 31.8755C12.7123 31.8755 11.7187 30.8818 11.7187 29.6607C11.7186 28.439 12.7123 27.4454 13.934 27.4454Z" fill="#171717"/>
<path d="M17.0865 29.6602C17.0863 27.9763 15.7595 26.5964 14.0962 26.5117L13.9344 26.5078C12.196 26.5078 10.7814 27.9218 10.7812 29.6602L10.7852 29.8223C10.8669 31.4321 12.1618 32.7265 13.7715 32.8086L13.9344 32.8125C15.6185 32.8123 16.9981 31.4858 17.0825 29.8223L17.0865 29.6602ZM15.9454 29.6611C15.9454 28.547 15.0403 27.6457 13.9344 27.6455C12.8283 27.6455 11.9224 28.546 11.9223 29.6602V29.6611C11.9226 30.7747 12.8283 31.6758 13.9344 31.6758V31.876L13.7079 31.8643C12.6664 31.7583 11.8367 30.9278 11.7306 29.8867L11.7187 29.6611C11.7185 28.4394 12.7127 27.4453 13.9344 27.4453L14.1598 27.457C15.2758 27.5705 16.149 28.5159 16.149 29.6611L16.1381 29.8867C16.0245 31.002 15.0794 31.8758 13.9344 31.876V31.6758C15.04 31.6756 15.9452 30.7746 15.9454 29.6611ZM17.2901 29.6602C17.2901 31.5058 15.7882 33.0125 13.9344 33.0127C12.0804 33.0127 10.5776 31.506 10.5776 29.6602C10.5779 27.8146 12.0805 26.3076 13.9344 26.3076C15.7881 26.3078 17.2899 27.8147 17.2901 29.6602Z" fill="#171717"/>
<path d="M19.0701 21.7477C22.5445 23.1057 25.8436 26.9427 26.7446 30.6722C26.7964 30.8868 26.9882 31.031 27.1995 31.031C27.2361 31.031 27.2732 31.0269 27.3099 31.0177C27.5616 30.9573 27.7163 30.7036 27.6554 30.4524C26.6896 26.452 23.145 22.3344 19.4114 20.8744C19.1688 20.7793 18.8987 20.8993 18.804 21.1405C18.71 21.3817 18.829 21.6536 19.0702 21.7479L19.0701 21.7477Z" fill="#171717"/>
<path d="M18.6756 20.9484C18.8444 20.6876 19.1798 20.5682 19.4869 20.6886L19.8425 20.8361C21.6202 21.6118 23.3298 22.9594 24.7266 24.5822C26.2166 26.3133 27.3613 28.3702 27.8529 30.4064L27.8718 30.5392C27.8829 30.8476 27.6766 31.1344 27.3594 31.2111L27.3603 31.2121C27.3059 31.2257 27.2514 31.2316 27.1995 31.2316C26.9322 31.2316 26.6896 31.072 26.5837 30.8283L26.547 30.7189C26.1052 28.8904 25.0726 27.0262 23.7176 25.4504C22.4469 23.9726 20.9014 22.7588 19.3131 22.0656L18.9953 21.9338C18.6485 21.7982 18.4814 21.4105 18.614 21.0695V21.0685L18.6756 20.9484ZM19.4115 20.8742C19.1689 20.7792 18.8984 20.8996 18.8037 21.1408L18.7788 21.2326C18.7422 21.4473 18.8591 21.6657 19.0698 21.7482L19.3956 21.882C22.7486 23.3452 25.8717 27.0592 26.7446 30.672C26.7899 30.8597 26.9422 30.9939 27.121 31.0246L27.1995 31.0314C27.2359 31.0314 27.273 31.0269 27.3097 31.0177C27.5302 30.9649 27.6762 30.7639 27.6682 30.5461L27.6553 30.4523C26.7196 26.577 23.3642 22.5913 19.761 21.0187L19.4115 20.8742Z" fill="#171717"/>
<path d="M34.7233 27.8216C34.7676 28.0444 34.9631 28.1987 35.1824 28.1987C35.2127 28.1987 35.2438 28.196 35.2744 28.1895C35.5285 28.1391 35.6932 27.8921 35.6424 27.6384C34.9951 24.3892 32.1418 20.8199 29.6579 18.9729C29.4497 18.8192 29.1567 18.8625 29.002 19.0694C28.8477 19.2772 28.8909 19.5705 29.0985 19.7252C31.3811 21.4227 34.128 24.8367 34.7235 27.8217L34.7233 27.8216Z" fill="#171717"/>
<path d="M28.9295 18.8505C29.129 18.673 29.4188 18.6302 29.6624 18.7431L29.7796 18.8125L29.7806 18.8134L30.2563 19.1845C31.3739 20.0955 32.5286 21.3127 33.5048 22.664C34.6193 24.207 35.5115 25.9377 35.8425 27.5996H35.8416C35.9134 27.9583 35.6811 28.3129 35.3142 28.3857L35.3132 28.3847C35.268 28.3939 35.2236 28.3984 35.1821 28.3984C34.9048 28.3982 34.6572 28.228 34.5575 27.9736L34.5237 27.8603L34.4631 27.5859C34.1304 26.21 33.3508 24.744 32.3786 23.4072C31.472 22.1608 30.4065 21.0382 29.4022 20.2177L28.9762 19.8847C28.6795 19.6637 28.6189 19.2464 28.8381 18.9511L28.9295 18.8505ZM29.6584 18.9726C29.4502 18.8189 29.1567 18.8625 29.002 19.0693C28.8477 19.2771 28.8907 19.5709 29.0983 19.7255C31.3808 21.4229 34.1276 24.8364 34.7233 27.8212L34.7471 27.9013C34.8072 28.0547 34.9431 28.1634 35.1017 28.1914L35.1821 28.1982C35.2124 28.1982 35.2438 28.1959 35.2745 28.1894C35.5285 28.139 35.6935 27.8922 35.6429 27.6386C35.0361 24.5924 32.4897 21.2647 30.1272 19.3388L29.6584 18.9726Z" fill="#171717"/>
<path d="M42.622 26.378C42.6728 26.5936 42.865 26.7387 43.0775 26.7387C43.1132 26.7387 43.1497 26.7346 43.1859 26.7258C43.438 26.6663 43.5937 26.4137 43.5337 26.162C42.7478 22.8485 41.4978 20.4175 39.8185 18.935C39.6243 18.7647 39.3286 18.783 39.1566 18.9762C38.9855 19.1703 39.0036 19.4668 39.1978 19.6381C40.7294 20.9896 41.8814 23.257 42.622 26.3776L42.622 26.378Z" fill="#171717"/>
<path d="M39.1038 18.7528C39.3539 18.5658 39.7098 18.5719 39.9539 18.786L40.2717 19.0819C41.8332 20.6193 42.9904 22.9909 43.7318 26.1161L43.7496 26.2499C43.7593 26.5588 43.5512 26.8437 43.2332 26.9189L43.2342 26.9198C43.1816 26.9326 43.1286 26.9384 43.0773 26.9384C42.8086 26.9383 42.5646 26.7785 42.4596 26.5331L42.4238 26.4228L42.2808 25.8515C41.5928 23.2336 40.5993 21.2915 39.3362 20.0439L39.0621 19.787C38.7849 19.5424 38.7592 19.1207 39.0025 18.8446H39.0035L39.1038 18.7528ZM39.8189 18.9345C39.6247 18.7642 39.3285 18.7833 39.1565 18.9765C38.9856 19.1706 39.0041 19.4664 39.1982 19.6376C40.7298 20.9892 41.8818 23.2573 42.6224 26.3778L42.6473 26.455C42.7104 26.6028 42.8446 26.706 42.9988 26.7323L43.0773 26.7382C43.113 26.7382 43.1495 26.7342 43.1855 26.7255C43.4062 26.6734 43.5531 26.4736 43.546 26.2558L43.5341 26.162C42.7973 23.0556 41.6526 20.7243 40.1287 19.2235L39.8189 18.9345Z" fill="#171717"/>
<path d="M50.8876 26.5016C50.9329 26.7241 51.1278 26.877 51.3462 26.877C51.3772 26.877 51.4089 26.8739 51.4405 26.8674C51.694 26.8157 51.8575 26.5686 51.8057 26.3149C51.4651 24.6424 50.8719 22.5373 49.2956 21.0884C49.1061 20.9136 48.8087 20.9255 48.6333 21.1163C48.4579 21.3068 48.4708 21.6032 48.6612 21.7786C50.0395 23.0454 50.5749 24.9682 50.8876 26.5016Z" fill="#171717"/>
<path d="M48.5842 20.8916C48.8383 20.7083 49.1966 20.7221 49.4353 20.9423L49.4343 20.9433C51.0607 22.4386 51.664 24.5989 52.0054 26.2753L52.0184 26.4091C52.0183 26.6742 51.8593 26.9172 51.6122 27.0224L51.4821 27.0634C51.4369 27.0726 51.3909 27.0771 51.346 27.0771C51.0697 27.077 50.8229 26.9077 50.7223 26.6542L50.6886 26.541C50.3958 25.1051 49.9142 23.3765 48.7619 22.1611L48.5226 21.9248C48.2514 21.675 48.2328 21.2539 48.4829 20.9824L48.5842 20.8916ZM49.2952 21.0888C49.1059 20.9141 48.8092 20.9256 48.6338 21.1162L48.5762 21.1923C48.4639 21.379 48.495 21.6248 48.6616 21.7783C50.0399 23.0451 50.5745 24.9685 50.8872 26.5019C50.9269 26.6964 51.0815 26.8377 51.2656 26.8701L51.346 26.8769L51.4404 26.8671C51.6622 26.8218 51.8158 26.6272 51.8158 26.4091L51.8058 26.3144C51.4865 24.7466 50.9454 22.7983 49.5803 21.3671L49.2952 21.0888Z" fill="#171717"/>
</svg>
