<svg width="32" height="22" viewBox="0 0 32 22" fill="none" xmlns="http://www.w3.org/2000/svg">
<path d="M0.562816 2.34307C7.07071 -0.79036 11.8448 0.721204 16.308 2.13045C18.5414 2.83566 20.653 3.49938 22.9373 3.64443C25.2058 3.78837 27.6622 3.42047 30.5619 2.02338L30.6787 1.97513C30.7983 1.9349 30.9251 1.91751 31.0519 1.92386C31.1788 1.93031 31.304 1.96063 31.419 2.01283L31.5312 2.07315L31.5328 2.07465C31.676 2.16411 31.7952 2.28758 31.8771 2.43505C31.9587 2.58211 32.0005 2.74803 32 2.91609V18.7631L31.9909 18.9018C31.9715 19.0394 31.9231 19.1724 31.8483 19.2909C31.7488 19.4484 31.6066 19.5745 31.4387 19.6558C28.6333 21.0073 26.1414 21.4999 23.8445 21.5C20.8527 21.5 18.2114 20.6578 15.6951 19.8684C13.4618 19.1633 11.3499 18.4995 9.06571 18.3544C6.79724 18.2104 4.34074 18.5785 1.44117 19.9755C1.28858 20.0492 1.11899 20.0836 0.949656 20.075C0.780463 20.0663 0.615925 20.0145 0.471795 19.9257C0.327698 19.8368 0.208627 19.7128 0.125914 19.5653C0.043217 19.4177 -0.000319835 19.2518 1.76892e-06 19.0828V3.23577C-0.00029687 3.04948 0.0523051 2.86721 0.151704 2.7095C0.251223 2.55178 0.394739 2.4244 0.562816 2.34307ZM15.6966 4.0199C11.4 2.66377 7.47276 1.43264 2.00247 3.8676V17.5643C4.23153 16.6902 6.26369 16.3489 8.15549 16.3489C11.1472 16.3489 13.7884 17.1895 16.3049 17.9789C20.6013 19.335 24.529 20.5645 29.999 18.1297V4.43459C24.2162 6.7125 19.825 5.31956 15.6966 4.0199ZM26.7162 7.89532C26.9804 7.8955 27.2352 7.99801 27.4232 8.18334C27.6113 8.36889 27.7173 8.62204 27.7175 8.88604V15.2254C27.7175 15.4894 27.6112 15.7425 27.4232 15.9281C27.2352 16.1135 26.9805 16.2175 26.7162 16.2177C26.4517 16.2177 26.1959 16.1137 26.0078 15.9281C25.8198 15.7425 25.7135 15.4894 25.7135 15.2254V8.88604C25.7136 8.62205 25.8196 8.36889 26.0078 8.18334C26.1959 7.99781 26.4517 7.89532 26.7162 7.89532ZM16.0015 6.83825C17.1182 6.8383 18.1901 7.27555 18.9809 8.05516C19.772 8.83525 20.2173 9.89537 20.2173 11.0002C20.2172 11.8238 19.9695 12.6291 19.5058 13.3134C19.0423 13.9973 18.3836 14.5295 17.6141 14.8439C16.8442 15.1584 15.9964 15.241 15.1793 15.0807C14.3625 14.9204 13.6118 14.525 13.0221 13.9437C12.4322 13.362 12.0291 12.6194 11.8661 11.8115C11.7033 11.0038 11.7879 10.1669 12.1073 9.40628C12.4269 8.64555 12.9676 7.99624 13.6608 7.53945C14.354 7.08268 15.1685 6.83825 16.0015 6.83825ZM5.28681 5.78118C5.55114 5.78118 5.80563 5.88539 5.99374 6.07071C6.18201 6.25636 6.28956 6.50925 6.28956 6.77341V13.1128C6.28954 13.3769 6.18199 13.6299 5.99374 13.8155C5.80564 14.0008 5.55111 14.1035 5.28681 14.1035C5.02248 14.1034 4.76794 14.0009 4.57988 13.8155C4.39163 13.6299 4.2856 13.3769 4.28558 13.1128V6.77341C4.28558 6.50925 4.39161 6.25636 4.57988 6.07071C4.76795 5.88526 5.02245 5.78126 5.28681 5.78118ZM16.8495 8.98707C16.4448 8.82177 15.999 8.77914 15.5692 8.86342C15.1394 8.94772 14.7451 9.15583 14.436 9.46057C14.1269 9.76535 13.9158 10.1532 13.8307 10.5749C13.7456 10.9967 13.7896 11.435 13.9566 11.8326C14.1236 12.2299 14.4075 12.57 14.7712 12.8097C15.1351 13.0494 15.5632 13.1777 16.0015 13.1777C16.5894 13.1776 17.1525 12.9471 17.5671 12.5383C17.9814 12.1297 18.2132 11.5764 18.2133 11.0002C18.2133 10.5702 18.0843 10.1489 17.8417 9.79081C17.599 9.43276 17.2542 9.15235 16.8495 8.98707Z" fill="#3C4043"/>
</svg>
