<svg width="26" height="26" viewBox="0 0 26 26" fill="none" xmlns="http://www.w3.org/2000/svg">
<path fill-rule="evenodd" clip-rule="evenodd" d="M25.5 13C25.5 19.9036 19.9036 25.5 13 25.5C6.09644 25.5 0.5 19.9036 0.5 13C0.5 6.09644 6.09644 0.5 13 0.5C19.9036 0.5 25.5 6.09644 25.5 13ZM16.75 9.25C16.75 11.3211 15.0711 13 13 13C10.9289 13 9.25 11.3211 9.25 9.25C9.25 7.17893 10.9289 5.5 13 5.5C15.0711 5.5 16.75 7.17893 16.75 9.25ZM13 23.625C15.23 23.625 17.2996 22.938 19.0086 21.764C19.7635 21.2455 20.0861 20.2578 19.6472 19.454C18.7374 17.7878 16.8628 16.75 12.9999 16.75C9.13711 16.75 7.26246 17.7878 6.35268 19.454C5.91381 20.2577 6.23638 21.2454 6.9912 21.7639C8.70023 22.9379 10.7699 23.625 13 23.625Z" fill="#45080D"/>
</svg>
