<svg width="30" height="30" viewBox="0 0 30 30" fill="none" xmlns="http://www.w3.org/2000/svg">
<path fill-rule="evenodd" clip-rule="evenodd" d="M10.6395 11.5116C10.6395 9.10341 12.5918 7.15116 15 7.15116C17.4082 7.15116 19.3605 9.10341 19.3605 11.5116C19.3605 13.9198 17.4082 15.8721 15 15.8721C12.5918 15.8721 10.6395 13.9198 10.6395 11.5116ZM15 8.89535C13.5551 8.89535 12.3837 10.0667 12.3837 11.5116C12.3837 12.9566 13.5551 14.1279 15 14.1279C16.4449 14.1279 17.6163 12.9566 17.6163 11.5116C17.6163 10.0667 16.4449 8.89535 15 8.89535Z" fill="#C7C7C7"/>
<path fill-rule="evenodd" clip-rule="evenodd" d="M2.5 15C2.5 8.09644 8.09644 2.5 15 2.5C21.9036 2.5 27.5 8.09644 27.5 15C27.5 21.9036 21.9036 27.5 15 27.5C8.09644 27.5 2.5 21.9036 2.5 15ZM15 4.24419C9.05973 4.24419 4.24419 9.05973 4.24419 15C4.24419 17.96 5.43985 20.6407 7.37454 22.5855C7.5843 21.454 7.99644 20.3871 8.82368 19.5292C10.0611 18.2459 12.0397 17.6163 14.9999 17.6163C17.9602 17.6163 19.9388 18.2459 21.1762 19.5292C22.0035 20.3871 22.4156 21.454 22.6254 22.5856C24.5601 20.6408 25.7558 17.96 25.7558 15C25.7558 9.05973 20.9403 4.24419 15 4.24419ZM21.0392 23.9016C20.9207 22.4924 20.6147 21.4596 19.9206 20.7399C19.1654 19.9567 17.7662 19.3605 14.9999 19.3605C12.2337 19.3605 10.8344 19.9567 10.0792 20.7399C9.38519 21.4596 9.0792 22.4924 8.96073 23.9015C10.6824 25.0719 12.7613 25.7558 15 25.7558C17.2386 25.7558 19.3175 25.0719 21.0392 23.9016Z" fill="#C7C7C7"/>
</svg>
