<svg width="141" height="140" viewBox="0 0 141 140" fill="none" xmlns="http://www.w3.org/2000/svg">
<path d="M115.113 84.1891L132.982 30.5855H36.284L29.9777 11.6666H11.9385V17.9729H25.4308L46.3961 80.872L32.311 112.567H119.146V106.261H42.0164L51.8259 84.1891H115.113ZM124.229 36.8918L110.566 77.8828H52.0497L38.3871 36.8918H124.229Z" fill="#121214"/>
<path d="M59.2145 128.334C62.6974 128.334 65.5208 125.51 65.5208 122.027C65.5208 118.544 62.6974 115.721 59.2145 115.721C55.7316 115.721 52.9082 118.544 52.9082 122.027C52.9082 125.51 55.7316 128.334 59.2145 128.334Z" fill="#121214"/>
<path d="M97.0407 128.334C100.524 128.334 103.347 125.51 103.347 122.027C103.347 118.544 100.524 115.721 97.0407 115.721C93.5578 115.721 90.7344 118.544 90.7344 122.027C90.7344 125.51 93.5578 128.334 97.0407 128.334Z" fill="#121214"/>
</svg>
