<svg width="51" height="52" viewBox="0 0 51 52" fill="none" xmlns="http://www.w3.org/2000/svg">
<path d="M27.8122 6.24398C27.3856 5.33099 26.4842 4.75 25.4942 4.75C24.5043 4.75 23.6109 5.33099 23.1763 6.24398L18.0012 17.2247L6.4437 18.9843C5.4779 19.1336 4.67306 19.8308 4.37527 20.7853C4.07748 21.7398 4.31893 22.7939 5.01109 23.4994L13.3975 32.0565L11.4176 44.1494C11.2566 45.1454 11.6591 46.158 12.4558 46.7473C13.2526 47.3365 14.307 47.4112 15.1762 46.9381L25.5023 41.2527L35.8283 46.9381C36.6976 47.4112 37.7519 47.3448 38.5487 46.7473C39.3455 46.1497 39.7479 45.1454 39.5869 44.1494L37.599 32.0565L45.9854 23.4994C46.6776 22.7939 46.9271 21.7398 46.6212 20.7853C46.3154 19.8308 45.5186 19.1336 44.5528 18.9843L32.9873 17.2247L27.8122 6.24398Z" fill="#DEA533"/>
</svg>
