<svg width="24" height="24" viewBox="0 0 24 24" fill="none" xmlns="http://www.w3.org/2000/svg">
<circle cx="12" cy="12" r="11" fill="#0DA000"/>
<path d="M10.8955 16.9363C10.5651 16.9363 10.2866 16.797 10.0601 16.5186L7.17847 12.929C7.08879 12.8204 7.02507 12.7166 6.9873 12.6174C6.94954 12.5136 6.93066 12.4074 6.93066 12.2988C6.93066 12.0581 7.0109 11.8599 7.17139 11.7041C7.33187 11.5436 7.53719 11.4634 7.78735 11.4634C8.06584 11.4634 8.29948 11.5837 8.48828 11.8245L10.8672 14.8831L15.4692 7.56226C15.5778 7.40177 15.6887 7.28849 15.802 7.22241C15.9153 7.15161 16.0569 7.11621 16.2268 7.11621C16.4722 7.11621 16.6729 7.19409 16.8286 7.34985C16.9891 7.5009 17.0693 7.69678 17.0693 7.9375C17.0693 8.0319 17.0528 8.12866 17.0198 8.22778C16.9915 8.3269 16.9419 8.43075 16.8711 8.53931L11.731 16.4973C11.5327 16.79 11.2542 16.9363 10.8955 16.9363Z" fill="white"/>
</svg>
