<svg width="24" height="24" viewBox="0 0 24 24" fill="none" xmlns="http://www.w3.org/2000/svg">
<path d="M12.0002 1.96631C5.40066 1.96631 1.6279 6.85175 2.02907 11.6749L2.39965 15.8087" stroke="#121214" stroke-width="1.5" stroke-linecap="round" stroke-linejoin="round"/>
<path d="M11.9998 1.96631C18.5992 1.96631 22.3721 6.85175 21.9709 11.6749L21.6004 15.8087" stroke="#121214" stroke-width="1.5" stroke-linecap="round" stroke-linejoin="round"/>
<path d="M15.0681 14.7954C15.2226 13.0289 16.78 11.7221 18.5464 11.8767L18.7238 11.8922C20.4902 12.0467 21.797 13.6041 21.6426 15.3706L21.3395 18.8351C21.1849 20.6017 19.6275 21.9085 17.8611 21.7539L17.6837 21.7383C15.9172 21.5837 14.6104 20.0265 14.765 18.2599L15.0681 14.7954Z" stroke="#121214" stroke-width="1.5" stroke-linecap="round" stroke-linejoin="round"/>
<path d="M2.35738 15.3706C2.20283 13.6041 3.50959 12.0467 5.27612 11.8922L5.45342 11.8767C7.21992 11.7221 8.77727 13.0289 8.93182 14.7954L9.23491 18.2599C9.38947 20.0264 8.08271 21.5838 6.31618 21.7383L6.13889 21.7538C4.37238 21.9084 2.81504 20.6016 2.66048 18.8351L2.35738 15.3706Z" stroke="#121214" stroke-width="1.5" stroke-linecap="round" stroke-linejoin="round"/>
</svg>
