<svg width="24" height="25" viewBox="0 0 24 25" fill="none" xmlns="http://www.w3.org/2000/svg">
<path d="M6.72018 20.9953C9.1064 22.4288 11.6475 22.8423 14.3433 22.2175C19.4619 21.0229 22.8317 15.7943 21.8208 10.6393C20.746 5.2177 15.6639 1.70747 10.2449 2.65395C3.16818 3.87609 -0.320072 12.0727 3.69643 18.0548C4.43415 19.3505 5.46332 20.2602 6.72018 21.0045V20.9953Z" stroke="#121214" stroke-width="1.5" stroke-miterlimit="10"/>
<path fill-rule="evenodd" clip-rule="evenodd" d="M6.71752 12.1084C8.98837 11.1563 11.7411 9.81166 14.1215 8.89588C16.3193 8.09639 16.2828 8.31444 15.9542 10.5021C15.6987 12.2537 15.4066 14.0053 15.1145 15.7569C15.005 16.5928 14.5669 17.0361 13.6469 16.5201L10.7846 14.5141C10.383 14.187 10.4925 13.9327 10.8211 13.5983L13.457 11.1199C14.1507 10.4294 13.8221 10.1678 13.0189 10.7202L9.38996 13.1622C8.87884 13.5256 8.32391 13.5256 7.73977 13.3439L6.49117 12.9079C5.68798 12.6171 6.30863 12.2901 6.71022 12.1084H6.71752Z" fill="#121214"/>
</svg>
