<svg width="24" height="24" viewBox="0 0 24 24" fill="none" xmlns="http://www.w3.org/2000/svg">
<path d="M16.6223 11.1523C16.7139 11.1898 16.7972 11.2314 16.8847 11.2689C18.1011 11.8563 18.9926 12.7353 19.4592 13.8267C20.1132 15.3472 20.1757 17.8175 18.1969 19.7921C16.6889 21.3001 14.8518 21.9792 12.2565 22H12.244C9.31962 21.9792 7.07425 20.996 5.56207 19.0756C4.21651 17.3676 3.52499 14.989 3.5 12.0104V11.9896C3.52083 9.01104 4.21235 6.63237 5.5579 4.92439C7.07009 3.00396 9.31962 2.02083 12.244 2H12.2565C15.1851 2.02083 17.4596 2.99979 19.0176 4.91189C19.7841 5.85753 20.3507 6.99479 20.7089 8.31535L19.0259 8.76526C18.7302 7.69048 18.2844 6.774 17.6845 6.04083C16.4681 4.54947 14.6435 3.78296 12.2482 3.7663C9.87367 3.78713 8.07821 4.54947 6.90762 6.03249C5.81618 7.41971 5.24963 9.42762 5.2288 11.9979C5.24964 14.5682 5.81618 16.5761 6.90762 17.9675C8.07405 19.4505 9.87367 20.2129 12.2482 20.2337C14.3894 20.217 15.8058 19.7088 16.9847 18.5299C18.3302 17.1885 18.3053 15.5388 17.8762 14.5349C17.6221 13.9433 17.1638 13.4518 16.5473 13.081C16.3932 14.2016 16.0557 15.0931 15.5183 15.7805C14.806 16.6886 13.7937 17.1802 12.4898 17.251C11.5067 17.3051 10.561 17.0677 9.82785 16.5845C8.96136 16.0096 8.45314 15.1348 8.39898 14.1141C8.29484 12.1021 9.88617 10.6565 12.3648 10.5149C13.2438 10.4649 14.0686 10.5024 14.831 10.6315C14.731 10.015 14.5269 9.52343 14.2228 9.16517C13.8062 8.67777 13.1563 8.42783 12.2982 8.42366H12.269C11.5775 8.42366 10.6443 8.61529 10.0486 9.51927L8.6156 8.53614C9.41544 7.32389 10.711 6.65736 12.2732 6.65736H12.3065C14.9143 6.67403 16.4681 8.30285 16.6264 11.1439L16.6181 11.1523H16.6223ZM10.1236 14.0183C10.1778 15.0639 11.3067 15.5513 12.3981 15.4889C13.4646 15.4305 14.6727 15.014 14.8768 12.4395C14.3269 12.3187 13.7187 12.2562 13.0688 12.2562C12.8689 12.2562 12.6689 12.2604 12.469 12.2729C10.6818 12.3728 10.0861 13.2393 10.1278 14.0142L10.1236 14.0183Z" fill="#121214"/>
</svg>
