<svg width="20" height="21" viewBox="0 0 20 21" fill="none" xmlns="http://www.w3.org/2000/svg">
<path d="M10 6.39746V10.5L12.5641 13.0641" stroke="#121214" stroke-width="1.5" stroke-linecap="round" stroke-linejoin="round"/>
<path d="M2.14126 5.239L1.37204 5.24287C1.37416 5.66469 1.71558 6.0061 2.1374 6.00823L2.14126 5.239ZM4.74822 6.02134C5.17305 6.02349 5.51917 5.68082 5.52131 5.25599C5.52344 4.83116 5.18078 4.48503 4.75595 4.4829L4.74822 6.02134ZM2.89737 2.62432C2.89523 2.19948 2.54911 1.85683 2.12428 1.85896C1.69945 1.86109 1.35679 2.20722 1.35892 2.63205L2.89737 2.62432ZM1.61701 9.25375C1.6747 8.83282 1.38026 8.4449 0.959354 8.38721C0.538461 8.32952 0.150482 8.6239 0.0927892 9.04482L1.61701 9.25375ZM17.0382 3.46182C13.12 -0.456323 6.78841 -0.496005 2.89619 3.39622L3.98404 4.48408C7.26518 1.20294 12.6227 1.22201 15.9504 4.54968L17.0382 3.46182ZM2.96179 17.5382C6.87993 21.4563 13.2116 21.496 17.1038 17.6038L16.0159 16.5159C12.7348 19.797 7.37732 19.7781 4.04964 16.4504L2.96179 17.5382ZM17.1038 17.6038C20.996 13.7116 20.9563 7.37997 17.0382 3.46182L15.9504 4.54968C19.2781 7.87736 19.297 13.2348 16.0159 16.5159L17.1038 17.6038ZM2.89619 3.39622L1.59733 4.69508L2.68519 5.78293L3.98404 4.48408L2.89619 3.39622ZM2.1374 6.00823L4.74822 6.02134L4.75595 4.4829L2.14513 4.46978L2.1374 6.00823ZM2.91048 5.23514L2.89737 2.62432L1.35892 2.63205L1.37204 5.24287L2.91048 5.23514ZM0.0927892 9.04482C-0.318934 12.0486 0.639887 15.2163 2.96179 17.5382L4.04964 16.4504C2.07982 14.4805 1.26831 11.7976 1.61701 9.25375L0.0927892 9.04482Z" fill="#121214"/>
</svg>
