<svg width="249" height="529" viewBox="0 0 249 529" fill="none" xmlns="http://www.w3.org/2000/svg">
<path opacity="0.14" d="M196.66 0C197.139 1.26003 208.453 31.5171 214.046 72.1162L214.031 72.1328C214.581 76.1299 215.053 80.0865 215.449 84H232.473L233.24 86.2285C233.343 86.5286 243.031 114.715 247.157 150.383C250.997 183.557 250.708 230.217 227.513 264.194C207.037 294.173 172.386 309.575 124.54 309.983H122.62L122.637 310C106.299 310 91.5226 308.182 78.3477 304.567V481.888C78.7951 515.941 96.884 520.031 133.189 520.031V529H12V520.031C47.8743 520.031 62.6553 516.202 63.0869 482.15V299.271C46.0091 291.969 32.2816 280.957 22.0303 266.273C8.99274 247.631 -5.10052 212.588 1.82617 151.546C5.93742 115.324 15.68 86.5227 15.792 86.2441L16.5596 84H200.049C195.394 40.6238 182.664 6.28129 182.423 5.64551L196.66 0ZM216.055 90.6846C219.774 137.155 212.464 177.268 194.615 207.512C171.989 245.869 132.886 269.27 78.3477 277.108V297.566C91.8907 301.507 107.293 303.416 124.492 303.266C170.084 302.874 202.941 288.44 222.138 260.344C261.074 203.366 232.841 106.593 227.802 90.6846H216.055ZM21.2471 90.7002C16.208 106.837 -12.2834 205.674 27.3574 262.376C36.3527 275.241 48.3025 285.097 63.0869 291.908V279.284L82.582 261.007C135.73 254.739 160.579 234.987 181.56 199.429C200.889 166.669 203.725 126.174 200.692 90.6865L21.2471 90.7002Z" fill="#C7C7C7"/>
</svg>
