<svg width="249" height="317" viewBox="0 0 249 317" fill="none" xmlns="http://www.w3.org/2000/svg">
<path opacity="0.14" d="M237 -212V-203.031C201.125 -203.031 186.344 -199.202 185.913 -165.15V17.7275C202.991 25.0298 216.718 36.0432 226.969 50.7266C240.007 69.3693 254.1 104.412 247.174 165.454C243.062 201.676 233.32 230.477 233.208 230.756L232.44 233H48.9509C53.6058 276.375 66.3348 310.717 66.5769 311.354L52.3396 317C51.8603 315.74 40.5464 285.483 34.9538 244.884L34.9685 244.867C34.4186 240.87 33.9482 236.914 33.5515 233H16.5271L15.7595 230.771C15.6558 230.469 5.96826 202.283 1.8425 166.617C-1.99752 133.443 -1.70859 86.7831 21.487 52.8057C41.9627 22.8266 76.6133 7.42543 124.46 7.0166H126.38L126.363 7C142.701 7 157.477 8.8172 170.652 12.4316V-164.888C170.205 -198.941 152.116 -203.031 115.81 -203.031V-212H237ZM124.508 13.7344C78.9154 14.1263 46.0588 28.5603 26.862 56.6562C-12.0746 113.634 16.159 210.407 21.198 226.315L32.9441 226.314C29.2254 179.844 36.5371 139.732 54.3855 109.488C77.0114 71.131 116.114 47.7299 170.652 39.8916V19.4326C157.109 15.4925 141.707 13.5844 124.508 13.7344ZM185.913 37.7158L166.418 55.9932C113.269 62.2607 88.4205 82.0128 67.4402 117.571C48.1109 150.331 45.2735 190.825 48.3064 226.312L227.753 226.3C232.792 210.163 261.283 111.326 221.642 54.624C212.647 41.7591 200.697 31.9019 185.913 25.0908V37.7158Z" fill="#C7C7C7"/>
</svg>
