<svg width="20" height="20" viewBox="0 0 20 20" fill="none" xmlns="http://www.w3.org/2000/svg">
<path d="M6.66663 4.99996C6.66663 5.88401 7.01782 6.73186 7.64294 7.35698C8.26806 7.9821 9.1159 8.33329 9.99996 8.33329C10.884 8.33329 11.7319 7.9821 12.357 7.35698C12.9821 6.73186 13.3333 5.88401 13.3333 4.99996C13.3333 4.1159 12.9821 3.26806 12.357 2.64294C11.7319 2.01782 10.884 1.66663 9.99996 1.66663C9.1159 1.66663 8.26806 2.01782 7.64294 2.64294C7.01782 3.26806 6.66663 4.1159 6.66663 4.99996Z" stroke="#121214"/>
<path d="M16.6667 14.5834C16.6667 16.6545 16.6667 18.3334 10 18.3334C3.33337 18.3334 3.33337 16.6545 3.33337 14.5834C3.33337 12.5123 6.31814 10.8334 10 10.8334C13.682 10.8334 16.6667 12.5123 16.6667 14.5834Z" stroke="#121214"/>
</svg>
