<svg width="179" height="120" viewBox="0 0 179 120" fill="none" xmlns="http://www.w3.org/2000/svg">
<path d="M174.568 77.484L167.445 69.9388L159.086 38.9151C157.417 32.8002 152.13 28.5737 146.138 28.5737H124.619V14.2868C124.619 6.40426 118.581 0 111.132 0H13.9869C6.54566 0 0.5 6.39603 0.5 14.2868V94.287C0.5 102.17 6.53789 108.574 13.9869 108.574H22.3459C23.5899 115.091 29.0363 120 35.5596 120C42.083 120 47.537 115.082 48.7734 108.574H135.62C136.864 115.091 142.31 120 148.834 120C155.357 120 160.811 115.082 162.047 108.574H170.406C174.882 108.574 178.5 104.749 178.5 100V87.6016C178.5 83.7768 177.097 80.177 174.563 77.485L174.568 77.484ZM146.092 34.2861C149.703 34.2861 152.888 36.8574 153.859 40.5135L161.415 68.5732H124.519V34.2858L146.092 34.2861ZM5.89934 94.2866V14.2865C5.89934 9.5457 9.50991 5.71275 13.993 5.71275H111.086C115.561 5.71275 119.18 9.53748 119.18 14.2865V102.852H48.7873C48.628 101.993 48.3549 101.141 48.0287 100.281C47.9225 99.9919 47.8163 99.7669 47.7026 99.5419C47.4295 99.0277 47.2171 98.4572 46.8909 97.9992C46.7316 97.7099 46.5117 97.4849 46.3524 97.1956C46.0262 96.7938 45.7607 96.3359 45.3815 95.9984L44.6836 95.2591C44.3043 94.9136 43.9251 94.5761 43.5534 94.2868C43.2803 94.0618 43.0148 93.8851 42.7417 93.6601C42.3094 93.3708 41.877 93.1458 41.4446 92.9208C41.1716 92.7521 40.853 92.6316 40.5799 92.4628C40.0413 92.2378 39.5028 92.061 38.9642 91.9486C38.6911 91.8923 38.4256 91.7798 38.1526 91.7236C37.3409 91.5548 36.4839 91.4343 35.6191 91.4343C34.7543 91.4343 33.8895 91.5468 33.0856 91.7236C32.8125 91.7236 32.547 91.8923 32.274 91.9486C31.7354 92.1173 31.1969 92.2378 30.6583 92.4628C30.3321 92.5753 30.0666 92.7521 29.7935 92.9208C29.3612 93.1458 28.8757 93.3788 28.4964 93.6601C28.2234 93.8288 27.9579 94.0619 27.6848 94.2868C27.3055 94.5761 26.9263 94.9136 26.5546 95.2591C26.2815 95.4841 26.0691 95.7171 25.8567 95.9984C25.5306 96.4001 25.212 96.8019 24.8858 97.1956C24.6734 97.4849 24.5065 97.7099 24.3472 97.9992C24.0211 98.5134 23.8087 99.0277 23.5356 99.5419C23.4294 99.7669 23.2625 100 23.2094 100.281C22.8833 101.085 22.6178 101.936 22.4509 102.852H14.0918C9.61649 102.852 5.99815 99.0278 5.99815 94.2787L5.89934 94.2866ZM35.5645 114.286C31.0892 114.286 27.4708 110.462 27.4708 105.712C27.4708 100.972 31.0814 97.1387 35.5645 97.1387C40.0398 97.1387 43.6582 100.963 43.6582 105.712C43.6582 110.453 40.0476 114.286 35.5645 114.286ZM148.836 114.286C144.361 114.286 140.743 110.462 140.743 105.712C140.743 100.972 144.353 97.1387 148.836 97.1387C153.312 97.1387 156.93 100.963 156.93 105.712C156.93 110.453 153.32 114.286 148.836 114.286ZM173.11 99.9994C173.11 101.598 171.926 102.86 170.409 102.86H162.05C161.891 102 161.618 101.149 161.292 100.289C161.185 99.9995 161.079 99.7745 160.965 99.5495C160.692 99.0352 160.48 98.4647 160.154 98.0067C159.995 97.7174 159.775 97.4924 159.615 97.2032C159.289 96.8014 159.024 96.3434 158.644 96.0059L157.947 95.2667C157.567 94.9212 157.188 94.5836 156.816 94.2944C156.543 94.0694 156.278 93.8926 156.005 93.6676C155.572 93.3784 155.14 93.1534 154.708 92.9284C154.434 92.7596 154.116 92.6391 153.843 92.4704C153.304 92.2454 152.766 92.0686 152.227 91.9561C151.954 91.8999 151.689 91.7874 151.415 91.7311C150.604 91.5624 149.747 91.4418 148.882 91.4418C148.017 91.4418 147.152 91.5543 146.349 91.7311C146.075 91.7311 145.81 91.8999 145.537 91.9561C144.998 92.1249 144.46 92.2454 143.921 92.4704C143.595 92.5829 143.33 92.7596 143.056 92.9284C142.624 93.1534 142.139 93.3864 141.759 93.6676C141.486 93.8364 141.221 94.0694 140.948 94.2944C140.568 94.5836 140.189 94.9211 139.817 95.2667C139.544 95.4917 139.332 95.7247 139.12 96.0059C138.793 96.4077 138.475 96.8094 138.149 97.2032C137.936 97.4924 137.769 97.7174 137.61 98.0067C137.284 98.521 137.072 99.0352 136.799 99.5495C136.692 99.7745 136.525 100.008 136.472 100.289C136.146 101.092 135.881 101.944 135.714 102.86H124.654V74.286H163.977L170.827 81.5419C172.336 83.1409 173.201 85.3104 173.201 87.6005V99.999L173.11 99.9994ZM59.8378 77.1388V31.4244C59.8378 29.8254 61.0211 28.5638 62.5382 28.5638C64.0477 28.5638 65.2387 29.8173 65.2387 31.4244V77.1388C65.2387 78.7378 64.0554 79.9994 62.5382 79.9994C61.0288 79.9994 59.8378 78.7459 59.8378 77.1388ZM86.8037 77.1388V31.4244C86.8037 29.8254 87.9871 28.5638 89.5042 28.5638C91.0137 28.5638 92.2047 29.8173 92.2047 31.4244V77.1388C92.2047 78.7378 91.0214 79.9994 89.5042 79.9994C87.9947 79.9994 86.8037 78.7459 86.8037 77.1388ZM32.8653 77.1388V31.4244C32.8653 29.8254 34.0486 28.5638 35.5658 28.5638C37.0753 28.5638 38.2663 29.8173 38.2663 31.4244V77.1388C38.2663 78.7378 37.083 79.9994 35.5658 79.9994C34.0563 79.9994 32.8653 78.7459 32.8653 77.1388Z" fill="#121214"/>
</svg>
