<svg width="40" height="14" viewBox="0 0 40 14" fill="none" xmlns="http://www.w3.org/2000/svg">
<path fill-rule="evenodd" clip-rule="evenodd" d="M10.0003 13.1087H6.53862L3.94275 3.48045C3.81954 3.03755 3.55793 2.646 3.1731 2.46146C2.21273 1.9977 1.15447 1.62861 0 1.44247V1.07178H5.57656C6.34621 1.07178 6.92344 1.62861 7.01965 2.27531L8.36653 9.22052L11.8266 1.07178H15.1921L10.0003 13.1087ZM17.117 13.1087H13.8477L16.5397 1.07178H19.8091L17.117 13.1087ZM24.0374 4.40665C24.1336 3.75834 24.7108 3.38765 25.3843 3.38765C26.4425 3.29458 27.5953 3.48073 28.5574 3.94288L29.1346 1.35127C28.1726 0.98058 27.1143 0.794434 26.1539 0.794434C22.9808 0.794434 20.6719 2.46173 20.6719 4.77573C20.6719 6.5361 22.3074 7.46042 23.4619 8.01725C24.7108 8.57249 25.1919 8.94318 25.0957 9.49841C25.0957 10.3313 24.1336 10.7019 23.1732 10.7019C22.0188 10.7019 20.8643 10.4243 19.8077 9.96057L19.2305 12.5538C20.385 13.0159 21.6339 13.2021 22.7884 13.2021C26.3463 13.2936 28.5574 11.6279 28.5574 9.12772C28.5574 5.97927 24.0374 5.79472 24.0374 4.40665ZM40.0009 13.1087L37.405 1.07178H34.6167C34.0395 1.07178 33.4622 1.44247 33.2698 1.9977L28.4629 13.1087H31.8284L32.5002 11.35H36.6353L37.0202 13.1087H40.0009ZM35.097 4.31348L36.0573 8.85001H33.3653L35.097 4.31348Z" fill="#172B85"/>
</svg>
