<svg width="24" height="25" viewBox="0 0 24 25" fill="none" xmlns="http://www.w3.org/2000/svg">
<path d="M2 12.5C2 8.72876 2 6.84315 3.17157 5.67157C4.34315 4.5 6.22876 4.5 10 4.5H14C17.7712 4.5 19.6569 4.5 20.8284 5.67157C22 6.84315 22 8.72876 22 12.5C22 16.2712 22 18.1569 20.8284 19.3284C19.6569 20.5 17.7712 20.5 14 20.5H10C6.22876 20.5 4.34315 20.5 3.17157 19.3284C2 18.1569 2 16.2712 2 12.5Z" stroke="#121214" stroke-width="1.5"/>
<path d="M10 16.5H6" stroke="#121214" stroke-width="1.5" stroke-linecap="round"/>
<path d="M14 16.5H12.5" stroke="#121214" stroke-width="1.5" stroke-linecap="round"/>
<path d="M2 10.5H22" stroke="#121214" stroke-width="1.5" stroke-linecap="round"/>
</svg>
