<svg width="24" height="25" viewBox="0 0 24 25" fill="none" xmlns="http://www.w3.org/2000/svg">
<path d="M21.8179 10.6369C20.7431 5.21691 15.6698 1.7077 10.2413 2.6539C3.16425 3.87569 -0.315085 12.07 3.69253 18.0503C3.85647 18.2892 3.86558 18.4821 3.78361 18.7393C3.40106 19.8141 3.04584 20.8981 2.65419 22.0556C2.86368 22.0005 3.00941 21.9637 3.14603 21.9178C4.16615 21.5871 5.19538 21.2472 6.22461 20.9348C6.37034 20.8889 6.58894 20.9165 6.71645 20.99C9.1028 22.4322 11.644 22.8456 14.34 22.2117C19.4679 21.0175 22.838 15.7905 21.8179 10.6369Z" stroke="#121214" stroke-miterlimit="10"/>
<path d="M16.6169 14.9917C16.5896 15.9838 15.9065 16.7371 14.9319 16.9484C14.3945 17.0586 13.8845 16.9851 13.3653 16.8473C11.0883 16.2502 9.37591 14.8814 8.05522 12.9431C7.61802 12.3 7.18994 11.657 7.0351 10.867C6.99867 10.6557 6.98956 10.4352 6.95312 10.2147C6.98045 9.54412 7.22637 8.97457 7.66356 8.4785C8.02789 8.05593 8.49241 7.99162 8.98426 8.01918C9.11177 8.01918 9.27572 8.19372 9.33948 8.33152C9.63094 8.97457 9.90418 9.63599 10.1592 10.2974C10.2048 10.4076 10.1865 10.5914 10.1228 10.6924C9.96794 10.9496 9.78578 11.1977 9.5854 11.4273C9.40323 11.6294 9.37591 11.7948 9.52164 12.0336C10.2958 13.3105 11.3706 14.2476 12.7642 14.7987C12.9645 14.8814 13.1194 14.8447 13.256 14.6793C13.4837 14.3854 13.7296 14.1098 13.9482 13.8158C14.0849 13.6137 14.2579 13.5494 14.4765 13.6413C15.1414 13.9536 15.8063 14.2659 16.4621 14.6058C16.5532 14.6609 16.626 14.863 16.6169 15.0008V14.9917Z" fill="#121214"/>
</svg>
