<svg width="24" height="24" viewBox="0 0 24 24" fill="none" xmlns="http://www.w3.org/2000/svg">
<path d="M21.8939 6.74614C21.8641 6.58438 21.8006 6.4307 21.7076 6.29507C21.6145 6.15944 21.4939 6.04491 21.3536 5.9589L18.2664 9.0461C18.1224 9.19549 17.9498 9.31434 17.7589 9.3955C17.5679 9.47666 17.3625 9.51849 17.155 9.51849C16.9475 9.51849 16.7423 9.47666 16.5512 9.3955C16.3603 9.31434 16.1876 9.19549 16.0437 9.0461L14.8705 7.99645C14.5877 7.70791 14.4293 7.31997 14.4293 6.91593C14.4293 6.5119 14.5877 6.12396 14.8705 5.83541L17.9577 2.74821C17.8904 2.59005 17.7891 2.44861 17.6612 2.33391C17.533 2.21922 17.3815 2.13406 17.2168 2.08446C16.1396 1.86965 15.0238 1.9616 13.9963 2.34984C12.9689 2.73808 12.071 3.407 11.4051 4.28046C10.7391 5.15393 10.3318 6.19683 10.2295 7.29043C10.1336 8.31485 10.309 9.34521 10.7363 10.2785L2.45223 18.5625C1.84071 19.1741 1.85085 20.1686 2.47472 20.7676L3.34034 21.5986C3.94411 22.1783 4.89983 22.1712 5.49487 21.5824L13.8741 13.294C14.7803 13.6683 15.7675 13.8107 16.7458 13.7058C17.8274 13.5899 18.8558 13.1762 19.7163 12.5107C20.577 11.8452 21.2361 10.9541 21.6205 9.93644C22.005 8.91876 22.0996 7.81439 21.8939 6.74614Z" stroke="#121214" stroke-width="1.5" stroke-linecap="round" stroke-linejoin="round"/>
</svg>
